<svg width="20" height="20" viewBox="0 0 20 20" fill="none" xmlns="http://www.w3.org/2000/svg">
<g clip-path="url(#clip0_62_2543)">
<path d="M10 0C4.48594 0 0 4.48594 0 10C0 15.5141 4.48594 20 10 20C15.5141 20 20 15.5141 20 10C20 4.48594 15.5141 0 10 0ZM10 18.75C5.175 18.75 1.25 14.825 1.25 10C1.25 5.175 5.175 1.25 10 1.25C14.825 1.25 18.75 5.175 18.75 10C18.75 14.825 14.825 18.75 10 18.75Z" fill="#0C0C0C"/>
<path d="M13.75 9.375H10.625V6.25C10.625 6.08424 10.5592 5.92527 10.4419 5.80806C10.3247 5.69085 10.1658 5.625 10 5.625C9.83424 5.625 9.67527 5.69085 9.55806 5.80806C9.44085 5.92527 9.375 6.08424 9.375 6.25V9.375H6.25C6.08424 9.375 5.92527 9.44085 5.80806 9.55806C5.69085 9.67527 5.625 9.83424 5.625 10C5.625 10.1658 5.69085 10.3247 5.80806 10.4419C5.92527 10.5592 6.08424 10.625 6.25 10.625H9.375V13.75C9.375 13.9158 9.44085 14.0747 9.55806 14.1919C9.67527 14.3092 9.83424 14.375 10 14.375C10.1658 14.375 10.3247 14.3092 10.4419 14.1919C10.5592 14.0747 10.625 13.9158 10.625 13.75V10.625H13.75C13.9158 10.625 14.0747 10.5592 14.1919 10.4419C14.3092 10.3247 14.375 10.1658 14.375 10C14.375 9.83424 14.3092 9.67527 14.1919 9.55806C14.0747 9.44085 13.9158 9.375 13.75 9.375Z" fill="#0C0C0C"/>
</g>
<defs>
<clipPath id="clip0_62_2543">
<rect width="20" height="20" fill="white"/>
</clipPath>
</defs>
</svg>
