<svg width="28" height="28" viewBox="0 0 28 28" fill="none" xmlns="http://www.w3.org/2000/svg">
<path fill-rule="evenodd" clip-rule="evenodd" d="M9.8169 4.03286H6.09859C4.95772 4.03286 4.03286 4.95772 4.03286 6.09859V9.8169C4.03286 10.9578 4.95772 11.8826 6.09859 11.8826H9.8169C10.9578 11.8826 11.8826 10.9578 11.8826 9.8169V6.09859C11.8826 4.95772 10.9578 4.03286 9.8169 4.03286ZM6.09859 3C4.38729 3 3 4.38729 3 6.09859V9.8169C3 11.5282 4.38729 12.9155 6.09859 12.9155H9.8169C11.5282 12.9155 12.9155 11.5282 12.9155 9.8169V6.09859C12.9155 4.38729 11.5282 3 9.8169 3H6.09859Z" fill="#A4A7AE"/>
<path fill-rule="evenodd" clip-rule="evenodd" d="M21.9014 4.03286H18.1831C17.0422 4.03286 16.1173 4.95772 16.1173 6.09859V9.8169C16.1173 10.9578 17.0422 11.8826 18.1831 11.8826H21.9014C23.0422 11.8826 23.9671 10.9578 23.9671 9.8169V6.09859C23.9671 4.95772 23.0422 4.03286 21.9014 4.03286ZM18.1831 3C16.4718 3 15.0845 4.38729 15.0845 6.09859V9.8169C15.0845 11.5282 16.4718 12.9155 18.1831 12.9155H21.9014C23.6127 12.9155 25 11.5282 25 9.8169V6.09859C25 4.38729 23.6127 3 21.9014 3H18.1831Z" fill="#A4A7AE"/>
<path fill-rule="evenodd" clip-rule="evenodd" d="M9.8169 16.1178H6.09859C4.95772 16.1178 4.03286 17.0427 4.03286 18.1836V21.9019C4.03286 23.0427 4.95772 23.9676 6.09859 23.9676H9.8169C10.9578 23.9676 11.8826 23.0427 11.8826 21.9019V18.1836C11.8826 17.0427 10.9578 16.1178 9.8169 16.1178ZM6.09859 15.085C4.38729 15.085 3 16.4723 3 18.1836V21.9019C3 23.6132 4.38729 25.0005 6.09859 25.0005H9.8169C11.5282 25.0005 12.9155 23.6132 12.9155 21.9019V18.1836C12.9155 16.4723 11.5282 15.085 9.8169 15.085H6.09859Z" fill="#A4A7AE"/>
<path fill-rule="evenodd" clip-rule="evenodd" d="M21.9014 16.1178H18.1831C17.0422 16.1178 16.1173 17.0427 16.1173 18.1836V21.9019C16.1173 23.0427 17.0422 23.9676 18.1831 23.9676H21.9014C23.0422 23.9676 23.9671 23.0427 23.9671 21.9019V18.1836C23.9671 17.0427 23.0422 16.1178 21.9014 16.1178ZM18.1831 15.085C16.4718 15.085 15.0845 16.4723 15.0845 18.1836V21.9019C15.0845 23.6132 16.4718 25.0005 18.1831 25.0005H21.9014C23.6127 25.0005 25 23.6132 25 21.9019V18.1836C25 16.4723 23.6127 15.085 21.9014 15.085H18.1831Z" fill="#A4A7AE"/>
</svg>
