<svg width="24" height="24" viewBox="0 0 24 24" fill="none" xmlns="http://www.w3.org/2000/svg">
<g clip-path="url(#clip0_120_11167)">
<path d="M15.8856 21.2321H5.06841C3.66375 21.2321 2.52094 20.0894 2.52094 18.6847V11.329H0.709312C0.431718 11.329 0.179718 11.1671 0.0642647 10.9147C-0.0511416 10.6623 -0.00881346 10.3657 0.172733 10.1557L4.53183 5.11392C4.66659 4.95806 4.86239 4.86853 5.06841 4.86853C5.27442 4.86853 5.47026 4.95811 5.60498 5.11392L9.96408 10.1557C10.1456 10.3657 10.188 10.6623 10.0725 10.9147C9.95714 11.1671 9.70509 11.329 9.4275 11.329H7.61592V16.1372H12.7245C12.9312 16.1372 13.1276 16.2274 13.2624 16.3841L16.4235 20.0604C16.6042 20.2706 16.6459 20.5668 16.5303 20.8187C16.4146 21.0706 16.1628 21.2321 15.8856 21.2321Z" fill="#6EE1FF"/>
<path d="M18.9317 19.1313C18.7257 19.1313 18.5298 19.0418 18.3951 18.886L14.036 13.8441C13.8545 13.6342 13.8121 13.3376 13.9276 13.0852C14.0429 12.8328 14.295 12.6709 14.5726 12.6709H16.3842V7.86264H11.2756C11.0689 7.86264 10.8725 7.7725 10.7377 7.61575L7.57666 3.93943C7.39591 3.72929 7.35419 3.43304 7.46983 3.18114C7.58547 2.92918 7.83723 2.7677 8.11445 2.7677H18.9317C20.3363 2.7677 21.4791 3.91051 21.4791 5.31517V12.6709H23.2907C23.5683 12.6709 23.8203 12.8328 23.9358 13.0852C24.0512 13.3376 24.0089 13.6341 23.8273 13.8441L19.4682 18.886C19.3335 19.0418 19.1377 19.1313 18.9317 19.1313Z" fill="#6EE1FF"/>
<path d="M23.2907 12.671H21.4791V5.31529C21.4791 3.91063 20.3363 2.76782 18.9316 2.76782H11.9999V7.86271H16.3842V12.671H14.5726C14.295 12.671 14.0429 12.8329 13.9275 13.0853C13.8121 13.3377 13.8544 13.6342 14.036 13.8442L18.3951 18.886C18.5298 19.0419 18.7256 19.1314 18.9317 19.1314C19.1377 19.1314 19.3335 19.0418 19.4682 18.886L23.8273 13.8442C24.0089 13.6342 24.0513 13.3377 23.9358 13.0853C23.8203 12.8329 23.5683 12.671 23.2907 12.671Z" fill="#05CDFF"/>
<path d="M13.2622 16.3841C13.1274 16.2274 12.931 16.1372 12.7244 16.1372H12.0854V21.2321H15.8854C16.1626 21.2321 16.4144 21.0706 16.5301 20.8187C16.6457 20.5668 16.604 20.2705 16.4233 20.0604L13.2622 16.3841Z" fill="#05CDFF"/>
</g>
<defs>
<clipPath id="clip0_120_11167">
<rect width="24" height="24" fill="white"/>
</clipPath>
</defs>
</svg>
