<svg width="16" height="16" viewBox="0 0 16 16" fill="none" xmlns="http://www.w3.org/2000/svg">
<path fill-rule="evenodd" clip-rule="evenodd" d="M6.0592 2.46458C5.8863 2.47212 5.72311 2.54659 5.60412 2.67226L0.923129 7.47109C0.843032 7.53366 0.778302 7.61373 0.733888 7.70515C0.689474 7.79658 0.666552 7.89695 0.666873 7.9986C0.667195 8.10024 0.690752 8.20046 0.735744 8.29161C0.780735 8.38275 0.845971 8.4624 0.926463 8.52447C0.926907 8.52469 0.927351 8.52492 0.927796 8.52514L5.60423 13.3201C5.66459 13.3859 5.73756 13.4389 5.8188 13.4759C5.90004 13.513 5.9879 13.5334 6.07716 13.5358C6.16642 13.5383 6.25527 13.5228 6.33843 13.4903C6.42159 13.4577 6.49737 13.4088 6.56127 13.3465C6.62517 13.2841 6.67589 13.2095 6.71042 13.1272C6.74495 13.0448 6.76259 12.9564 6.76228 12.8671C6.76198 12.7778 6.74374 12.6895 6.70865 12.6073C6.67356 12.5252 6.62233 12.451 6.558 12.3891L2.92389 8.66251H14.657C14.7453 8.66376 14.833 8.64744 14.915 8.61449C14.997 8.58155 15.0716 8.53265 15.1345 8.47062C15.1974 8.40859 15.2474 8.33467 15.2815 8.25317C15.3156 8.17166 15.3331 8.08419 15.3331 7.99584C15.3331 7.90749 15.3156 7.82002 15.2815 7.73852C15.2474 7.65701 15.1974 7.5831 15.1345 7.52107C15.0716 7.45904 14.997 7.41013 14.915 7.37719C14.833 7.34425 14.7453 7.32793 14.657 7.32918H2.92389L6.558 3.60326C6.65327 3.50844 6.71765 3.38703 6.7427 3.25498C6.76775 3.12292 6.7523 2.98637 6.69837 2.86325C6.64445 2.74012 6.55457 2.63617 6.44053 2.56503C6.32648 2.49389 6.19349 2.45886 6.0592 2.46458Z" fill="#0C0C0C"/>
</svg>
