<svg width="16" height="16" viewBox="0 0 16 16" fill="none" xmlns="http://www.w3.org/2000/svg">
<path fill-rule="evenodd" clip-rule="evenodd" d="M9.9408 13.5355C10.1137 13.528 10.2769 13.4535 10.3959 13.3279L15.0769 8.52904C15.157 8.46646 15.2217 8.3864 15.2661 8.29497C15.3105 8.20354 15.3334 8.10317 15.3331 8.00153C15.3328 7.89988 15.3092 7.79966 15.2643 7.70852C15.2193 7.61737 15.154 7.53772 15.0735 7.47565C15.0731 7.47543 15.0726 7.47521 15.0722 7.47498L10.3958 2.68006C10.3354 2.61426 10.2624 2.56125 10.1812 2.52419C10.1 2.48712 10.0121 2.46675 9.92284 2.46429C9.83358 2.46182 9.74473 2.47732 9.66157 2.50984C9.57841 2.54237 9.50263 2.59128 9.43873 2.65365C9.37483 2.71603 9.32411 2.7906 9.28958 2.87295C9.25505 2.9553 9.23741 3.04375 9.23772 3.13304C9.23802 3.22234 9.25626 3.31066 9.29135 3.39278C9.32645 3.47489 9.37767 3.54912 9.442 3.61105L13.0761 7.33761L1.34304 7.33761C1.2547 7.33636 1.16699 7.35269 1.08501 7.38563C1.00303 7.41857 0.928416 7.46748 0.865503 7.52951C0.80259 7.59154 0.752633 7.66545 0.718534 7.74696C0.684435 7.82846 0.666875 7.91593 0.666875 8.00428C0.666875 8.09263 0.684435 8.1801 0.718534 8.2616C0.752633 8.34311 0.80259 8.41702 0.865503 8.47905C0.928416 8.54108 1.00303 8.58999 1.08501 8.62293C1.16699 8.65588 1.2547 8.6722 1.34304 8.67095L13.0761 8.67095L9.442 12.3969C9.34673 12.4917 9.28235 12.6131 9.2573 12.7451C9.23225 12.8772 9.2477 13.0138 9.30163 13.1369C9.35555 13.26 9.44543 13.364 9.55947 13.4351C9.67352 13.5062 9.80651 13.5413 9.9408 13.5355Z" fill="#02D382"/>
</svg>
