<svg width="20" height="20" viewBox="0 0 20 20" fill="none" xmlns="http://www.w3.org/2000/svg">
<g clip-path="url(#clip0_207_31288)">
<path d="M5.41667 15.0003H4.16667C1.86917 15.0003 0 13.1312 0 10.8337C0 8.63199 1.71583 6.82449 3.88 6.67699C4.45667 3.79699 7.0275 1.66699 10 1.66699C12.3342 1.66699 14.4833 2.98199 15.5442 5.03699C17.23 5.21283 18.7233 6.24783 19.4817 7.78199C19.5833 7.98866 19.4992 8.23783 19.2925 8.33949C19.0875 8.43949 18.8367 8.35699 18.7342 8.15033C18.0725 6.81116 16.7383 5.92866 15.2517 5.84866C15.0983 5.84033 14.9617 5.74783 14.8967 5.60866C14.0158 3.72116 12.0942 2.50033 10 2.50033C7.32083 2.50033 5.01917 4.49616 4.64583 7.14199C4.61667 7.34699 4.44083 7.50033 4.23333 7.50033C2.32833 7.50033 0.833333 8.99533 0.833333 10.8337C0.833333 12.672 2.32833 14.167 4.16667 14.167H5.41667C5.64667 14.167 5.83333 14.3537 5.83333 14.5837C5.83333 14.8137 5.64667 15.0003 5.41667 15.0003Z" fill="#8C909E"/>
<path d="M11.6669 18.3333C11.5585 18.3333 11.4519 18.2908 11.3719 18.2117L7.62188 14.4617C7.45937 14.2992 7.45937 14.035 7.62188 13.8725L11.3719 10.1225C11.4919 10.0033 11.671 9.96667 11.826 10.0325C11.9819 10.0967 12.0835 10.2492 12.0835 10.4175V12.5H17.0835C18.2327 12.5 19.1669 11.565 19.1669 10.4167C19.1669 10.1867 19.3535 10 19.5835 10C19.8135 10 20.0002 10.1867 20.0002 10.4167V11.25C20.0002 13.7775 17.9435 15.8333 15.4169 15.8333H12.0835V17.9167C12.0835 18.085 11.9819 18.2375 11.826 18.3017C11.7752 18.3233 11.7202 18.3333 11.6669 18.3333ZM8.50604 14.1667L11.2502 16.9108V15.4167C11.2502 15.1867 11.4369 15 11.6669 15H15.4169C16.9619 15 18.2902 14.0617 18.8652 12.725C18.3719 13.1067 17.7535 13.3333 17.0835 13.3333H11.6669C11.4369 13.3333 11.2502 13.1467 11.2502 12.9167V11.4225L8.50604 14.1667Z" fill="#8C909E"/>
</g>
<defs>
<clipPath id="clip0_207_31288">
<rect width="20" height="20" fill="white"/>
</clipPath>
</defs>
</svg>
