<svg width="28" height="28" viewBox="0 0 28 28" fill="none" xmlns="http://www.w3.org/2000/svg">
<path d="M18.7135 18.7115H16.9677C15.716 18.7115 14.6982 17.6937 14.6982 16.442V14.6962C14.6982 13.4445 15.716 12.4268 16.9677 12.4268H18.7135C19.9652 12.4268 20.983 13.4445 20.983 14.6962V16.442C20.983 17.6937 19.9652 18.7115 18.7135 18.7115ZM16.9677 13.4742C16.2939 13.4742 15.7457 14.0224 15.7457 14.6962V16.442C15.7457 17.1159 16.2939 17.664 16.9677 17.664H18.7135C19.3873 17.664 19.9355 17.1159 19.9355 16.442V14.6962C19.9355 14.0224 19.3873 13.4742 18.7135 13.4742H16.9677Z" fill="#A4A7AE"/>
<path d="M24.1254 15.8278V14.9916C24.1289 10.4771 24.1307 8.21282 22.9016 6.98556C22.0986 6.18426 20.8766 5.91716 18.8864 5.82987V3.52373C18.8864 3.23393 18.6525 3 18.3627 3C18.0729 3 17.839 3.23393 17.839 3.52373V5.80019C17.0726 5.78797 16.2137 5.78972 15.243 5.79146C14.8485 5.79321 14.4347 5.79321 14 5.79321C13.5653 5.79321 13.1516 5.79321 12.7553 5.79146C11.7847 5.78972 10.924 5.78797 10.1594 5.80019V3.52373C10.1594 3.23393 9.92545 3 9.63566 3C9.34586 3 9.11193 3.23393 9.11193 3.52373V5.82987C7.12351 5.91541 5.89974 6.18251 5.09669 6.98556C3.86768 8.21282 3.86943 10.4771 3.87466 14.9916V15.8278V16.5855C3.87117 20.6339 3.86943 22.6659 5.02512 23.8216C6.21398 25.0105 8.42236 25.0052 12.8217 24.9983C13.197 24.9983 13.5898 24.9965 14 24.9965C14.4103 24.9965 14.8031 24.9965 15.1784 24.9983C15.5154 24.9983 15.8383 25 16.1508 25C19.9094 25 21.8769 24.9197 22.975 23.8216C24.1307 22.6659 24.1289 20.6339 24.1254 16.5855V15.8278ZM12.7536 6.83891C13.1499 6.84066 13.5653 6.84066 14 6.84066C14.4347 6.84066 14.8502 6.84066 15.2465 6.83891C19.1238 6.83019 21.2624 6.82669 22.1632 7.72576C22.5036 8.06618 22.7183 8.5707 22.8528 9.28472H5.14732C5.28174 8.5707 5.49647 8.06618 5.83689 7.72576C6.7377 6.82669 8.87451 6.83019 12.7536 6.83891ZM23.078 16.5855C23.0815 20.2254 23.0832 22.2312 22.2348 23.0797C21.3532 23.9613 19.2897 23.9578 15.1802 23.9508C14.8048 23.9491 14.4103 23.9491 14 23.9491C13.5898 23.9491 13.1952 23.9491 12.8199 23.9508C8.71041 23.9578 6.64692 23.9613 5.76532 23.0797C4.91688 22.2312 4.91863 20.2254 4.92212 16.5855V15.8278V14.9916C4.92037 13.0032 4.91863 11.4826 5.0129 10.3322H22.9854C23.0797 11.4826 23.0797 13.0032 23.078 14.9898V15.8261V16.5855Z" fill="#A4A7AE"/>
</svg>
