<svg width="20" height="20" viewBox="0 0 20 20" fill="none" xmlns="http://www.w3.org/2000/svg">
<g clip-path="url(#clip0_62_2790)">
<path d="M14.2189 14.2188H12.6564C11.5361 14.2188 10.6251 13.3078 10.6251 12.1875V10.625C10.6251 9.50469 11.5361 8.59375 12.6564 8.59375H14.2189C15.3392 8.59375 16.2501 9.50469 16.2501 10.625V12.1875C16.2501 13.3078 15.3392 14.2188 14.2189 14.2188ZM12.6564 9.53125C12.0532 9.53125 11.5626 10.0219 11.5626 10.625V12.1875C11.5626 12.7906 12.0532 13.2812 12.6564 13.2812H14.2189C14.822 13.2812 15.3126 12.7906 15.3126 12.1875V10.625C15.3126 10.0219 14.822 9.53125 14.2189 9.53125H12.6564Z" fill="black"/>
<path d="M19.0626 11.6375V10.8891C19.0657 6.84844 19.0673 4.82188 17.9673 3.72344C17.2485 3.00625 16.1548 2.76719 14.3735 2.68906V0.625C14.3735 0.365625 14.1641 0.15625 13.9048 0.15625C13.6454 0.15625 13.436 0.365625 13.436 0.625V2.6625C12.7501 2.65156 11.9813 2.65313 11.1126 2.65469C10.7595 2.65625 10.3891 2.65625 10.0001 2.65625C9.61102 2.65625 9.24071 2.65625 8.88602 2.65469C8.01727 2.65313 7.24696 2.65156 6.56259 2.6625V0.625C6.56259 0.365625 6.35321 0.15625 6.09384 0.15625C5.83446 0.15625 5.62509 0.365625 5.62509 0.625V2.68906C3.8454 2.76562 2.75009 3.00469 2.03134 3.72344C0.931336 4.82188 0.932898 6.84844 0.937586 10.8891V11.6375V12.3156C0.934461 15.9391 0.932898 17.7578 1.96727 18.7922C3.03134 19.8562 5.0079 19.8516 8.9454 19.8453C9.28133 19.8453 9.6329 19.8438 10.0001 19.8438C10.3673 19.8438 10.7188 19.8438 11.0548 19.8453C11.3563 19.8453 11.6454 19.8469 11.9251 19.8469C15.2891 19.8469 17.0501 19.775 18.0329 18.7922C19.0673 17.7578 19.0657 15.9391 19.0626 12.3156V11.6375ZM8.88446 3.59219C9.23915 3.59375 9.61102 3.59375 10.0001 3.59375C10.3891 3.59375 10.761 3.59375 11.1157 3.59219C14.586 3.58437 16.5001 3.58125 17.3063 4.38594C17.611 4.69063 17.8032 5.14219 17.9235 5.78125H2.07665C2.19696 5.14219 2.38915 4.69063 2.69384 4.38594C3.50009 3.58125 5.41259 3.58437 8.88446 3.59219ZM18.1251 12.3156C18.1282 15.5734 18.1298 17.3687 17.3704 18.1281C16.5813 18.9172 14.7345 18.9141 11.0563 18.9078C10.7204 18.9062 10.3673 18.9062 10.0001 18.9062C9.6329 18.9062 9.27977 18.9062 8.94384 18.9078C5.26571 18.9141 3.41884 18.9172 2.62977 18.1281C1.8704 17.3687 1.87196 15.5734 1.87509 12.3156V11.6375V10.8891C1.87352 9.10938 1.87196 7.74844 1.95634 6.71875H18.0423C18.1266 7.74844 18.1266 9.10938 18.1251 10.8875V11.6359V12.3156Z" fill="black"/>
</g>
<defs>
<clipPath id="clip0_62_2790">
<rect width="20" height="20" fill="white"/>
</clipPath>
</defs>
</svg>
