<svg width="24" height="24" viewBox="0 0 24 24" fill="none" xmlns="http://www.w3.org/2000/svg">
<g clip-path="url(#clip0_21134_8873)">
<path d="M11.9999 1.25862C17.9319 1.25862 22.7413 6.06799 22.7413 12C22.7413 17.9321 17.9319 22.7414 11.9999 22.7414C6.06787 22.7414 1.2585 17.9321 1.2585 12C1.2585 6.06799 6.06787 1.25862 11.9999 1.25862ZM11.9999 2.19425e-05C9.62609 -0.00118766 7.30528 0.701869 5.33121 2.02021C3.35713 3.33855 1.81854 5.2129 0.91017 7.40604C0.00179946 9.59918 -0.235515 12.0125 0.228264 14.3406C0.692042 16.6686 1.83606 18.8068 3.51553 20.4844C4.76788 21.7359 6.28165 22.6949 7.94829 23.2924C9.61493 23.8899 11.3931 24.1112 13.1554 23.9405C14.9177 23.7697 16.6203 23.2111 18.1412 22.3047C19.6621 21.3984 20.9637 20.1667 21.9524 18.698C22.9412 17.2293 23.5927 15.56 23.8603 13.8098C24.1278 12.0596 24.0048 10.2719 23.5 8.5749C22.9952 6.87788 22.1211 5.31359 20.9404 3.99422C19.7597 2.67484 18.3018 1.63307 16.671 0.943616C15.1934 0.317887 13.6046 -0.00305684 11.9999 2.19425e-05Z" fill="#02D382"/>
<path d="M11.9999 1.25862C17.9319 1.25862 22.7413 6.06799 22.7413 12C22.7413 17.9321 17.9319 22.7414 11.9999 22.7414C6.06787 22.7414 1.2585 17.9321 1.2585 12C1.2585 6.06799 6.06787 1.25862 11.9999 1.25862Z" fill="#02D382"/>
<path d="M18.5457 8.60578C18.5458 8.7974 18.5081 8.98717 18.4347 9.16415C18.3612 9.34114 18.2535 9.50185 18.1177 9.63703L11.3288 16.4269C11.0551 16.7001 10.6842 16.8535 10.2975 16.8535C9.91084 16.8535 9.53995 16.7001 9.26628 16.4269L5.88425 13.0444C5.73936 12.9111 5.62292 12.75 5.54192 12.5706C5.46092 12.3912 5.41704 12.1973 5.41292 12.0005C5.4088 11.8037 5.44452 11.6081 5.51794 11.4255C5.59135 11.2428 5.70095 11.0769 5.84013 10.9378C5.97931 10.7986 6.14521 10.689 6.32784 10.6156C6.51047 10.5421 6.70606 10.5064 6.90285 10.5105C7.09964 10.5147 7.29356 10.5585 7.47296 10.6395C7.65235 10.7205 7.81351 10.837 7.94675 10.9819L10.2966 13.3317L16.0533 7.57312C16.2575 7.36909 16.5175 7.23014 16.8006 7.17382C17.0836 7.1175 17.3771 7.14634 17.6438 7.25669C17.9105 7.36704 18.1385 7.55395 18.299 7.79382C18.4595 8.03369 18.5453 8.31575 18.5457 8.60437V8.60578Z" fill="white"/>
</g>
<defs>
<clipPath id="clip0_21134_8873">
<rect width="24" height="24" fill="white"/>
</clipPath>
</defs>
</svg>
