<svg width="24" height="24" viewBox="0 0 24 24" fill="none" xmlns="http://www.w3.org/2000/svg">
<g clip-path="url(#clip0_21405_11815)">
<path d="M11.9999 1.25862C17.9319 1.25862 22.7413 6.06799 22.7413 12C22.7413 17.9321 17.9319 22.7414 11.9999 22.7414C6.06787 22.7414 1.2585 17.9321 1.2585 12C1.2585 6.06799 6.06787 1.25862 11.9999 1.25862ZM11.9999 2.19425e-05C9.62609 -0.00118766 7.30528 0.701869 5.33121 2.02021C3.35713 3.33855 1.81854 5.2129 0.91017 7.40604C0.00179946 9.59918 -0.235515 12.0125 0.228264 14.3406C0.692042 16.6686 1.83606 18.8068 3.51553 20.4844C4.76788 21.7359 6.28165 22.6949 7.94829 23.2924C9.61493 23.8899 11.3931 24.1112 13.1554 23.9405C14.9177 23.7697 16.6203 23.2111 18.1412 22.3047C19.6621 21.3984 20.9637 20.1667 21.9524 18.698C22.9412 17.2293 23.5927 15.56 23.8603 13.8098C24.1278 12.0596 24.0048 10.2719 23.5 8.5749C22.9952 6.87788 22.1211 5.31359 20.9404 3.99422C19.7597 2.67484 18.3018 1.63307 16.671 0.943616C15.1934 0.317887 13.6046 -0.00305684 11.9999 2.19425e-05Z" fill="#0C0C0C"/>
<path d="M11.9999 1.25862C17.9319 1.25862 22.7413 6.06799 22.7413 12C22.7413 17.9321 17.9319 22.7414 11.9999 22.7414C6.06787 22.7414 1.2585 17.9321 1.2585 12C1.2585 6.06799 6.06787 1.25862 11.9999 1.25862Z" fill="#0C0C0C"/>
<path d="M18.5452 8.60554C18.5453 8.79716 18.5076 8.98692 18.4342 9.16391C18.3607 9.34089 18.253 9.5016 18.1172 9.63679L11.3283 16.4266C11.0546 16.6998 10.6837 16.8533 10.297 16.8533C9.91035 16.8533 9.53946 16.6998 9.26579 16.4266L5.88376 13.0441C5.73887 12.9109 5.62243 12.7497 5.54143 12.5703C5.46043 12.3909 5.41655 12.197 5.41243 12.0002C5.40831 11.8034 5.44403 11.6078 5.51745 11.4252C5.59086 11.2426 5.70046 11.0767 5.83964 10.9375C5.97882 10.7983 6.14472 10.6887 6.32735 10.6153C6.50998 10.5419 6.70557 10.5062 6.90236 10.5103C7.09915 10.5144 7.29307 10.5583 7.47247 10.6393C7.65186 10.7203 7.81302 10.8367 7.94626 10.9816L10.2961 13.3315L16.0528 7.57288C16.257 7.36885 16.517 7.2299 16.8001 7.17358C17.0832 7.11726 17.3766 7.14609 17.6433 7.25644C17.91 7.36679 18.138 7.55371 18.2985 7.79358C18.459 8.03344 18.5449 8.31551 18.5452 8.60413V8.60554Z" fill="#11F29B"/>
</g>
<defs>
<clipPath id="clip0_21405_11815">
<rect width="24" height="24" fill="white"/>
</clipPath>
</defs>
</svg>
