<svg width="24" height="24" viewBox="0 0 24 24" fill="none" xmlns="http://www.w3.org/2000/svg">
<path d="M12.0028 1.25862C17.9349 1.25862 22.7442 6.06799 22.7442 12C22.7442 17.9321 17.9349 22.7414 12.0028 22.7414C6.07081 22.7414 1.26143 17.9321 1.26143 12C1.26143 6.06799 6.07081 1.25862 12.0028 1.25862ZM12.0028 2.19425e-05C9.62902 -0.00118766 7.30821 0.701869 5.33414 2.02021C3.36006 3.33855 1.82147 5.2129 0.9131 7.40604C0.00472918 9.59918 -0.232585 12.0125 0.231193 14.3406C0.694972 16.6686 1.83899 18.8068 3.51846 20.4844C4.77081 21.7359 6.28458 22.6949 7.95122 23.2924C9.61786 23.8899 11.3961 24.1112 13.1583 23.9405C14.9206 23.7697 16.6232 23.2111 18.1442 22.3047C19.6651 21.3984 20.9666 20.1667 21.9554 18.698C22.9441 17.2293 23.5957 15.56 23.8632 13.8098C24.1308 12.0596 24.0077 10.2719 23.5029 8.5749C22.9981 6.87788 22.124 5.31359 20.9433 3.99422C19.7627 2.67484 18.3047 1.63307 16.6739 0.943616C15.1963 0.317887 13.6075 -0.00305684 12.0028 2.19425e-05Z" fill="#EDECEC"/>
<path d="M18.5486 8.60578C18.5488 8.7974 18.511 8.98717 18.4376 9.16415C18.3641 9.34114 18.2564 9.50185 18.1206 9.63703L11.3317 16.4269C11.058 16.7001 10.6871 16.8535 10.3005 16.8535C9.91377 16.8535 9.54288 16.7001 9.26921 16.4269L5.88718 13.0444C5.74229 12.9111 5.62584 12.75 5.54485 12.5706C5.46385 12.3912 5.41997 12.1973 5.41585 12.0005C5.41173 11.8037 5.44745 11.6081 5.52087 11.4255C5.59428 11.2428 5.70388 11.0769 5.84306 10.9378C5.98224 10.7986 6.14814 10.689 6.33077 10.6156C6.51339 10.5421 6.70899 10.5064 6.90578 10.5105C7.10257 10.5147 7.29649 10.5585 7.47589 10.6395C7.65528 10.7205 7.81644 10.837 7.94968 10.9819L10.2995 13.3317L16.0562 7.57312C16.2604 7.36909 16.5204 7.23014 16.8035 7.17382C17.0866 7.1175 17.38 7.14634 17.6467 7.25669C17.9134 7.36704 18.1414 7.55395 18.3019 7.79382C18.4624 8.03369 18.5483 8.31575 18.5486 8.60437V8.60578Z" fill="#DCDCDC"/>
</svg>
