<svg width="24" height="24" viewBox="0 0 24 24" fill="none" xmlns="http://www.w3.org/2000/svg">
<path d="M12.0028 1.25862C17.9349 1.25862 22.7442 6.06799 22.7442 12C22.7442 17.9321 17.9349 22.7414 12.0028 22.7414C6.07081 22.7414 1.26143 17.9321 1.26143 12C1.26143 6.06799 6.07081 1.25862 12.0028 1.25862ZM12.0028 2.19425e-05C9.62902 -0.00118766 7.30821 0.701869 5.33414 2.02021C3.36006 3.33855 1.82147 5.2129 0.9131 7.40604C0.00472918 9.59918 -0.232585 12.0125 0.231193 14.3406C0.694972 16.6686 1.83899 18.8068 3.51846 20.4844C4.77081 21.7359 6.28458 22.6949 7.95122 23.2924C9.61786 23.8899 11.3961 24.1112 13.1583 23.9405C14.9206 23.7697 16.6232 23.2111 18.1442 22.3047C19.6651 21.3984 20.9666 20.1667 21.9554 18.698C22.9441 17.2293 23.5957 15.56 23.8632 13.8098C24.1308 12.0596 24.0077 10.2719 23.5029 8.5749C22.9981 6.87788 22.124 5.31359 20.9433 3.99422C19.7627 2.67484 18.3047 1.63307 16.6739 0.943616C15.1963 0.317887 13.6075 -0.00305684 12.0028 2.19425e-05Z" fill="#565963"/>
<path d="M18.5481 8.60578C18.5483 8.7974 18.5106 8.98717 18.4371 9.16415C18.3637 9.34114 18.2559 9.50185 18.1201 9.63703L11.3312 16.4269C11.0575 16.7001 10.6867 16.8535 10.3 16.8535C9.91328 16.8535 9.54239 16.7001 9.26872 16.4269L5.88669 13.0444C5.7418 12.9111 5.62536 12.75 5.54436 12.5706C5.46336 12.3912 5.41948 12.1973 5.41536 12.0005C5.41124 11.8037 5.44696 11.6081 5.52038 11.4255C5.59379 11.2428 5.70339 11.0769 5.84257 10.9378C5.98175 10.7986 6.14765 10.689 6.33028 10.6156C6.51291 10.5421 6.7085 10.5064 6.90529 10.5105C7.10208 10.5147 7.296 10.5585 7.4754 10.6395C7.65479 10.7205 7.81595 10.837 7.94919 10.9819L10.299 13.3317L16.0558 7.57312C16.2599 7.36909 16.5199 7.23014 16.803 7.17382C17.0861 7.1175 17.3795 7.14634 17.6462 7.25669C17.9129 7.36704 18.1409 7.55395 18.3014 7.79382C18.462 8.03369 18.5478 8.31575 18.5481 8.60437V8.60578Z" fill="#565963"/>
</svg>
