<svg width="24" height="24" viewBox="0 0 24 24" fill="none" xmlns="http://www.w3.org/2000/svg">
<path d="M18.5491 8.60554C18.5493 8.79716 18.5115 8.98692 18.4381 9.16391C18.3646 9.34089 18.2569 9.5016 18.1211 9.63679L11.3322 16.4266C11.0585 16.6998 10.6876 16.8533 10.3009 16.8533C9.91426 16.8533 9.54337 16.6998 9.2697 16.4266L5.88766 13.0441C5.74278 12.9109 5.62633 12.7497 5.54533 12.5703C5.46434 12.3909 5.42046 12.197 5.41634 12.0002C5.41221 11.8034 5.44794 11.6078 5.52135 11.4252C5.59477 11.2426 5.70437 11.0767 5.84355 10.9375C5.98273 10.7983 6.14862 10.6887 6.33125 10.6153C6.51388 10.5419 6.70947 10.5062 6.90627 10.5103C7.10306 10.5144 7.29698 10.5583 7.47637 10.6393C7.65577 10.7203 7.81693 10.8367 7.95016 10.9816L10.3 13.3315L16.0567 7.57288C16.2609 7.36885 16.5209 7.2299 16.804 7.17358C17.0871 7.11726 17.3805 7.14609 17.6472 7.25644C17.9139 7.36679 18.1419 7.55371 18.3024 7.79358C18.4629 8.03344 18.5488 8.31551 18.5491 8.60413V8.60554Z" fill="#0C0C0C"/>
</svg>
