<svg width="16" height="16" viewBox="0 0 16 16" fill="none" xmlns="http://www.w3.org/2000/svg">
<path fill-rule="evenodd" clip-rule="evenodd" d="M8 1C4.1365 1 1 4.1365 1 8C1 11.8635 4.1365 15 8 15C11.8635 15 15 11.8635 15 8C15 4.1365 11.8635 1 8 1ZM8 2C11.3115 2 14 4.6885 14 8C14 11.3115 11.3115 14 8 14C4.6885 14 2 11.3115 2 8C2 4.6885 4.6885 2 8 2ZM8.5 7.793C8.5 7.041 8.5 4.5 8.5 4.5C8.5 4.224 8.276 4 8 4C7.724 4 7.5 4.224 7.5 4.5V7.793C7.5 8.058 7.6055 8.3125 7.793 8.5C8.254 8.9615 9.6465 10.3535 9.6465 10.3535C9.8415 10.5485 10.1585 10.5485 10.3535 10.3535C10.5485 10.1585 10.5485 9.8415 10.3535 9.6465L8.5 7.793Z" fill="#A4A7AE"/>
</svg>
