<svg width="16" height="16" viewBox="0 0 16 16" fill="none" xmlns="http://www.w3.org/2000/svg">
<g clip-path="url(#clip0_68_2230)">
<path d="M12.9497 12.007L8.94281 8.00002L12.9497 3.99308C13.21 3.73287 13.2104 3.31097 12.9497 3.05027C12.6891 2.78958 12.2671 2.79006 12.0069 3.05027L8 7.05721L3.99306 3.05027C3.73237 2.78958 3.31046 2.79006 3.05025 3.05027C2.79004 3.31048 2.78956 3.73239 3.05025 3.99308L7.05719 8.00002L3.05025 12.007C2.79004 12.2672 2.78956 12.6891 3.05025 12.9498C3.31095 13.2105 3.73285 13.21 3.99306 12.9498L8 8.94283L12.0069 12.9498C12.2676 13.2105 12.6895 13.21 12.9497 12.9498C13.21 12.6896 13.2104 12.2676 12.9497 12.007Z" fill="#0C0C0C"/>
</g>
<defs>
<clipPath id="clip0_68_2230">
<rect width="16" height="16" fill="white"/>
</clipPath>
</defs>
</svg>
