<svg width="20" height="20" viewBox="0 0 20 20" fill="none" xmlns="http://www.w3.org/2000/svg">
<g clip-path="url(#clip0_118_2738)">
<path d="M11.0683 18.9525C10.18 19.095 9.26 19.1667 8.33332 19.1667C3.91332 19.1667 0.83332 17.6292 0.83332 16.25V13.735C2.16914 14.9867 4.98832 15.8333 8.33332 15.8333C8.77 15.8333 9.195 15.8158 9.61332 15.7866C9.84332 15.7716 10.0166 15.5725 10.0008 15.3425C9.98582 15.1125 9.78414 14.9383 9.55664 14.955C9.15832 14.9825 8.75082 15 8.33332 15C3.91332 15 0.83332 13.4625 0.83332 12.0833V9.56828C2.16914 10.82 4.98832 11.6666 8.33332 11.6666C9.52082 11.6666 10.6775 11.5566 11.7716 11.3408C11.9983 11.2958 12.145 11.0775 12.1 10.8516C12.0558 10.6249 11.8341 10.4758 11.6108 10.5233C10.5691 10.7291 9.4666 10.8333 8.33328 10.8333C3.91328 10.8333 0.833281 9.29578 0.833281 7.9166V5.4016C2.16918 6.65332 4.98832 7.5 8.33332 7.5C11.6783 7.5 14.4975 6.65332 15.8333 5.40168V7.9175C15.8333 8.4825 15.3366 8.95918 14.92 9.25832C14.7333 9.39332 14.6908 9.65332 14.825 9.84C14.9067 9.95332 15.0342 10.0133 15.1633 10.0133C15.2483 10.0133 15.3333 9.9875 15.4066 9.935C15.5683 9.81918 15.7016 9.69582 15.8333 9.5725V9.65C15.8333 9.88 16.02 10.0667 16.25 10.0667C16.48 10.0667 16.6667 9.88 16.6667 9.65V3.75C16.6667 1.6475 13.0059 0 8.33336 0C3.66086 0 0 1.6475 0 3.75V16.25C0 18.3525 3.66082 20 8.33332 20C9.30332 20 10.2675 19.9242 11.2 19.7758C11.4267 19.7391 11.5817 19.5258 11.5458 19.2983C11.5092 19.0717 11.2975 18.9167 11.0683 18.9525ZM8.33332 0.83332C12.7533 0.83332 15.8333 2.37082 15.8333 3.75C15.8333 5.12918 12.7541 6.66668 8.33332 6.66668C3.9125 6.66668 0.83332 5.12918 0.83332 3.75C0.83332 2.37082 3.91332 0.83332 8.33332 0.83332Z" fill="black"/>
<path d="M15.4167 10.8333C12.89 10.8333 10.8334 12.89 10.8334 15.4166C10.8334 17.9433 12.89 20 15.4167 20C17.9434 20 20 17.9433 20 15.4167C20 12.89 17.9425 10.8333 15.4167 10.8333ZM15.4167 19.1667C13.3492 19.1667 11.6667 17.4842 11.6667 15.4167C11.6667 13.3492 13.3492 11.6667 15.4167 11.6667C17.4842 11.6667 19.1667 13.3492 19.1667 15.4167C19.1667 17.4842 17.4833 19.1667 15.4167 19.1667Z" fill="black"/>
<path d="M16.4347 13.3766C16.2297 13.2749 15.9789 13.3574 15.8756 13.5633L14.2089 16.8966C14.1064 17.1024 14.1897 17.3524 14.3956 17.4558C14.4572 17.4858 14.5197 17.5 14.5831 17.5C14.7356 17.5 14.8822 17.415 14.9556 17.2691L16.6222 13.9358C16.7247 13.7299 16.6406 13.4799 16.4347 13.3766Z" fill="black"/>
<path d="M16.6667 15.8333C16.2067 15.8333 15.8334 16.2066 15.8334 16.6666C15.8334 17.1266 16.2067 17.5 16.6667 17.5C17.1267 17.5 17.5 17.1267 17.5 16.6667C17.5 16.2067 17.1267 15.8333 16.6667 15.8333Z" fill="black"/>
<path d="M15 14.1666C15 13.7066 14.6267 13.3333 14.1667 13.3333C13.7067 13.3333 13.3334 13.7066 13.3334 14.1666C13.3334 14.6266 13.7067 15 14.1667 15C14.6267 15 15 14.6266 15 14.1666Z" fill="black"/>
</g>
<defs>
<clipPath id="clip0_118_2738">
<rect width="20" height="20" fill="white"/>
</clipPath>
</defs>
</svg>
