<svg width="24" height="24" viewBox="0 0 24 24" fill="none" xmlns="http://www.w3.org/2000/svg">
<g clip-path="url(#clip0_119_7926)">
<path d="M20.4853 3.51471C18.2188 1.24823 15.2053 0 12 0C8.79474 0 5.78119 1.24823 3.51471 3.51471C1.24823 5.78119 0 8.79474 0 12C0 15.2053 1.24823 18.2188 3.51471 20.4853C5.78119 22.7518 8.79474 24 12 24C15.2053 24 18.2188 22.7518 20.4853 20.4853C22.7518 18.2188 24 15.2053 24 12C24 8.79474 22.7518 5.78119 20.4853 3.51471Z" fill="#5DF388"/>
<path d="M20.4853 3.51471C18.2188 1.24823 15.2053 0 12 0V24C15.2053 24 18.2188 22.7518 20.4853 20.4853C22.7518 18.2188 24 15.2053 24 12C24 8.79474 22.7518 5.78119 20.4853 3.51471Z" fill="#4DC97F"/>
<path d="M16.4009 9.026C15.8516 8.47668 14.9613 8.47668 14.4122 9.026L11.1818 12.2563L10.0638 11.1383C9.51447 10.589 8.62421 10.589 8.07507 11.1383C7.52576 11.6874 7.52576 12.5779 8.07507 13.127L10.1874 15.2393C10.462 15.514 10.8218 15.6513 11.1818 15.6513C11.5416 15.6513 11.9014 15.514 12.1761 15.2393L16.4009 11.0147C16.95 10.4654 16.95 9.57513 16.4009 9.026Z" fill="#EBF7FF"/>
<path d="M16.4009 9.026C15.8516 8.47668 14.9614 8.47668 14.4122 9.026L12 11.438V15.3889C12.0617 15.3446 12.1207 15.2948 12.1761 15.2393L16.4008 11.0147C16.9501 10.4654 16.9501 9.57513 16.4009 9.026Z" fill="#C4E5FF"/>
</g>
<defs>
<clipPath id="clip0_119_7926">
<rect width="24" height="24" fill="white"/>
</clipPath>
</defs>
</svg>
