<svg width="20" height="20" viewBox="0 0 20 20" fill="none" xmlns="http://www.w3.org/2000/svg">
<path d="M9.99997 18.8889C5.09078 18.8889 1.11108 14.9092 1.11108 10C1.11108 5.09081 5.09078 1.11111 9.99997 1.11111C14.9092 1.11111 18.8889 5.09081 18.8889 10C18.8889 14.9092 14.9092 18.8889 9.99997 18.8889Z" fill="#D90026"/>
<path d="M18.3292 6.88889C17.0681 3.51408 13.8147 1.11111 9.99997 1.11111C6.18528 1.11111 2.93183 3.51408 1.67074 6.88889L18.3292 6.88889Z" fill="black"/>
<path d="M1.67074 13.1111C2.93183 16.4859 6.18528 18.8889 9.99997 18.8889C13.8147 18.8889 17.0681 16.4859 18.3292 13.1111L1.67074 13.1111Z" fill="#FFDB44"/>
</svg>
