<svg width="16" height="16" viewBox="0 0 16 16" fill="none" xmlns="http://www.w3.org/2000/svg">
<path d="M13.946 9.43364H2.05405C1.90775 9.4346 1.76778 9.49119 1.66469 9.59108C1.56159 9.69096 1.50373 9.82604 1.50373 9.96682C1.50373 10.1076 1.56159 10.2427 1.66469 10.3426C1.76778 10.4425 1.90775 10.499 2.05405 10.5H13.946C14.0922 10.499 14.2322 10.4425 14.3353 10.3426C14.4384 10.2427 14.4963 10.1076 14.4963 9.96682C14.4963 9.82604 14.4384 9.69096 14.3353 9.59108C14.2322 9.49119 14.0922 9.4346 13.946 9.43364ZM2.05405 6.56633H13.946C14.0187 6.56633 14.0908 6.55254 14.158 6.52575C14.2252 6.49895 14.2863 6.45968 14.3377 6.41017C14.3892 6.36066 14.43 6.30189 14.4578 6.2372C14.4857 6.17251 14.5 6.10318 14.5 6.03317C14.5 5.96315 14.4857 5.89382 14.4578 5.82913C14.43 5.76445 14.3892 5.70567 14.3377 5.65616C14.2863 5.60665 14.2252 5.56738 14.158 5.54058C14.0908 5.51379 14.0187 5.5 13.946 5.5H2.05405C1.90711 5.5 1.76618 5.55617 1.66228 5.65616C1.55837 5.75615 1.5 5.89176 1.5 6.03317C1.5 6.17457 1.55837 6.31018 1.66228 6.41017C1.76618 6.51016 1.90711 6.56633 2.05405 6.56633Z" fill="#8C909E"/>
</svg>
