<svg width="20" height="20" viewBox="0 0 20 20" fill="none" xmlns="http://www.w3.org/2000/svg">
<path d="M2.54535 16.0116C2.5774 16.0116 2.60945 16.0081 2.6408 16.0012L7.58079 14.9262C7.6645 14.908 7.74139 14.8662 7.80216 14.8056L16.1696 6.45876C17.0853 5.5454 17.3602 4.17003 16.866 2.97488C16.3717 1.77955 15.206 1.00001 13.9126 1.00001H13.9105C13.0618 0.998255 12.2476 1.33627 11.6498 1.93893L3.30301 10.3064C3.24241 10.3672 3.20055 10.4441 3.18233 10.5278L2.10733 15.4679C2.07843 15.6003 2.11118 15.7389 2.1963 15.8445C2.28142 15.9501 2.40979 16.0116 2.54535 16.0116ZM4.25419 10.6227L10.0299 4.83259L13.276 8.07862L7.48586 13.8544L4.25419 10.6227ZM12.2845 2.57223C12.7145 2.13876 13.3003 1.8955 13.9109 1.89672H13.9124C14.8428 1.89672 15.6817 2.45752 16.0372 3.31745C16.3928 4.17739 16.195 5.16675 15.5361 5.82387L13.9107 7.44532L10.6632 4.1977L12.2845 2.57223ZM3.88394 11.5208L6.58792 14.2246L3.13189 14.9767L3.88394 11.5208Z" fill="black"/>
<path d="M17.7113 18.1033H2.27551C2.02786 18.1033 1.82715 18.304 1.82715 18.5516C1.82715 18.7991 2.02786 19 2.27551 19H17.7113C17.9589 19 18.1596 18.7991 18.1596 18.5516C18.1596 18.304 17.9589 18.1033 17.7113 18.1033Z" fill="black"/>
</svg>
