<svg width="60" height="60" viewBox="0 0 60 60" fill="none" xmlns="http://www.w3.org/2000/svg">
<g clip-path="url(#clip0_97_6148)">
<path d="M29.5297 59.9359L8.43599 54.0765C7.67521 53.8651 7.14868 53.1724 7.14868 52.3828V33.9844H52.8518V52.3828C52.8518 53.1724 52.3253 53.8651 51.5645 54.0765L30.4708 59.9359C30.1629 60.0213 29.8376 60.0213 29.5297 59.9359Z" fill="#FFDD54"/>
<path d="M30.0002 60C30.1586 60 30.3168 59.9787 30.4708 59.9359L51.5645 54.0765C52.3253 53.8651 52.8518 53.1724 52.8518 52.3828V33.9844H30.0002V60Z" fill="#FFB454"/>
<path d="M7.14868 29.2969L30.0002 22.8516L52.8518 29.2969L44.0627 35.7422H15.9377L7.14868 29.2969Z" fill="#FFB454"/>
<path d="M44.0627 35.7422L52.8518 29.2969L30.0002 22.8516V35.7422H44.0627Z" fill="#FF8659"/>
<path d="M7.14875 29.2969L2.7466 35.9413C2.08707 36.9368 2.59086 38.2862 3.74152 38.6058L23.0598 43.972C23.7917 44.1754 24.5715 43.8854 24.9928 43.2534L30.0003 35.7422L7.14875 29.2969Z" fill="#FFF17D"/>
<path d="M52.8518 29.2969L57.254 35.9413C57.9135 36.9368 57.4097 38.2862 56.259 38.6058L36.9408 43.972C36.2088 44.1754 35.4291 43.8854 35.0078 43.2534L30.0002 35.7422L52.8518 29.2969Z" fill="#FFDD54"/>
<path d="M28.9022 30.0836L23.5242 25.7812H18.2815C15.369 25.7812 13.0081 23.4203 13.0081 20.5078V5.27344C13.0081 2.36098 15.369 0 18.2815 0H41.719C44.6315 0 46.9924 2.36098 46.9924 5.27344V20.5078C46.9924 23.4203 44.6315 25.7812 41.719 25.7812H36.4763L31.0984 30.0836C30.4563 30.5972 29.5442 30.5972 28.9022 30.0836Z" fill="#F9F9F9"/>
<path d="M41.719 0H30.0002V30.4688C30.3888 30.4688 30.7773 30.3403 31.0983 30.0836L36.4763 25.7812H41.719C44.6315 25.7812 46.9924 23.4203 46.9924 20.5078V5.27344C46.9924 2.36098 44.6315 0 41.719 0Z" fill="#E2DFF4"/>
<path d="M30.0001 18.457C29.1912 18.457 28.5353 17.8012 28.5353 16.9922V14.543C28.5353 13.7339 29.1912 13.0781 30.0001 13.0781C30.553 13.0781 31.0676 12.8569 31.4492 12.455C31.8302 12.0537 32.0243 11.5269 31.9955 10.9717C31.9416 9.9334 31.0835 9.10348 30.0421 9.0825C29.0326 9.06059 28.1608 9.80004 28.0214 10.7994C28.0088 10.8911 28.0022 10.9856 28.0022 11.0801C28.0022 11.8891 27.3463 12.5449 26.5374 12.5449C25.7284 12.5449 25.0725 11.8891 25.0725 11.0801C25.0725 10.851 25.0884 10.6206 25.1197 10.3951C25.4597 7.95973 27.5483 6.15234 30.0002 6.15234C30.0339 6.15234 30.0674 6.1527 30.1013 6.1534C32.6707 6.2052 34.7879 8.25492 34.9213 10.8198C34.9921 12.1854 34.5136 13.4824 33.5738 14.4723C32.9916 15.0854 32.2611 15.5343 31.465 15.7833V16.9922C31.465 17.8012 30.8091 18.457 30.0001 18.457Z" fill="#FF3C7D"/>
<path d="M30.0002 23.25C30.8093 23.25 31.4651 22.5942 31.4651 21.7852C31.4651 20.9761 30.8093 20.3203 30.0002 20.3203C29.1912 20.3203 28.5354 20.9761 28.5354 21.7852C28.5354 22.5942 29.1912 23.25 30.0002 23.25Z" fill="#FF3C7D"/>
<path d="M30.0421 9.08262C31.0835 9.10359 31.9416 9.93352 31.9955 10.9718C32.0243 11.5269 31.8302 12.0537 31.4492 12.4552C31.0676 12.857 30.553 13.0782 30.0002 13.0782V18.4571C30.8092 18.4571 31.465 17.8014 31.465 16.9923V15.7833C32.2611 15.5343 32.9916 15.0854 33.5738 14.4723C34.5136 13.4824 34.9922 12.1854 34.9213 10.8198C34.7879 8.25492 32.6707 6.2052 30.1013 6.1534C30.0674 6.1527 30.0339 6.15234 30.0002 6.15234V9.08355C30.0143 9.08367 30.028 9.08227 30.0421 9.08262Z" fill="#EA1C81"/>
<path d="M31.4651 21.7852C31.4651 20.9761 30.8093 20.3203 30.0002 20.3203V23.25C30.8093 23.25 31.4651 22.5941 31.4651 21.7852Z" fill="#EA1C81"/>
</g>
<defs>
<clipPath id="clip0_97_6148">
<rect width="60" height="60" fill="white"/>
</clipPath>
</defs>
</svg>
