<svg width="20" height="20" viewBox="0 0 20 20" fill="none" xmlns="http://www.w3.org/2000/svg">
<circle cx="9.77781" cy="10" r="8.88889" fill="#F2F0F2"/>
<mask id="mask0_131_4621" style="mask-type:alpha" maskUnits="userSpaceOnUse" x="0" y="1" width="19" height="18">
<circle cx="9.77781" cy="10" r="8.88889" fill="#FCFCFC"/>
</mask>
<g mask="url(#mask0_131_4621)">
<rect x="3.77783" y="16.8889" width="12.2222" height="2.22222" fill="#D90026"/>
<rect x="3.77783" y="16.8889" width="12.2222" height="2.22222" fill="#D90026"/>
<rect x="1.11108" y="12.4445" width="17.5556" height="2.22222" fill="#D90026"/>
<rect x="1.11108" y="12.4445" width="17.5556" height="2.22222" fill="#D90026"/>
<rect x="1.11108" y="7.7778" width="17.5556" height="2.22222" fill="#D90026"/>
<rect x="1.11108" y="7.7778" width="17.5556" height="2.22222" fill="#D90026"/>
<rect x="1.11108" y="3.33337" width="17.5556" height="2.22222" fill="#D90026"/>
<rect x="1.11108" y="3.33337" width="17.5556" height="2.22222" fill="#D90026"/>
<rect x="0.888916" y="1.11111" width="9.11111" height="8.88889" fill="#0052B5"/>
<path d="M8.22226 8.55559L7.5556 8.88892L7.77782 8.22226L7.33337 7.77781H8.00004L8.22226 7.11115L8.5556 7.77781H9.11115L8.66671 8.22226L8.88893 8.88892L8.22226 8.55559Z" fill="#EFEFEF"/>
<path d="M5.11106 8.55559L4.44439 8.88892L4.66661 8.22226L4.22217 7.77781H4.88883L5.11106 7.11115L5.44439 7.77781H5.99995L5.5555 8.22226L5.77772 8.88892L5.11106 8.55559Z" fill="#EFEFEF"/>
<path d="M1.99997 8.55559L1.33331 8.88892L1.55553 8.22226L1.11108 7.77781H1.77775L1.99997 7.11115L2.33331 7.77781H2.88886L2.44442 8.22226L2.66664 8.88892L1.99997 8.55559Z" fill="#EFEFEF"/>
<path d="M8.22226 6.11113L7.5556 6.44446L7.77782 5.7778L7.33337 5.33335H8.00004L8.22226 4.66669L8.5556 5.33335H9.11115L8.66671 5.7778L8.88893 6.44446L8.22226 6.11113Z" fill="#EFEFEF"/>
<path d="M8.22226 3.6667L7.5556 4.00004L7.77782 3.33337L7.33337 2.88893H8.00004L8.22226 2.22226L8.5556 2.88893H9.11115L8.66671 3.33337L8.88893 4.00004L8.22226 3.6667Z" fill="#EFEFEF"/>
<path d="M8.22226 1.22225L7.5556 1.55558L7.77782 0.888913L7.33337 0.444468H8.00004L8.22226 -0.222198L8.5556 0.444468H9.11115L8.66671 0.888913L8.88893 1.55558L8.22226 1.22225Z" fill="#EFEFEF"/>
<path d="M5.11106 3.6667L4.44439 4.00004L4.66661 3.33337L4.22217 2.88893H4.88883L5.11106 2.22226L5.44439 2.88893H5.99995L5.5555 3.33337L5.77772 4.00004L5.11106 3.6667Z" fill="#EFEFEF"/>
<path d="M5.11106 6.11113L4.44439 6.44446L4.66661 5.7778L4.22217 5.33335H4.88883L5.11106 4.66669L5.44439 5.33335H5.99995L5.5555 5.7778L5.77772 6.44446L5.11106 6.11113Z" fill="#EFEFEF"/>
<path d="M1.99997 6.11113L1.33331 6.44446L1.55553 5.7778L1.11108 5.33335H1.77775L1.99997 4.66669L2.33331 5.33335H2.88886L2.44442 5.7778L2.66664 6.44446L1.99997 6.11113Z" fill="#EFEFEF"/>
</g>
</svg>
