<svg width="20" height="20" viewBox="0 0 20 20" fill="none" xmlns="http://www.w3.org/2000/svg">
<path d="M9.77781 18.8889C4.86861 18.8889 0.888916 14.9092 0.888916 10C0.888916 5.09081 4.86861 1.11111 9.77781 1.11111C14.687 1.11111 18.6667 5.09081 18.6667 10C18.6667 14.9092 14.687 18.8889 9.77781 18.8889Z" fill="#FFDB44"/>
<path d="M18.107 6.88889C16.8459 3.51408 13.5925 1.11111 9.77781 1.11111C5.96311 1.11111 2.70967 3.51408 1.44857 6.88889L18.107 6.88889Z" fill="#D90026"/>
<path d="M1.44857 13.1111C2.70967 16.4859 5.96311 18.8889 9.77781 18.8889C13.5925 18.8889 16.8459 16.4859 18.107 13.1111L1.44857 13.1111Z" fill="#D90026"/>
</svg>
