<svg width="20" height="20" viewBox="0 0 20 20" fill="none" xmlns="http://www.w3.org/2000/svg">
<path d="M10 1C10.2071 1 10.3946 1.09643 10.5203 1.24896L13.8536 4.58229C14.0489 4.77755 14.0489 5.09413 13.8536 5.28939C13.6584 5.48466 13.3418 5.48466 13.1465 5.28939L10.5 2.64286V12.5C10.5 12.7761 10.2761 13 10 13C9.72386 13 9.5 12.7761 9.5 12.5V2.64286L6.85355 5.28939C6.65829 5.48466 6.34171 5.48466 6.14645 5.28939C5.95118 5.09413 5.95118 4.77755 6.14645 4.58229L9.47978 1.24896C9.60554 1.09643 9.79289 1 10 1Z" fill="black"/>
<path d="M3 12C3 11.7239 2.77614 11.5 2.5 11.5C2.22386 11.5 2 11.7239 2 12V17C2 17.5523 2.44772 18 3 18H17C17.5523 18 18 17.5523 18 17V12C18 11.7239 17.7761 11.5 17.5 11.5C17.2239 11.5 17 11.7239 17 12V17H3V12Z" fill="black"/>
</svg>
