<svg width="20" height="20" viewBox="0 0 20 20" fill="none" xmlns="http://www.w3.org/2000/svg">
<path fill-rule="evenodd" clip-rule="evenodd" d="M19.0459 2.92288C19.0988 2.93074 19.1504 2.94914 19.1963 2.97659C19.242 3.00405 19.2826 3.04023 19.3145 3.08304C19.3463 3.12603 19.3697 3.17565 19.3828 3.22757C19.3958 3.27949 19.3984 3.33379 19.3906 3.38675C19.3828 3.43978 19.3644 3.49112 19.3369 3.53714C19.3095 3.58301 19.2733 3.62337 19.2305 3.6553L16.2578 5.86526L16.1895 5.91702L16.2607 5.9639C17.7517 6.94418 18.9943 8.25871 19.8887 9.80276L19.9297 9.9014C19.9389 9.93582 19.9434 9.97189 19.9434 10.0078C19.9433 10.0435 19.9388 10.0791 19.9297 10.1133L19.8887 10.2129C18.9003 11.9194 17.4883 13.3424 15.79 14.3448C14.1022 15.3363 12.1876 15.8778 10.2305 15.917C8.27334 15.9561 6.33842 15.4916 4.6123 14.5684L4.5791 14.5498L4.54785 14.5733L1.26172 17.0166C1.21885 17.0484 1.1699 17.0719 1.11816 17.085C1.06634 17.098 1.01186 17.1005 0.958984 17.0928C0.906061 17.085 0.854547 17.0665 0.808594 17.0391C0.762801 17.0117 0.722364 16.9754 0.69043 16.9326C0.658492 16.8897 0.635198 16.84 0.62207 16.7881C0.608999 16.7362 0.605547 16.6819 0.613281 16.6289C0.621085 16.5759 0.639509 16.5246 0.666992 16.4785C0.694532 16.4325 0.731346 16.3924 0.774414 16.3604L3.74707 14.1504L3.81543 14.0987L3.74414 14.0518C2.25313 13.0716 1.01065 11.7569 0.116211 10.2129C0.0802671 10.1508 0.0606028 10.0796 0.0605469 10.0078C0.0605469 9.93596 0.0802153 9.86498 0.116211 9.80276C1.59841 7.23537 4.02116 5.34514 6.87207 4.53226C9.72305 3.71947 12.7793 4.04751 15.3926 5.44729L15.4258 5.46585L15.4561 5.44241L18.7422 2.99905C18.8292 2.93445 18.9387 2.90711 19.0459 2.92288ZM15.4463 6.46976L13.7637 7.72073L13.7197 7.75296L13.748 7.79886C14.2933 8.72285 14.4777 9.81646 14.2656 10.8682C14.0534 11.9201 13.4588 12.8567 12.5977 13.4971C11.7366 14.1374 10.669 14.4364 9.60059 14.3369C8.53214 14.2374 7.53757 13.7464 6.80957 12.958L6.77344 12.918L6.73047 12.9502L5.31445 14.003L5.40332 14.0459C6.81905 14.7307 8.37027 15.0916 9.94238 15.1016H10.002C11.8146 15.0978 13.5972 14.6309 15.1787 13.7451C16.7604 12.8592 18.0899 11.5831 19.04 10.0391L19.0596 10.0078L19.04 9.97659C18.1591 8.54372 16.9498 7.33989 15.5127 6.46585L15.4785 6.44534L15.4463 6.46976ZM14.6006 5.96976C12.2358 4.82624 9.52999 4.60234 7.00977 5.3428C4.48942 6.08341 2.33417 7.73541 0.963867 9.97659L0.945312 10.0078L0.964844 10.0391C1.84579 11.4719 3.05415 12.6759 4.49121 13.5498L4.52637 13.5703L4.55859 13.5459L6.24121 12.295L6.28418 12.2627L6.25684 12.2168C5.71102 11.2927 5.52622 10.1987 5.73828 9.14651C5.95042 8.09433 6.54495 7.15812 7.40625 6.51761C8.26758 5.87718 9.33561 5.57706 10.4043 5.67679C11.4728 5.77666 12.4675 6.26899 13.1953 7.05765L13.2314 7.09671L13.2744 7.06448L14.6104 6.07132L14.6895 6.01272L14.6006 5.96976ZM13.0059 8.28323L7.4873 12.3877L7.43262 12.4287L7.48047 12.4776C7.97096 12.979 8.6003 13.3233 9.28711 13.4658C9.97392 13.6082 10.6884 13.5433 11.3379 13.2783C11.9874 13.0133 12.5434 12.5599 12.9346 11.9776C13.3256 11.3952 13.5345 10.7093 13.5342 10.0078C13.5349 9.41158 13.3836 8.82437 13.0947 8.30276L13.0615 8.24319L13.0059 8.28323ZM10.2773 6.48733C9.42615 6.42037 8.57974 6.66443 7.89453 7.17386C7.20921 7.68345 6.73169 8.42418 6.55078 9.25882C6.37003 10.0933 6.49741 10.9655 6.91016 11.7129L6.94336 11.7725L6.99902 11.7315L12.5176 7.62796L12.5723 7.58694L12.5244 7.53812C11.9274 6.92763 11.1286 6.55448 10.2773 6.48733Z" fill="black"/>
</svg>
