<svg width="20" height="20" viewBox="0 0 20 20" fill="none" xmlns="http://www.w3.org/2000/svg">
<path fill-rule="evenodd" clip-rule="evenodd" d="M9.9834 5.65495C11.1363 5.65637 12.2414 6.11519 13.0566 6.93034C13.8718 7.74563 14.3306 8.85065 14.332 10.0036C14.332 10.8638 14.0775 11.7054 13.5996 12.4206C13.1218 13.1355 12.4428 13.693 11.6484 14.0221C10.8539 14.3513 9.9783 14.4369 9.13477 14.2692C8.2915 14.1014 7.51627 13.6876 6.9082 13.0798C6.29998 12.4715 5.88562 11.6958 5.71777 10.8522C5.55 10.0086 5.63666 9.13419 5.96582 8.33952C6.29502 7.54484 6.85218 6.86525 7.56738 6.38737C8.28245 5.90967 9.12345 5.65502 9.9834 5.65495ZM11.335 6.74089C10.6899 6.47376 9.9797 6.40364 9.29492 6.53971C8.60993 6.67596 7.98022 7.0127 7.48633 7.50651C6.99245 8.00041 6.6558 8.63006 6.51953 9.3151C6.38337 10 6.45352 10.71 6.7207 11.3551C6.98799 12.0003 7.44087 12.5521 8.02148 12.9401C8.60209 13.3279 9.28517 13.5357 9.9834 13.5358C10.9194 13.5346 11.8166 13.1614 12.4785 12.4997C13.1406 11.8376 13.5136 10.9399 13.5146 10.0036C13.5146 9.30517 13.307 8.62238 12.9189 8.04167C12.531 7.46119 11.98 7.00816 11.335 6.74089Z" fill="black"/>
<path fill-rule="evenodd" clip-rule="evenodd" d="M7.07422 4.46842C8.53115 4.08445 10.0504 3.99217 11.543 4.19792C13.0353 4.40374 14.472 4.90295 15.7705 5.66667C17.469 6.66905 18.8806 8.09286 19.8691 9.79948C19.905 9.86157 19.9238 9.93186 19.9238 10.0036C19.9238 10.0754 19.9051 10.1465 19.8691 10.2087C18.8807 11.9151 17.4689 13.3381 15.7705 14.3405C14.0161 15.3711 12.0181 15.9156 9.9834 15.9157C7.94866 15.9156 5.9507 15.3711 4.19629 14.3405C2.49791 13.3382 1.08614 11.9151 0.0976562 10.2087C0.0616771 10.1465 0.0420099 10.0754 0.0419922 10.0036C0.0420497 9.93185 0.0617446 9.86158 0.0976562 9.79948C0.851052 8.49443 1.8554 7.35116 3.05273 6.4362C4.25003 5.52133 5.61718 4.85254 7.07422 4.46842ZM9.9834 4.91081C8.16989 4.91087 6.38596 5.37619 4.80371 6.26237C3.22155 7.14867 1.89268 8.42596 0.945312 9.97233L0.926758 10.0046L0.946289 10.0358C1.89644 11.5794 3.22523 12.8551 4.80664 13.7409C6.38824 14.6267 8.17066 15.0936 9.9834 15.0973C11.7959 15.0936 13.5777 14.6265 15.1592 13.7409C16.7407 12.855 18.0703 11.5796 19.0205 10.0358L19.04 10.0046L19.0205 9.97233C18.0731 8.42596 16.7443 7.14861 15.1621 6.26237C13.5799 5.37626 11.7968 4.91089 9.9834 4.91081Z" fill="black"/>
</svg>
