<svg width="20" height="20" viewBox="0 0 20 20" fill="none" xmlns="http://www.w3.org/2000/svg">
<path d="M17.8261 11.7391C16.9704 11.7391 16.2348 12.2409 15.8808 12.9626L12.1634 11.847C12.1652 11.8104 12.1739 11.7757 12.1739 11.7391C12.1739 10.5409 11.1982 9.56525 9.99998 9.56525C8.80173 9.56525 7.82608 10.5409 7.82608 11.7391C7.82608 11.9383 7.86175 12.127 7.91217 12.3104L3.86523 14.7383C3.4661 14.2392 2.86003 13.9131 2.17394 13.9131C0.975651 13.913 0 14.8887 0 16.087C0 17.2853 0.975652 18.2609 2.1739 18.2609C3.37214 18.2609 4.3478 17.2852 4.3478 16.087C4.3478 15.8879 4.31213 15.6983 4.26171 15.5148L8.30779 13.087C8.70692 13.5861 9.313 13.9131 9.99998 13.9131C10.8556 13.9131 11.5913 13.4114 11.9452 12.6896L15.6626 13.8053C15.6608 13.8418 15.6522 13.8766 15.6522 13.9131C15.6522 15.1113 16.6278 16.087 17.8261 16.087C19.0243 16.087 20 15.1113 20 13.9131C20 12.7148 19.0243 11.7391 17.8261 11.7391ZM2.1739 17.3913C1.45475 17.3913 0.869551 16.8061 0.869551 16.087C0.869551 15.3678 1.45475 14.7826 2.1739 14.7826C2.89304 14.7826 3.47824 15.3678 3.47824 16.087C3.47824 16.8061 2.89304 17.3913 2.1739 17.3913ZM9.99998 13.0435C9.28084 13.0435 8.69563 12.4583 8.69563 11.7391C8.69563 11.02 9.28084 10.4348 9.99998 10.4348C10.7191 10.4348 11.3043 11.02 11.3043 11.7391C11.3043 12.4583 10.7191 13.0435 9.99998 13.0435ZM17.8261 15.2174C17.1069 15.2174 16.5217 14.6322 16.5217 13.913C16.5217 13.1939 17.1069 12.6087 17.8261 12.6087C18.5452 12.6087 19.1304 13.1939 19.1304 13.913C19.1304 14.6322 18.5452 15.2174 17.8261 15.2174Z" fill="black"/>
<path d="M2.1739 10.4348C3.37214 10.4348 4.3478 9.45912 4.3478 8.26087C4.3478 8.06175 4.31213 7.87218 4.26171 7.68871L8.30865 5.26087C8.70692 5.75999 9.313 6.08697 9.99994 6.08697C10.8556 6.08697 11.5912 5.58525 11.9452 4.8635L15.6626 5.97916C15.6608 6.01568 15.6521 6.05045 15.6521 6.08697C15.6521 7.28522 16.6278 8.26087 17.826 8.26087C19.0243 8.26087 19.9999 7.28522 19.9999 6.08697C19.9999 4.88873 19.0244 3.91303 17.8261 3.91303C16.9704 3.91303 16.2348 4.41476 15.8808 5.13651L12.1634 4.02085C12.1652 3.98432 12.1739 3.94956 12.1739 3.91303C12.1739 2.71479 11.1982 1.73914 9.99998 1.73914C8.80173 1.73914 7.82608 2.71479 7.82608 3.91303C7.82608 4.11215 7.86175 4.30173 7.91217 4.48434L3.86523 6.91303C3.46695 6.41392 2.86088 6.08693 2.17394 6.08693C0.975652 6.08693 0 7.06258 0 8.26087C0 9.45916 0.975652 10.4348 2.1739 10.4348ZM17.8261 4.78258C18.5452 4.78258 19.1304 5.36779 19.1304 6.08693C19.1304 6.80607 18.5452 7.39128 17.8261 7.39128C17.1069 7.39128 16.5217 6.80607 16.5217 6.08693C16.5217 5.36779 17.107 4.78258 17.8261 4.78258ZM9.99998 2.60869C10.7191 2.60869 11.3043 3.19389 11.3043 3.91303C11.3043 4.63218 10.7191 5.21738 9.99998 5.21738C9.28084 5.21738 8.69563 4.63218 8.69563 3.91303C8.69563 3.19389 9.28088 2.60869 9.99998 2.60869ZM2.1739 6.95652C2.89304 6.95652 3.47825 7.54173 3.47825 8.26087C3.47825 8.98001 2.89304 9.56522 2.1739 9.56522C1.45475 9.56522 0.869551 8.98001 0.869551 8.26087C0.869551 7.54173 1.4548 6.95652 2.1739 6.95652Z" fill="black"/>
</svg>
