<svg width="28" height="28" viewBox="0 0 28 28" fill="none" xmlns="http://www.w3.org/2000/svg">
<path d="M25.1187 11.1687L16.5453 3.98748C15.0734 2.75466 12.9265 2.75466 11.4547 3.98748L2.88123 11.1687C1.8406 12.0406 1.70466 13.5922 2.57654 14.6281C3.00779 15.1437 3.63123 15.4578 4.29685 15.5V22.4844C4.29685 23.8344 5.39373 24.9312 6.74841 24.9359H12.0172V18.889C12.0172 17.7969 12.9031 16.9109 13.9953 16.9109C15.0875 16.9109 15.9734 17.7969 15.9734 18.889V24.9406H21.2469C22.5969 24.9406 23.6937 23.8437 23.6984 22.489V15.5047C25.0531 15.4156 26.0797 14.2437 25.9906 12.889C25.9437 12.2234 25.6297 11.6 25.1187 11.1687ZM23.539 14.5719H22.7609V22.489C22.7609 23.3234 22.0859 24.0031 21.2469 24.0031H16.9109V18.889C16.9109 17.2765 15.6031 15.9734 13.9953 15.9734C12.3828 15.9734 11.0797 17.2812 11.0797 18.889V24.0031H6.74841C5.91404 24.0031 5.23435 23.3281 5.23435 22.4937V14.5719H4.46091C3.0406 14.5719 2.39841 12.8 3.48591 11.8859L12.0594 4.70466C13.1844 3.76248 14.8203 3.76248 15.9453 4.70466L24.514 11.8906C25.6015 12.8 24.9594 14.5719 23.539 14.5719Z" fill="black"/>
</svg>
