<svg width="20" height="20" viewBox="0 0 20 20" fill="none" xmlns="http://www.w3.org/2000/svg">
<path d="M10 13C9.79289 13 9.60554 12.9036 9.47978 12.751L6.14645 9.41771C5.95118 9.22245 5.95118 8.90587 6.14645 8.71061C6.34171 8.51534 6.65829 8.51534 6.85355 8.71061L9.5 11.3571V1.5C9.5 1.22386 9.72386 1 10 1C10.2761 1 10.5 1.22386 10.5 1.5V11.3571L13.1465 8.71061C13.3418 8.51534 13.6584 8.51534 13.8536 8.71061C14.0489 8.90587 14.0489 9.22245 13.8536 9.41771L10.5203 12.751C10.3946 12.9036 10.2071 13 10 13Z" fill="black"/>
<path d="M3 12C3 11.7239 2.77614 11.5 2.5 11.5C2.22386 11.5 2 11.7239 2 12V17C2 17.5523 2.44772 18 3 18H17C17.5523 18 18 17.5523 18 17V12C18 11.7239 17.7761 11.5 17.5 11.5C17.2239 11.5 17 11.7239 17 12V17H3V12Z" fill="black"/>
</svg>
