<svg width="20" height="20" viewBox="0 0 20 20" fill="none" xmlns="http://www.w3.org/2000/svg">
<path d="M14.8696 15.2114C15.0537 15.3934 15.0553 15.6903 14.8733 15.8743C13.2917 17.4738 11.1822 18.3546 8.9333 18.3546C6.7017 18.3546 4.60365 17.4856 3.02564 15.9076C1.44768 14.3296 0.578613 12.2316 0.578613 9.99997C0.578613 7.76837 1.44768 5.67032 3.02564 4.09236C4.60361 2.51439 6.70166 1.64532 8.9333 1.64532C11.1822 1.64532 13.2917 2.52618 14.8733 4.1256C15.0553 4.30966 15.0537 4.6065 14.8696 4.78849C14.6855 4.9706 14.3887 4.96884 14.2067 4.78478C12.8026 3.36482 10.9297 2.58282 8.9333 2.58282C4.84346 2.58282 1.51615 5.91017 1.51615 9.99997C1.51615 14.0898 4.8435 17.4171 8.9333 17.4171C10.9298 17.4171 12.8026 16.6351 14.2067 15.2152C14.3887 15.0311 14.6855 15.0294 14.8696 15.2114ZM19.284 9.66853L16.7094 7.09388C16.5263 6.91079 16.2296 6.91083 16.0465 7.09388C15.8634 7.27697 15.8634 7.57372 16.0465 7.75681L17.8209 9.53122H8.9333C8.67443 9.53122 8.46455 9.74107 8.46455 9.99997C8.46455 10.2589 8.67443 10.4687 8.9333 10.4687H17.8209L16.0465 12.2432C15.8634 12.4263 15.8635 12.723 16.0465 12.9061C16.138 12.9976 16.258 13.0434 16.3779 13.0434C16.4979 13.0434 16.6179 12.9976 16.7094 12.9061L19.284 10.3315C19.4671 10.1484 19.4671 9.85157 19.284 9.66853Z" fill="black"/>
</svg>
