<svg width="20" height="20" viewBox="0 0 20 20" fill="none" xmlns="http://www.w3.org/2000/svg">
<path d="M9.99987 4.12964C6.9786 4.12964 4.52161 6.58705 4.52161 9.6079C4.52161 12.6292 6.9786 15.0869 9.99987 15.0869C13.0211 15.0869 15.4789 12.6292 15.4789 9.6079C15.4789 6.58705 13.0211 4.12964 9.99987 4.12964ZM9.99987 14.3043C7.4106 14.3043 5.30422 12.1975 5.30422 9.6079C5.30422 7.01863 7.4106 4.91225 9.99987 4.91225C12.5895 4.91225 14.6963 7.01863 14.6963 9.6079C14.6963 12.1975 12.5895 14.3043 9.99987 14.3043Z" fill="black"/>
<path d="M9.99995 15.8696C9.78353 15.8696 9.60864 16.0445 9.60864 16.2609V18.6087C9.60864 18.8251 9.78353 19 9.99995 19C10.2164 19 10.3913 18.8251 10.3913 18.6087V16.2609C10.3913 16.0445 10.2164 15.8696 9.99995 15.8696Z" fill="black"/>
<path d="M9.99995 3.34783C10.2164 3.34783 10.3913 3.17294 10.3913 2.95652V1.3913C10.3913 1.17489 10.2164 1 9.99995 1C9.78353 1 9.60864 1.17489 9.60864 1.3913V2.95652C9.60864 3.17294 9.78353 3.34783 9.99995 3.34783Z" fill="black"/>
<path d="M18.2173 9.21741H16.652C16.4356 9.21741 16.2607 9.39229 16.2607 9.60871C16.2607 9.82513 16.4356 10 16.652 10H18.2173C18.4337 10 18.6086 9.82513 18.6086 9.60871C18.6086 9.39229 18.4337 9.21741 18.2173 9.21741Z" fill="black"/>
<path d="M3.34776 9.21741H1.78254C1.56612 9.21741 1.39124 9.39229 1.39124 9.60871C1.39124 9.82513 1.56612 10 1.78254 10H3.34776C3.56417 10 3.73906 9.82513 3.73906 9.60871C3.73906 9.39229 3.56417 9.21741 3.34776 9.21741Z" fill="black"/>
<path d="M15.0716 14.1447C14.9186 13.9917 14.6713 13.9917 14.5183 14.1447C14.3653 14.2981 14.3653 14.545 14.5183 14.698L16.0065 16.1861C16.0827 16.2624 16.183 16.3008 16.2831 16.3008C16.3833 16.3008 16.4831 16.2624 16.5598 16.1861C16.7132 16.0332 16.7132 15.7863 16.5598 15.6329L15.0716 14.1447Z" fill="black"/>
<path d="M4.92711 5.10711C5.00303 5.18339 5.10356 5.22174 5.20378 5.22174C5.30401 5.22174 5.40412 5.18339 5.48046 5.10711C5.63386 4.95413 5.63386 4.7068 5.48046 4.55382L4.38397 3.45697C4.23098 3.30357 3.98366 3.30357 3.83068 3.45697C3.6777 3.60995 3.6777 3.85686 3.83068 4.01026L4.92711 5.10711Z" fill="black"/>
<path d="M14.9095 4.94513C15.0097 4.94513 15.1099 4.90678 15.1862 4.8305L16.0064 4.01032C16.1598 3.85692 16.1598 3.61001 16.0064 3.45703C15.8534 3.30363 15.6065 3.30363 15.4531 3.45703L14.6329 4.27721C14.4799 4.43019 14.4799 4.67752 14.6329 4.8305C14.7092 4.90678 14.8094 4.94513 14.9095 4.94513Z" fill="black"/>
<path d="M5.04211 13.868L3.83063 15.0787C3.67723 15.2317 3.67723 15.479 3.83063 15.632C3.90655 15.7083 4.00707 15.7467 4.1073 15.7467C4.20753 15.7467 4.30763 15.7083 4.38397 15.632L5.59546 14.4213C5.74844 14.2687 5.74844 14.0214 5.59546 13.868C5.44242 13.7151 5.19509 13.7151 5.04211 13.868Z" fill="black"/>
</svg>
