<svg width="20" height="20" viewBox="0 0 20 20" fill="none" xmlns="http://www.w3.org/2000/svg">
<path d="M9.7002 14.0742C9.86584 13.9086 10.1351 13.9086 10.3008 14.0742L12.6758 16.4502H19.375C19.6095 16.4502 19.7998 16.6405 19.7998 16.875C19.7998 17.1095 19.6095 17.2998 19.375 17.2998H12.5C12.3872 17.2998 12.2797 17.2553 12.1992 17.1758L10 14.9756L7.80078 17.1748C7.72053 17.255 7.61275 17.2998 7.5 17.2998H0.625C0.390457 17.2998 0.200195 17.1095 0.200195 16.875C0.200195 16.6405 0.390457 16.4502 0.625 16.4502H7.32422L9.7002 14.0742Z" fill="black"/>
<path d="M10 6.4502C13.3358 6.4502 16.0498 9.16421 16.0498 12.5C16.0498 13.1984 15.9312 13.8789 15.6992 14.5205C15.6375 14.6924 15.4739 14.7998 15.2998 14.7998C15.2523 14.7998 15.2044 14.7919 15.1553 14.7744C14.9338 14.6942 14.8202 14.4505 14.9004 14.2305C15.0998 13.6804 15.2002 13.0987 15.2002 12.5C15.2002 9.63204 12.868 7.2998 10 7.2998C7.13204 7.2998 4.7998 9.63204 4.7998 12.5C4.7998 13.0987 4.90021 13.6804 5.09961 14.2305C5.17934 14.4511 5.0649 14.6942 4.84473 14.7744L4.84277 14.7754C4.65411 14.8459 4.44165 14.7678 4.33789 14.5977L4.30078 14.5195C4.06879 13.8779 3.9502 13.1984 3.9502 12.5C3.9502 9.16421 6.66421 6.4502 10 6.4502Z" fill="black"/>
<path d="M10.1201 13.7607C10.1596 13.7684 10.1986 13.7796 10.2363 13.7949L10.2354 13.7959C10.1979 13.7807 10.1594 13.7683 10.1201 13.7607Z" fill="black"/>
<path d="M19.375 12.0752C19.6095 12.0752 19.7998 12.2655 19.7998 12.5C19.7998 12.7345 19.6095 12.9248 19.375 12.9248H18.125C17.8905 12.9248 17.7002 12.7345 17.7002 12.5C17.7002 12.2655 17.8905 12.0752 18.125 12.0752H19.375Z" fill="black"/>
<path d="M1.875 12.0752C2.10954 12.0752 2.2998 12.2655 2.2998 12.5C2.2998 12.7345 2.10954 12.9248 1.875 12.9248H0.625C0.390457 12.9248 0.200195 12.7345 0.200195 12.5C0.200195 12.2655 0.390457 12.0752 0.625 12.0752H1.875Z" fill="black"/>
<path d="M3.07031 5.57031C3.23595 5.40467 3.50525 5.40469 3.6709 5.57031L4.55469 6.4541C4.72031 6.61975 4.72033 6.88905 4.55469 7.05469L4.55371 7.05566C4.47173 7.13835 4.3638 7.17969 4.25488 7.17969C4.17313 7.17967 4.09165 7.15616 4.02051 7.10938L3.95312 7.05566L3.07031 6.1709C2.90469 6.00525 2.90467 5.73595 3.07031 5.57031Z" fill="black"/>
<path d="M16.3281 5.57129C16.4938 5.40594 16.7632 5.40574 16.9287 5.57129C17.0943 5.73684 17.0941 6.00621 16.9287 6.17188L16.0449 7.05566C15.9627 7.13785 15.8542 7.17966 15.7451 7.17969C15.6363 7.17969 15.5282 7.13855 15.4443 7.05566C15.2787 6.89002 15.2787 6.62072 15.4443 6.45508L16.3281 5.57129Z" fill="black"/>
<path d="M15.1719 6.50684C15.1629 6.52756 15.156 6.54892 15.1494 6.57031C15.1546 6.55373 15.1585 6.5367 15.165 6.52051L15.1719 6.50684Z" fill="black"/>
<path d="M10 2.7002C10.2345 2.7002 10.4248 2.89046 10.4248 3.125V4.375C10.4248 4.60954 10.2345 4.7998 10 4.7998C9.76546 4.7998 9.5752 4.60954 9.5752 4.375V3.125C9.5752 2.89046 9.76546 2.7002 10 2.7002Z" fill="black"/>
</svg>
