<svg width="60" height="60" viewBox="0 0 60 60" fill="none" xmlns="http://www.w3.org/2000/svg">
<path d="M50.5544 30.9258C50.5544 32.8242 50.3435 34.6758 49.9216 36.4336C47.5544 46.4297 38.8826 53.9648 28.3826 54.5273C27.9607 54.5508 27.5271 54.5625 27.0935 54.5625C14.156 54.5625 3.65601 43.9805 3.65601 30.9141C3.65601 30.5156 3.66772 30.1172 3.67944 29.7188C4.0896 21.4102 8.74194 14.2383 15.5037 10.3477C18.738 8.48438 22.4646 7.38281 26.4255 7.27734C26.6365 7.27734 26.8709 7.26562 27.0818 7.26562C40.0544 7.27734 50.5544 17.8594 50.5544 30.9258Z" fill="#339EFF"/>
<path d="M31.4414 17.4961C31.4414 19.5586 29.7773 21.2227 27.75 21.2227H11.1562C9.11719 21.2227 7.46484 22.8984 7.46484 24.9375V26.0039C7.46484 28.0664 5.80078 29.7188 3.77344 29.7188H3.67969C4.08984 21.4102 8.74219 14.2383 15.5039 10.3477C15.668 12.2578 17.25 13.7578 19.1836 13.7578H27.7266C29.7891 13.7812 31.4414 15.4453 31.4414 17.4961Z" fill="#4BDB4E"/>
<path d="M49.8984 35.7188V36.4453C47.4375 46.8398 38.1562 54.5625 27.0937 54.5625V50.6836C27.0937 49.7344 27.8672 48.9492 28.8164 48.9492H36.7148C37.6641 48.9492 38.4844 48.1641 38.4844 47.2148C38.4844 46.7344 38.2969 46.2891 37.9805 45.9844C37.6641 45.668 37.2305 45.4688 36.75 45.4688H28.8047C27.8555 45.4688 27.082 44.6836 27.082 43.7344V43.5117C27.082 42.5625 27.8555 41.7773 28.8047 41.7773H32.6719C33.6211 41.7773 34.3945 40.9922 34.3945 40.043C34.3945 37.6758 36.293 35.7656 38.6367 35.7656H49.875L49.8984 35.7188Z" fill="#4BDB4E"/>
<path d="M36.293 27.902L40.7462 26.2965C45.129 28.359 50.5196 27.316 53.7891 23.4254C57.6798 18.7965 57.0704 11.8941 52.4415 8.00352C47.8126 4.1129 40.9219 4.72227 37.0313 9.33946C33.7618 13.2301 33.668 18.7262 36.4571 22.6754L35.6368 27.3395C35.5548 27.7379 35.9298 28.0426 36.293 27.902Z" fill="#FFCF52"/>
<path d="M48.2344 11.2153C47.5079 10.6997 46.5235 10.4419 45.3165 10.4419C43.7696 10.4419 42.6211 10.8169 41.8946 11.5552C41.6836 11.7778 41.5079 12.0005 41.3321 12.27C41.0743 12.6802 41.0508 13.2192 41.2618 13.6646C41.4727 14.1099 41.8711 14.4146 42.3399 14.4731C42.3868 14.4849 42.4454 14.4849 42.504 14.4849C43.0079 14.4849 43.4883 14.1685 43.7344 13.6646C43.8165 13.5005 43.9102 13.3481 44.0157 13.2427C44.3555 12.8911 44.7774 12.7153 45.2696 12.7153C45.7383 12.7153 46.1016 12.8442 46.3477 13.0903C46.5938 13.3364 46.7227 13.688 46.7227 14.0981C46.7227 14.5435 46.4532 14.9771 45.9024 15.4458C45.0352 16.2075 44.461 16.7466 44.2149 17.0396C43.9805 17.3208 43.8165 17.6372 43.6993 17.9653C43.6993 17.9771 43.6875 17.9888 43.6875 18.0005C43.6055 18.3403 43.6758 18.6802 43.8868 18.9497C44.086 19.2075 44.3907 19.3481 44.6954 19.3481H45.4336C45.879 19.3481 46.254 19.0669 46.3946 18.645C46.418 18.5396 46.4766 18.4341 46.5235 18.3521C46.6993 18.0122 47.0977 17.5903 47.7188 17.063C48.5391 16.3833 49.0782 15.8208 49.336 15.3638C49.5821 14.9185 49.711 14.4731 49.711 14.0044C49.711 12.8208 49.2305 11.9185 48.2344 11.2153Z" fill="#F2F2F2"/>
<path d="M45.1287 20.2271H44.7068C44.0037 20.2271 43.4412 20.8364 43.4412 21.5747C43.4412 22.3247 44.0154 22.9224 44.7068 22.9224H45.1287C45.8318 22.9224 46.3943 22.313 46.3943 21.5747C46.3943 20.8364 45.8201 20.2271 45.1287 20.2271Z" fill="#F2F2F2"/>
</svg>
