<svg width="20" height="20" viewBox="0 0 20 20" fill="none" xmlns="http://www.w3.org/2000/svg">
<g clip-path="url(#clip0_92_4090)">
<g clip-path="url(#clip1_92_4090)">
<path d="M9.16667 20C7.55833 20 6.25 18.6917 6.25 17.0834C6.25 16.8534 6.43667 16.6667 6.66667 16.6667C6.89667 16.6667 7.08333 16.8534 7.08333 17.0834C7.08333 18.2317 8.0175 19.1667 9.16667 19.1667C10.3158 19.1667 11.25 18.2317 11.25 17.0834C11.25 16.8534 11.4367 16.6667 11.6667 16.6667C11.8967 16.6667 12.0833 16.8534 12.0833 17.0834C12.0833 18.6917 10.775 20 9.16667 20Z" fill="black"/>
<path d="M16.25 17.5H2.08337C1.39421 17.5 0.833374 16.9392 0.833374 16.25C0.833374 15.8842 0.992541 15.5383 1.27004 15.3C1.28754 15.285 1.30671 15.2717 1.32587 15.26C2.60254 14.1517 3.33337 12.5533 3.33337 10.8667V8.33333C3.33337 5.11667 5.95087 2.5 9.16671 2.5C9.23337 2.5 9.31421 2.5025 9.38087 2.51583C9.60671 2.56 9.75337 2.77917 9.70921 3.005C9.66587 3.23083 9.44587 3.3775 9.21921 3.33333C6.40921 3.33333 4.16671 5.57667 4.16671 8.33333V10.8667C4.16671 12.8192 3.31171 14.6658 1.82087 15.9342C1.80754 15.945 1.79421 15.9558 1.77921 15.965C1.70754 16.0417 1.66671 16.1433 1.66671 16.25C1.66671 16.48 1.85421 16.6667 2.08337 16.6667H16.25C16.4792 16.6667 16.6667 16.48 16.6667 16.25C16.6667 16.1433 16.6259 16.0408 16.5525 15.9642C16.5384 15.955 16.5259 15.945 16.5125 15.9342C15.0217 14.6658 14.1667 12.8192 14.1667 10.8667V9.975C14.1667 9.745 14.3534 9.55833 14.5834 9.55833C14.8134 9.55833 15 9.745 15 9.975V10.8667C15 12.555 15.7317 14.1533 17.0092 15.2617C17.0284 15.2733 17.0467 15.2858 17.0625 15.3C17.3409 15.5383 17.5 15.8842 17.5 16.25C17.5 16.9392 16.9392 17.5 16.25 17.5Z" fill="black"/>
<path d="M15 8.33333C12.7025 8.33333 10.8334 6.46417 10.8334 4.16667C10.8334 1.86917 12.7025 0 15 0C17.2975 0 19.1667 1.86917 19.1667 4.16667C19.1667 6.46417 17.2975 8.33333 15 8.33333ZM15 0.833333C13.1617 0.833333 11.6667 2.32833 11.6667 4.16667C11.6667 6.005 13.1617 7.5 15 7.5C16.8384 7.5 18.3334 6.005 18.3334 4.16667C18.3334 2.32833 16.8384 0.833333 15 0.833333Z" fill="black"/>
</g>
</g>
<defs>
<clipPath id="clip0_92_4090">
<rect width="20" height="20" fill="white"/>
</clipPath>
<clipPath id="clip1_92_4090">
<rect width="20" height="20" fill="white"/>
</clipPath>
</defs>
</svg>
