<svg width="20" height="20" viewBox="0 0 20 20" fill="none" xmlns="http://www.w3.org/2000/svg">
<mask id="mask0_444_44352" style="mask-type:luminance" maskUnits="userSpaceOnUse" x="1" y="1" width="19" height="18">
<path d="M1.08203 1H19.082V19H1.08203V1Z" fill="white"/>
</mask>
<g mask="url(#mask0_444_44352)">
<path d="M7.45703 1H3.70703C3.08678 1 2.58203 1.50475 2.58203 2.125V17.875C2.58203 18.4953 3.08678 19 3.70703 19H7.45703C8.07728 19 8.58205 18.4953 8.58205 17.875V2.125C8.58205 1.50475 8.07728 1 7.45703 1Z" fill="white"/>
<path d="M16.457 1H12.707C12.0868 1 11.582 1.50475 11.582 2.125V17.875C11.582 18.4953 12.0868 19 12.707 19H16.457C17.0773 19 17.582 18.4953 17.582 17.875V2.125C17.582 1.50475 17.0773 1 16.457 1Z" fill="white"/>
</g>
</svg>
