<svg width="24" height="24" viewBox="0 0 24 24" fill="none" xmlns="http://www.w3.org/2000/svg">
<g clip-path="url(#clip0_120_10803)">
<path d="M20.7648 4.1521C18.6788 2.05133 15.9066 0.893005 12.9562 0.890625H12.9469C9.9934 0.890625 7.21697 2.04895 5.12921 4.1521C3.04272 6.25452 1.89373 9.0487 1.89373 12.0207C1.89373 13.741 2.29327 15.4495 3.04968 16.9795C2.6875 18.3431 1.72033 19.476 0.423396 20.0385C0.0670733 20.1932 -0.0960736 20.6076 0.0581011 20.9639C0.0877642 21.0315 0.126583 21.0923 0.172542 21.1454C0.640376 21.683 1.2113 22.1058 1.8432 22.3945C2.47509 22.6827 3.16687 22.8371 3.87622 22.8371C5.11877 22.8371 6.30145 22.3678 7.20434 21.5321C8.93212 22.5928 10.9051 23.1506 12.9469 23.1506H12.9562C15.9066 23.1482 18.6788 21.99 20.7648 19.8891C22.8511 17.7867 24.0001 14.9925 24.0001 12.0207C24.0001 9.0487 22.8511 6.25452 20.7648 4.1521Z" fill="#00EED0"/>
<path d="M23.9999 12.0207C23.9999 14.9925 22.8509 17.7867 20.7646 19.8891C18.6786 21.99 15.9064 23.1482 12.9561 23.1506V0.890625C15.9064 0.893005 18.6786 2.05133 20.7646 4.1521C22.8509 6.25452 23.9999 9.0487 23.9999 12.0207Z" fill="#00CCB2"/>
<path d="M19.3372 11.9736C19.3372 15.492 16.4751 18.3541 12.9565 18.3541C9.43817 18.3541 6.57605 15.492 6.57605 11.9736C6.57605 8.45563 9.43817 5.59332 12.9565 5.59332C16.4751 5.59332 19.3372 8.45563 19.3372 11.9736Z" fill="white"/>
<path d="M19.3367 11.9736C19.3367 15.4919 16.4746 18.3541 12.9561 18.3541V5.59326C16.4746 5.59326 19.3367 8.45557 19.3367 11.9736Z" fill="#C5F4FF"/>
<path d="M16.8936 11.9736C16.8936 12.3622 16.5786 12.6768 16.1904 12.6768H13.1901C13.1095 12.6768 13.0311 12.6663 12.9561 12.6471C12.5525 12.5431 12.2529 12.1761 12.2529 11.7396V8.63562C12.2529 8.24707 12.5681 7.9325 12.9561 7.9325C13.3442 7.9325 13.6592 8.24707 13.6592 8.63562V11.2705H16.1904C16.5786 11.2705 16.8936 11.5854 16.8936 11.9736Z" fill="#005FE4"/>
<path d="M16.8936 11.9736C16.8936 12.3622 16.5786 12.6768 16.1904 12.6768H13.1901C13.1095 12.6768 13.0311 12.6663 12.9561 12.6471V7.9325C13.3442 7.9325 13.6592 8.24707 13.6592 8.63562V11.2705H16.1904C16.5786 11.2705 16.8936 11.5854 16.8936 11.9736Z" fill="#0040A0"/>
</g>
<defs>
<clipPath id="clip0_120_10803">
<rect width="24" height="24" fill="white"/>
</clipPath>
</defs>
</svg>
