<svg width="16" height="16" viewBox="0 0 16 16" fill="none" xmlns="http://www.w3.org/2000/svg">
<path d="M14.3333 7.33333H8.66667V1.66667C8.66667 1.29868 8.36868 1 8 1C7.63132 1 7.33333 1.29868 7.33333 1.66667V7.33333H1.66667C1.29799 7.33333 1 7.63201 1 8C1 8.36799 1.29799 8.66667 1.66667 8.66667H7.33333V14.3333C7.33333 14.7013 7.63132 15 8 15C8.36868 15 8.66667 14.7013 8.66667 14.3333V8.66667H14.3333C14.702 8.66667 15 8.36799 15 8C15 7.63201 14.702 7.33333 14.3333 7.33333Z" fill="#0C0C0C"/>
</svg>
