<svg width="20" height="20" viewBox="0 0 20 20" fill="none" xmlns="http://www.w3.org/2000/svg">
<g clip-path="url(#clip0_92_2549)">
<path d="M8.70833 17.5H2.08333C0.934167 17.5 0 16.5658 0 15.4167V2.08333C0 0.934167 0.934167 0 2.08333 0H12.0833C13.2325 0 14.1667 0.934167 14.1667 2.08333V6.53333C14.1667 6.76333 13.98 6.95 13.75 6.95C13.52 6.95 13.3333 6.76333 13.3333 6.53333V2.08333C13.3333 1.39417 12.7725 0.833333 12.0833 0.833333H2.08333C1.39417 0.833333 0.833333 1.39417 0.833333 2.08333V15.4167C0.833333 16.1058 1.39417 16.6667 2.08333 16.6667H8.70833C8.93833 16.6667 9.125 16.8533 9.125 17.0833C9.125 17.3133 8.93917 17.5 8.70833 17.5Z" fill="black"/>
<path d="M11.25 7.50002H2.91667C2.68667 7.50002 2.5 7.31335 2.5 7.08335C2.5 6.85335 2.68667 6.66669 2.91667 6.66669H11.25C11.48 6.66669 11.6667 6.85335 11.6667 7.08335C11.6667 7.31335 11.48 7.50002 11.25 7.50002Z" fill="black"/>
<path d="M7.91667 10.8333H2.91667C2.68667 10.8333 2.5 10.6467 2.5 10.4167C2.5 10.1867 2.68667 10 2.91667 10H7.91667C8.14667 10 8.33333 10.1867 8.33333 10.4167C8.33333 10.6467 8.14667 10.8333 7.91667 10.8333Z" fill="black"/>
<path d="M7.08333 4.16665H2.91667C2.68667 4.16665 2.5 3.97998 2.5 3.74998C2.5 3.51998 2.68667 3.33331 2.91667 3.33331H7.08333C7.31333 3.33331 7.5 3.51998 7.5 3.74998C7.5 3.97998 7.31333 4.16665 7.08333 4.16665Z" fill="black"/>
<path d="M15 20C14.945 20 14.89 19.9892 14.8383 19.9675C14.64 19.8833 10 17.8783 10 13.78V10.2975C10 10.1183 10.1142 9.96001 10.2833 9.90251L14.8667 8.355C14.9533 8.32584 15.0475 8.32584 15.1333 8.355L19.7167 9.90251C19.8858 9.95917 20 10.1183 20 10.2975V13.78C20 17.8783 15.36 19.8833 15.1617 19.9675C15.11 19.9892 15.055 20 15 20ZM10.8333 10.5975V13.78C10.8333 16.9333 14.2125 18.745 15 19.1242C15.7867 18.7442 19.1667 16.925 19.1667 13.78V10.5975L15 9.19L10.8333 10.5975Z" fill="black"/>
<path d="M14.5833 15.8333C14.5758 15.8333 14.5675 15.8333 14.5608 15.8325C14.4416 15.8258 14.3325 15.77 14.2583 15.6767L12.5916 13.5933C12.4483 13.4133 12.4766 13.1517 12.6566 13.0075C12.8383 12.8658 13.0991 12.8942 13.2425 13.0725L14.6175 14.7917L17.205 12.205C17.3675 12.0425 17.6316 12.0425 17.7941 12.205C17.9566 12.3675 17.9566 12.6317 17.7941 12.7942L14.8775 15.7108C14.8 15.7892 14.6933 15.8333 14.5833 15.8333Z" fill="black"/>
</g>
<defs>
<clipPath id="clip0_92_2549">
<rect width="20" height="20" fill="white"/>
</clipPath>
</defs>
</svg>
