<svg width="28" height="28" viewBox="0 0 28 28" fill="none" xmlns="http://www.w3.org/2000/svg">
<path d="M22.8174 20.1824C22.7196 20.1824 22.6218 20.1563 22.5345 20.0986C22.2918 19.9415 22.2202 19.6185 22.3774 19.374C23.4075 17.773 23.9523 15.9134 23.9523 13.9998C23.9523 8.5121 19.4877 4.04755 14 4.04755C8.51228 4.04755 4.04773 8.5121 4.04773 13.9998C4.04773 15.896 4.58376 17.7415 5.59644 19.3339C5.75184 19.5783 5.68025 19.9013 5.43581 20.0567C5.23243 20.186 4.97467 20.1582 4.8043 20.0044C4.7699 19.9734 4.73907 19.9372 4.71296 19.8961C3.59202 18.1361 3.00012 16.0968 3.00012 13.9998C3.00012 7.93417 7.93435 2.99994 14 2.99994C20.0657 2.99994 24.9999 7.93417 24.9999 13.9998C24.9999 16.116 24.3975 18.171 23.2574 19.9415C23.2309 19.9833 23.1994 20.02 23.1643 20.0512C23.0676 20.1373 22.9429 20.1824 22.8174 20.1824Z" fill="black"/>
<path d="M13.9999 24.9999C11.2621 24.9999 8.63961 23.989 6.61423 22.1504C6.57797 22.1177 6.54739 22.0811 6.52253 22.0417C6.40014 21.8479 6.41648 21.5886 6.57757 21.4101L6.6282 21.3543C6.63344 21.3473 6.64042 21.342 6.64566 21.3351C6.76058 21.2201 6.87754 21.1084 6.99643 20.9999C10.952 17.3918 17.0432 17.3908 21 20.9969C21.12 21.1063 21.2381 21.219 21.3541 21.3351C21.3698 21.3508 21.3838 21.3665 21.396 21.3822L21.4222 21.4084C21.5846 21.5884 21.5999 21.8493 21.4741 22.0442C21.4498 22.0819 21.4203 22.117 21.3855 22.1487C19.3601 23.989 16.7376 24.9999 13.9999 24.9999ZM7.74216 21.7401C9.50912 23.1701 11.7108 23.9523 13.9999 23.9523C16.2889 23.9523 18.4906 23.1701 20.2576 21.7401C16.7114 18.5432 11.2883 18.5432 7.74216 21.7401Z" fill="black"/>
<path d="M22.8174 20.1824C22.7196 20.1824 22.6218 20.1563 22.5345 20.0986C22.2918 19.9415 22.2202 19.6185 22.3774 19.374L21 20.9969C21.12 21.1063 21.2381 21.219 21.3541 21.3351C21.3698 21.3508 21.3838 21.3665 21.396 21.3822L21.4222 21.4084C21.5846 21.5884 21.5999 21.8493 21.4741 22.0442L23.1643 20.0512C23.0676 20.1373 22.9429 20.1824 22.8174 20.1824Z" fill="black"/>
<path d="M5.59644 19.3339C5.75184 19.5783 5.68025 19.9013 5.43581 20.0567C5.23243 20.186 4.97467 20.1582 4.8043 20.0044L6.52253 22.0417C6.40014 21.8479 6.41648 21.5886 6.57757 21.4101L6.6282 21.3543C6.63344 21.3473 6.64042 21.342 6.64566 21.3351C6.76058 21.2201 6.87754 21.1084 6.99643 20.9999L5.59644 19.3339Z" fill="black"/>
<path d="M13.9998 16.2699C11.7859 16.2699 9.98401 14.468 9.98401 12.254C9.98401 10.0401 11.7859 8.23822 13.9998 8.23822C16.2138 8.23822 18.0157 10.0401 18.0157 12.254C18.0157 14.468 16.2138 16.2699 13.9998 16.2699ZM13.9998 9.28583C12.3638 9.28583 11.0316 10.618 11.0316 12.254C11.0316 13.8901 12.3638 15.2223 13.9998 15.2223C15.6359 15.2223 16.9681 13.8901 16.9681 12.254C16.9681 10.618 15.6359 9.28583 13.9998 9.28583Z" fill="black"/>
</svg>
