<svg width="20" height="20" viewBox="0 0 20 20" fill="none" xmlns="http://www.w3.org/2000/svg">
<g clip-path="url(#clip0_92_2578)">
<path d="M13.3483 15.8334C13.2791 15.8334 13.21 15.8159 13.1466 15.7817L9.99996 14.0425L6.85412 15.7817C6.71329 15.86 6.54246 15.85 6.41246 15.7575C6.28246 15.665 6.21579 15.5075 6.24162 15.35L6.84746 11.6375L4.28662 9.01252C4.17746 8.90085 4.13996 8.73752 4.18912 8.58919C4.23746 8.44085 4.36579 8.33335 4.52079 8.30919L8.04412 7.77085L9.62412 4.40585C9.76079 4.11252 10.2408 4.11252 10.3775 4.40585L11.9575 7.77085L15.4808 8.30919C15.6358 8.33252 15.7641 8.44085 15.8133 8.58835C15.8625 8.73669 15.825 8.90002 15.7158 9.01169L13.155 11.6367L13.7608 15.3492C13.7866 15.5067 13.72 15.665 13.59 15.7567C13.5166 15.8075 13.4325 15.8334 13.3483 15.8334ZM9.99996 13.1492C10.0691 13.1492 10.1391 13.1667 10.2016 13.2009L12.7983 14.6367L12.2966 11.5634C12.2758 11.4325 12.3166 11.3 12.41 11.205L14.5516 9.00919L11.6108 8.56002C11.4733 8.53919 11.355 8.45085 11.2966 8.32502L9.99996 5.56419L8.70246 8.32668C8.64412 8.45252 8.52579 8.54085 8.38829 8.56169L5.44746 9.01085L7.58912 11.2067C7.68162 11.3017 7.72329 11.4342 7.70246 11.565L7.20079 14.6384L9.79746 13.2025C9.86079 13.1667 9.93079 13.1492 9.99996 13.1492Z" fill="black"/>
<path d="M13.205 19.9991C12.885 19.9991 12.5642 19.9316 12.2683 19.7966L10.5917 19.0341C10.2158 18.8641 9.78501 18.8633 9.40751 19.0341L7.73167 19.7958C7.16167 20.0541 6.50417 20.0658 5.92917 19.8266C5.35251 19.5875 4.89584 19.115 4.67667 18.5308L4.03001 16.8058C3.88417 16.4191 3.58001 16.1141 3.19334 15.97L1.46917 15.3233C0.885008 15.1041 0.411675 14.6475 0.173342 14.0708C-0.0658251 13.4941 -0.0541585 12.8375 0.203342 12.2683L0.965008 10.5908C1.13584 10.215 1.13584 9.78414 0.965008 9.40831L0.203342 7.73164C-0.0549918 7.16248 -0.0658251 6.50581 0.173342 5.92914C0.411675 5.35248 0.885008 4.89581 1.46917 4.67664L3.19334 4.02998C3.58001 3.88498 3.88417 3.57998 4.03001 3.19414L4.67667 1.46914C4.89584 0.884978 5.35251 0.412477 5.92917 0.173311C6.50417 -0.0658559 7.16167 -0.0550225 7.73167 0.204144L9.40834 0.966644C9.78417 1.13664 10.215 1.13748 10.5925 0.966644L12.2683 0.204977C12.8383 -0.0541892 13.495 -0.0650225 14.0708 0.174144C14.6475 0.413311 15.1042 0.885811 15.3233 1.46998L15.97 3.19498C16.1158 3.58164 16.42 3.88664 16.8067 4.03081L18.5308 4.67748C19.115 4.89664 19.5883 5.35331 19.8267 5.92998C20.0658 6.50664 20.0542 7.16331 19.7967 7.73248L19.035 9.40998C18.8642 9.78581 18.8642 10.2166 19.035 10.5925L19.7967 12.2691C20.055 12.8383 20.0658 13.495 19.8267 14.0716C19.5883 14.6483 19.115 15.105 18.5308 15.3241L16.8067 15.9708C16.42 16.1158 16.1158 16.4208 15.97 16.8066L15.3233 18.5316C15.1042 19.1158 14.6475 19.5883 14.0708 19.8275C13.795 19.9416 13.4992 19.9991 13.205 19.9991ZM10 18.0733C10.32 18.0733 10.6392 18.1408 10.9358 18.2758L12.6133 19.0383C12.9783 19.205 13.3825 19.2108 13.7517 19.0575C14.1217 18.9041 14.4025 18.6133 14.5433 18.2391L15.19 16.5141C15.4192 15.9025 15.9017 15.42 16.5133 15.1908L18.2375 14.5441C18.6125 14.4041 18.9033 14.1225 19.0558 13.7525C19.21 13.3833 19.2025 12.9783 19.0375 12.6133L18.2758 10.9366C18.0058 10.3416 18.0058 9.65914 18.2758 9.06415L19.0375 7.38748C19.2025 7.02331 19.21 6.61831 19.0558 6.24914C18.9025 5.87914 18.6125 5.59831 18.2375 5.45748L16.5133 4.81081C15.9017 4.58164 15.42 4.09914 15.19 3.48748L14.5433 1.76248C14.4025 1.38748 14.1217 1.09664 13.7517 0.944144C13.3825 0.790811 12.9775 0.798311 12.6133 0.963311L10.9367 1.72581C10.3425 1.99498 9.65834 1.99498 9.06417 1.72581L7.38667 0.961644C7.02251 0.795811 6.61751 0.789144 6.24834 0.942478C5.87834 1.09581 5.59751 1.38664 5.45667 1.76081L4.81001 3.48581C4.58001 4.09748 4.09834 4.58081 3.48667 4.80998L1.76167 5.45664C1.38667 5.59664 1.09584 5.87831 0.943341 6.24831C0.789175 6.61748 0.796675 7.02248 0.961675 7.38748L1.72334 9.06415C1.99334 9.65914 1.99334 10.3416 1.72334 10.9366L0.961675 12.6133C0.796675 12.9775 0.789175 13.3825 0.943341 13.7516C1.09667 14.1216 1.38667 14.4025 1.76167 14.5433L3.48584 15.19C4.09751 15.4191 4.57917 15.9016 4.80917 16.5133L5.45584 18.2383C5.59667 18.6133 5.87751 18.9041 6.24751 19.0566C6.61751 19.2108 7.02251 19.2041 7.38584 19.0375L9.06251 18.275C9.36084 18.1408 9.68084 18.0733 10 18.0733Z" fill="black"/>
</g>
<defs>
<clipPath id="clip0_92_2578">
<rect width="20" height="20" fill="white"/>
</clipPath>
</defs>
</svg>
