<svg width="24" height="24" viewBox="0 0 24 24" fill="none" xmlns="http://www.w3.org/2000/svg">
<path d="M22 18.2888C21.9997 18.5148 21.9098 18.7314 21.75 18.8912C21.5903 19.051 21.3736 19.1409 21.1476 19.1412H2.85238C2.62632 19.1412 2.40951 19.0514 2.24966 18.8915C2.0898 18.7317 2 18.5149 2 18.2888C2 18.0627 2.0898 17.8459 2.24966 17.6861C2.40951 17.5262 2.62632 17.4364 2.85238 17.4364H21.1476C21.3736 17.4367 21.5903 17.5266 21.75 17.6864C21.9098 17.8462 21.9997 18.0628 22 18.2888ZM21.1476 11.1476H2.85238C2.62731 11.1491 2.41198 11.2396 2.25336 11.3992C2.09475 11.5589 2.00573 11.7749 2.00573 12C2.00573 12.225 2.09475 12.441 2.25336 12.6007C2.41198 12.7604 2.62731 12.8508 2.85238 12.8524H21.1476C21.3727 12.8508 21.588 12.7604 21.7466 12.6007C21.9053 12.441 21.9943 12.225 21.9943 12C21.9943 11.7749 21.9053 11.5589 21.7466 11.3992C21.588 11.2396 21.3727 11.1491 21.1476 11.1476ZM2.85238 6.56353H21.1476C21.2596 6.56353 21.3704 6.54148 21.4738 6.49865C21.5772 6.45581 21.6712 6.39302 21.7503 6.31387C21.8295 6.23472 21.8923 6.14076 21.9351 6.03734C21.978 5.93392 22 5.82308 22 5.71115C22 5.59921 21.978 5.48837 21.9351 5.38495C21.8923 5.28154 21.8295 5.18757 21.7503 5.10842C21.6712 5.02927 21.5772 4.96648 21.4738 4.92365C21.3704 4.88081 21.2596 4.85876 21.1476 4.85876H2.85238C2.62632 4.85876 2.40951 4.94857 2.24966 5.10842C2.0898 5.26827 2 5.48508 2 5.71115C2 5.93721 2.0898 6.15402 2.24966 6.31387C2.40951 6.47373 2.62632 6.56353 2.85238 6.56353Z" fill="black"/>
</svg>
