<svg width="20" height="20" viewBox="0 0 20 20" fill="none" xmlns="http://www.w3.org/2000/svg">
<g clip-path="url(#clip0_132_4633)">
<path d="M19.8781 19.2882L13.7932 13.2033C15.0565 11.8 15.8332 9.95 15.8332 7.91666C15.8332 3.55171 12.2815 6.10352e-05 7.91656 6.10352e-05C3.55161 6.10352e-05 0 3.55171 0 7.91666C0 12.2816 3.55165 15.8333 7.9166 15.8333C9.9499 15.8333 11.7999 15.0566 13.2032 13.7925L19.2882 19.8774C19.3699 19.9591 19.4765 19.9999 19.5832 19.9999C19.6898 19.9999 19.7965 19.9591 19.8782 19.8782C20.0406 19.7149 20.0406 19.4516 19.8781 19.2882ZM7.9166 15C4.01082 15 0.833351 11.8225 0.833351 7.9167C0.833351 4.01092 4.01078 0.833412 7.9166 0.833412C11.8224 0.833412 14.9999 4.01088 14.9999 7.91666C14.9999 11.8224 11.8224 15 7.9166 15Z" fill="black"/>
</g>
<defs>
<clipPath id="clip0_132_4633">
<rect width="20" height="20" fill="white"/>
</clipPath>
</defs>
</svg>
