<svg width="20" height="20" viewBox="0 0 20 20" fill="none" xmlns="http://www.w3.org/2000/svg">
<g clip-path="url(#clip0_62_2474)">
<path d="M1.16632 11.6003C0.59277 11.8778 0.302185 12.5232 0.490467 13.1022C0.9258 14.4343 1.62342 15.6391 2.56483 16.686C2.97513 17.1366 3.67275 17.2106 4.18644 16.8558C4.74911 16.4684 5.49353 16.4379 6.08449 16.7785C6.68199 17.1235 7.02046 17.7646 6.96822 18.4513C6.92251 19.0999 7.34587 19.6648 7.9771 19.7943C8.63663 19.9314 9.31684 20 10.0003 20C10.6827 20 11.3629 19.9314 12.0235 19.7943C12.6537 19.6637 13.077 19.0989 13.0313 18.4502C12.9802 17.7646 13.3186 17.1235 13.915 16.7785C14.5071 16.4379 15.2504 16.4673 15.8142 16.8569C16.3268 17.2106 17.0255 17.1366 17.4358 16.6849C18.3761 15.6391 19.0737 14.4343 19.5091 13.1022C19.6984 12.5232 19.4068 11.8778 18.8332 11.6003C18.2237 11.3053 17.8298 10.6774 17.8298 9.99932C17.8298 9.31258 18.215 8.69876 18.8332 8.39838C19.4068 8.12195 19.6973 7.47548 19.5091 6.89649C19.0726 5.56328 18.375 4.35741 17.4347 3.31261C17.0233 2.86095 16.3268 2.78695 15.8153 3.14283C15.2515 3.53245 14.5049 3.56184 13.915 3.21901C13.3273 2.88054 12.9802 2.22537 13.0313 1.54842C13.0781 0.89869 12.6526 0.333846 12.0224 0.205423C10.7034 -0.0688371 9.29398 -0.0677485 7.97928 0.204334C7.34587 0.333846 6.92142 0.899778 6.96931 1.54842C7.01937 2.22537 6.67219 2.88054 6.08449 3.2201C5.49353 3.55966 4.74802 3.53136 4.18753 3.14392C3.67057 2.78803 2.97404 2.85986 2.56483 3.3137C1.62451 4.35741 0.926888 5.56328 0.490467 6.89649C0.302185 7.47548 0.59277 8.12195 1.16523 8.39838C1.78449 8.69876 2.16976 9.31258 2.16976 9.99932C2.16976 10.6774 1.77579 11.3053 1.16632 11.6003ZM3.28421 9.99932C3.28421 8.8816 2.65842 7.8836 1.65172 7.39494C1.58859 7.36447 1.532 7.29808 1.5505 7.24258C1.93686 6.05738 2.55721 4.98755 3.39196 4.06138C3.42461 4.0222 3.49862 4.0222 3.55303 4.06138C4.46832 4.69261 5.6829 4.73941 6.64172 4.18545C7.59618 3.63476 8.16103 2.5671 8.08158 1.4668C8.07505 1.37973 8.12185 1.31334 8.20347 1.29593C9.37234 1.05432 10.625 1.05323 11.7982 1.29702C11.8777 1.31334 11.9256 1.38082 11.919 1.4668C11.8374 2.5671 12.4023 3.63367 13.3578 4.18436C14.3177 4.7405 15.5323 4.69152 16.4487 4.0592C16.5042 4.0222 16.5727 4.02329 16.6076 4.06029C17.4423 4.98755 18.0627 6.05738 18.449 7.24258C18.4675 7.29808 18.4109 7.36447 18.3467 7.39494C17.3411 7.8836 16.7153 8.8816 16.7153 9.99932C16.7153 11.1018 17.3563 12.1237 18.3478 12.6037C18.4186 12.6374 18.4654 12.7071 18.449 12.7561C18.0627 13.9391 17.4434 15.01 16.6076 15.9373C16.5727 15.9764 16.5009 15.9764 16.4465 15.9394C15.5334 15.3082 14.3188 15.2581 13.3578 15.8143C12.3881 16.3748 11.8363 17.4163 11.919 18.5318C11.9256 18.6189 11.8777 18.6864 11.7982 18.7038C10.6228 18.9454 9.37016 18.9454 8.20347 18.7038C8.12185 18.6864 8.07396 18.6189 8.08049 18.5329C8.1632 17.4348 7.59836 16.3671 6.64172 15.8143C6.19659 15.5563 5.69705 15.429 5.19859 15.429C4.62069 15.429 4.04387 15.5999 3.55412 15.9383C3.49862 15.9753 3.4257 15.9775 3.39305 15.9383C2.55612 15.01 1.93686 13.9391 1.5505 12.7561C1.53418 12.7071 1.58097 12.6374 1.65172 12.6037C2.64319 12.1237 3.28421 11.1018 3.28421 9.99932Z" fill="#0C0C0C"/>
<path d="M10.0004 13.5418C11.954 13.5418 13.5429 11.9529 13.5429 9.99931C13.5429 8.04575 11.954 6.45679 10.0004 6.45679C8.04684 6.45679 6.45679 8.04575 6.45679 9.99931C6.45679 11.9529 8.04684 13.5418 10.0004 13.5418ZM10.0004 7.57124C11.339 7.57124 12.4285 8.66066 12.4285 9.99931C12.4285 11.338 11.339 12.4274 10.0004 12.4274C8.66066 12.4274 7.57124 11.338 7.57124 9.99931C7.57124 8.66066 8.66066 7.57124 10.0004 7.57124Z" fill="#0C0C0C"/>
</g>
<defs>
<clipPath id="clip0_62_2474">
<rect width="20" height="20" fill="white"/>
</clipPath>
</defs>
</svg>
