<svg width="24" height="24" viewBox="0 0 24 24" fill="none" xmlns="http://www.w3.org/2000/svg">
<g clip-path="url(#clip0_119_7936)">
<path d="M12 0C5.38312 0 0 5.38312 0 12C0 18.6169 5.38312 24 12 24C18.6169 24 24 18.6169 24 12C24 5.38312 18.6169 0 12 0ZM12 18.8284C11.1821 18.8284 10.3705 18.6806 9.60992 18.3966L18.3966 9.61029C18.6806 10.3705 18.8284 11.1821 18.8284 12C18.8284 15.765 15.765 18.8284 12 18.8284ZM12 5.17163C12.8179 5.17163 13.6295 5.3194 14.3901 5.60339L5.60339 14.3897C5.3194 13.6295 5.17163 12.8179 5.17163 12C5.17163 8.23499 8.23499 5.17163 12 5.17163Z" fill="#FF3939"/>
<path d="M14.3901 5.60339L12 7.99347V16.0065L18.3966 9.61029C18.6806 10.3705 18.8284 11.1821 18.8284 12C18.8284 15.765 15.765 18.8284 12 18.8284V24C18.6169 24 24 18.6169 24 12C24 5.38312 18.6169 0 12 0V5.17163C12.8179 5.17163 13.6295 5.3194 14.3901 5.60339Z" fill="#B00000"/>
</g>
<defs>
<clipPath id="clip0_119_7936">
<rect width="24" height="24" fill="white"/>
</clipPath>
</defs>
</svg>
