<svg width="20" height="20" viewBox="0 0 20 20" fill="none" xmlns="http://www.w3.org/2000/svg">
<path d="M19.0524 10C19.0544 10.3415 18.9655 10.6774 18.7947 10.9732C18.624 11.2689 18.3776 11.5139 18.0808 11.6829L5.86304 18.7367C5.56828 18.9091 5.23295 19 4.89147 19C4.54999 19 4.21466 18.9091 3.91989 18.7367C3.62313 18.5678 3.37671 18.3228 3.20595 18.027C3.03519 17.7313 2.94625 17.3954 2.94828 17.0539V2.94611C2.94626 2.60461 3.0352 2.26873 3.20595 1.97297C3.3767 1.67721 3.6231 1.43224 3.91985 1.26322C4.21464 1.09085 4.54997 1 4.89145 1C5.23293 1 5.56826 1.09085 5.86304 1.26322L18.0808 8.31714C18.3776 8.48613 18.624 8.73109 18.7947 9.02685C18.9655 9.32261 19.0544 9.6585 19.0524 10Z" fill="white"/>
</svg>
