<svg width="20" height="20" viewBox="0 0 20 20" fill="none" xmlns="http://www.w3.org/2000/svg">
<path d="M19.5833 17.5H0.416667C0.186667 17.5 0 17.3134 0 17.0834C0 16.8534 0.186667 16.6667 0.416667 16.6667H19.5833C19.8133 16.6667 20 16.8534 20 17.0834C20 17.3134 19.8133 17.5 19.5833 17.5Z" fill="black"/>
<path d="M18.75 17.5H14.5833C14.3533 17.5 14.1666 17.3134 14.1666 17.0834V10C14.1666 9.54085 14.5408 9.16669 15 9.16669H18.3333C18.7925 9.16669 19.1666 9.54085 19.1666 10V17.0834C19.1666 17.3134 18.98 17.5 18.75 17.5ZM15 16.6667H18.3333V10H15V16.6667Z" fill="black"/>
<path d="M12.0833 17.5H7.91667C7.68667 17.5 7.5 17.3133 7.5 17.0833V6.66665C7.5 6.20748 7.87417 5.83331 8.33333 5.83331H11.6667C12.1258 5.83331 12.5 6.20748 12.5 6.66665V17.0833C12.5 17.3133 12.3133 17.5 12.0833 17.5ZM8.33333 16.6666H11.6667V6.66665H8.33333V16.6666Z" fill="black"/>
<path d="M5.41671 17.5H1.25004C1.02004 17.5 0.833374 17.3133 0.833374 17.0833V3.33333C0.833374 2.87417 1.20754 2.5 1.66671 2.5H5.00004C5.45921 2.5 5.83337 2.87417 5.83337 3.33333V17.0833C5.83337 17.3133 5.64671 17.5 5.41671 17.5ZM1.66671 16.6667H5.00004V3.33333H1.66671V16.6667Z" fill="black"/>
</svg>
