<svg width="20" height="20" viewBox="0 0 20 20" fill="none" xmlns="http://www.w3.org/2000/svg">
<g clip-path="url(#clip0_92_2569)">
<path d="M14.5833 20C11.5966 20 9.16663 17.57 9.16663 14.5834C9.16663 11.5967 11.5966 9.16669 14.5833 9.16669C17.57 9.16669 20 11.5967 20 14.5834C20 17.57 17.57 20 14.5833 20ZM14.5833 10C12.0558 10 9.99996 12.0567 9.99996 14.5834C9.99996 17.11 12.0558 19.1667 14.5833 19.1667C17.1108 19.1667 19.1666 17.11 19.1666 14.5834C19.1666 12.0567 17.1108 10 14.5833 10Z" fill="black"/>
<path d="M14.5833 17.5C14.3533 17.5 14.1666 17.3133 14.1666 17.0833V13.75C14.1666 13.52 14.3533 13.3333 14.5833 13.3333C14.8133 13.3333 15 13.52 15 13.75V17.0833C15 17.3133 14.8133 17.5 14.5833 17.5Z" fill="black"/>
<path d="M14.5833 12.5C14.8134 12.5 15 12.3135 15 12.0834C15 11.8532 14.8134 11.6667 14.5833 11.6667C14.3532 11.6667 14.1666 11.8532 14.1666 12.0834C14.1666 12.3135 14.3532 12.5 14.5833 12.5Z" fill="black"/>
<path d="M7.91667 17.5H2.08333C0.935 17.5 0 16.5658 0 15.4167V4.58333C0 3.43417 0.935 2.5 2.08333 2.5H3.75C3.98 2.5 4.16667 2.68667 4.16667 2.91667C4.16667 3.14667 3.98 3.33333 3.75 3.33333H2.08333C1.39417 3.33333 0.833333 3.89417 0.833333 4.58333V15.4167C0.833333 16.1058 1.39417 16.6667 2.08333 16.6667H7.91667C8.14667 16.6667 8.33333 16.8533 8.33333 17.0833C8.33333 17.3133 8.14667 17.5 7.91667 17.5Z" fill="black"/>
<path d="M9.58337 5H4.58337C3.89421 5 3.33337 4.43917 3.33337 3.75V2.08333C3.33337 1.85333 3.52004 1.66667 3.75004 1.66667H5.04171C5.23587 0.716667 6.07671 0 7.08337 0C8.09004 0 8.93087 0.716667 9.12504 1.66667H10.4167C10.6467 1.66667 10.8334 1.85333 10.8334 2.08333V3.75C10.8334 4.43917 10.2725 5 9.58337 5ZM4.16671 2.5V3.75C4.16671 3.97917 4.35337 4.16667 4.58337 4.16667H9.58337C9.81337 4.16667 10 3.97917 10 3.75V2.5H8.75004C8.52004 2.5 8.33337 2.31333 8.33337 2.08333C8.33337 1.39417 7.77254 0.833333 7.08337 0.833333C6.39421 0.833333 5.83337 1.39417 5.83337 2.08333C5.83337 2.31333 5.64671 2.5 5.41671 2.5H4.16671Z" fill="black"/>
<path d="M11.25 7.50002H2.91667C2.68667 7.50002 2.5 7.31335 2.5 7.08335C2.5 6.85335 2.68667 6.66669 2.91667 6.66669H11.25C11.48 6.66669 11.6667 6.85335 11.6667 7.08335C11.6667 7.31335 11.48 7.50002 11.25 7.50002Z" fill="black"/>
<path d="M8.75 10H2.91667C2.68667 10 2.5 9.81335 2.5 9.58335C2.5 9.35335 2.68667 9.16669 2.91667 9.16669H8.75C8.98 9.16669 9.16667 9.35335 9.16667 9.58335C9.16667 9.81335 8.98 10 8.75 10Z" fill="black"/>
<path d="M7.08333 12.5H2.91667C2.68667 12.5 2.5 12.3134 2.5 12.0834C2.5 11.8534 2.68667 11.6667 2.91667 11.6667H7.08333C7.31333 11.6667 7.5 11.8534 7.5 12.0834C7.5 12.3134 7.31333 12.5 7.08333 12.5Z" fill="black"/>
<path d="M13.75 7.5C13.52 7.5 13.3333 7.31333 13.3333 7.08333V4.58333C13.3333 3.89417 12.7725 3.33333 12.0833 3.33333H10.4167C10.1867 3.33333 10 3.14667 10 2.91667C10 2.68667 10.1867 2.5 10.4167 2.5H12.0833C13.2317 2.5 14.1667 3.43417 14.1667 4.58333V7.08333C14.1667 7.31333 13.98 7.5 13.75 7.5Z" fill="black"/>
</g>
<defs>
<clipPath id="clip0_92_2569">
<rect width="20" height="20" fill="white"/>
</clipPath>
</defs>
</svg>
