<svg width="20" height="20" viewBox="0 0 20 20" fill="none" xmlns="http://www.w3.org/2000/svg">
<g clip-path="url(#clip0_525_34402)">
<path d="M16.3602 8.98594C16.3602 5.50563 13.5653 2.66816 10.0778 2.6266L10.0003 2.62598C6.52051 2.62598 3.64219 5.46102 3.64063 8.9823C3.63914 11.7456 5.39656 14.0988 7.87457 14.9812V15.7487C7.32766 15.8672 6.91621 16.3538 6.91621 16.9356C6.91621 17.5898 7.43672 18.1211 8.08477 18.1464C7.98359 18.3237 7.92109 18.5259 7.92109 18.7442C7.92109 19.4144 8.46641 19.9597 9.1366 19.9597H10.8646C11.5348 19.9597 12.0801 19.4144 12.0801 18.7442C12.0801 18.5259 12.0177 18.3238 11.9165 18.1466C12.5852 18.1209 13.0851 17.5767 13.0848 16.936C13.0848 16.3538 12.6732 15.867 12.1261 15.7487V14.9809C14.5913 14.1032 16.3602 11.7599 16.3602 8.98594ZM4.26313 8.98258C4.26469 5.80156 6.86895 3.24848 10.0003 3.24848L10.0706 3.2491C13.2105 3.28684 15.7377 5.83973 15.7377 8.98594C15.7377 11.5789 14.0262 13.7353 11.7214 14.4602C11.5918 14.5009 11.5036 14.6213 11.5036 14.7571V15.72H8.49707V14.7571C8.49707 14.6213 8.40891 14.5009 8.2793 14.4602C5.96649 13.733 4.26156 11.5705 4.26313 8.98258ZM10.8646 19.3371H9.1366C8.80953 19.3371 8.54359 19.0711 8.54359 18.7441C8.54359 18.417 8.80957 18.1511 9.1366 18.1511H10.8646C11.1916 18.1511 11.4576 18.4171 11.4576 18.7441C11.4576 19.0712 11.1916 19.3371 10.8646 19.3371ZM12.4623 16.9362C12.4626 17.262 12.1973 17.5286 11.8696 17.5286C11.8372 17.5286 8.07586 17.5286 8.13172 17.5286C7.80465 17.5286 7.53871 17.2626 7.53871 16.9356C7.53871 16.6085 7.80469 16.3426 8.13172 16.3426H11.8693C12.1964 16.3425 12.4623 16.6088 12.4623 16.9362Z" fill="#8C909E"/>
<path d="M10.311 0.916016V0.351289C10.311 0.179258 10.1716 0.0400391 9.99973 0.0400391C9.82785 0.0400391 9.68848 0.179258 9.68848 0.351289V0.916055C9.68848 1.08809 9.82785 1.2273 9.99973 1.2273C10.1716 1.2273 10.311 1.08809 10.311 0.916016Z" fill="#8C909E"/>
<path d="M16.5145 2.73863C16.3929 2.61707 16.196 2.61707 16.0744 2.73863L15.6752 3.13773C15.5536 3.2593 15.5536 3.45629 15.6752 3.57785C15.7967 3.69941 15.9937 3.69945 16.1153 3.57785L16.5145 3.17875C16.6361 3.05719 16.6361 2.8602 16.5145 2.73863Z" fill="#8C909E"/>
<path d="M3.4857 15.7673C3.60727 15.8889 3.80426 15.8889 3.92582 15.7673L4.32508 15.3682C4.44668 15.2466 4.44668 15.0496 4.32508 14.9281C4.20352 14.8065 4.00652 14.8065 3.88496 14.9281L3.4857 15.3272C3.36414 15.4488 3.36414 15.6457 3.4857 15.7673Z" fill="#8C909E"/>
<path d="M18.3376 8.94238C18.1657 8.94238 18.0264 9.0816 18.0264 9.25363C18.0264 9.42566 18.1657 9.56488 18.3376 9.56488H18.9022C19.0741 9.56488 19.2135 9.42566 19.2135 9.25363C19.2135 9.0816 19.0741 8.94238 18.9022 8.94238H18.3376Z" fill="#8C909E"/>
<path d="M1.09836 8.94238C0.926484 8.94238 0.787109 9.0816 0.787109 9.25363C0.787109 9.42566 0.926484 9.56488 1.09836 9.56488H1.66297C1.83484 9.56488 1.97422 9.42566 1.97422 9.25363C1.97422 9.0816 1.83484 8.94238 1.66297 8.94238H1.09836Z" fill="#8C909E"/>
<path d="M16.0744 15.7673C16.1959 15.8887 16.3931 15.889 16.5145 15.7673C16.6361 15.6457 16.6361 15.4487 16.5145 15.3272L16.1153 14.9281C15.9937 14.8065 15.7964 14.8065 15.6752 14.9281C15.5536 15.0497 15.5536 15.2466 15.6752 15.3682L16.0744 15.7673Z" fill="#8C909E"/>
<path d="M3.88496 3.57785C4.00641 3.6993 4.20367 3.69957 4.32508 3.57785C4.44668 3.45629 4.44668 3.2593 4.32508 3.13773L3.92582 2.73863C3.80422 2.61707 3.60695 2.61707 3.4857 2.73863C3.36414 2.86023 3.36414 3.05719 3.4857 3.17875L3.88496 3.57785Z" fill="#8C909E"/>
</g>
<defs>
<clipPath id="clip0_525_34402">
<rect width="20" height="20" fill="white"/>
</clipPath>
</defs>
</svg>
