<svg width="24" height="24" viewBox="0 0 24 24" fill="none" xmlns="http://www.w3.org/2000/svg">
<path d="M13.1875 4.42434H9.90625V0.46875H13.1875V4.42434Z" fill="#F6F6F6"/>
<path d="M11.5469 0.46875H13.1875V4.42434H11.5469V0.46875Z" fill="#E2DFF4"/>
<path d="M16.624 4.9906L18.2384 2.68716L19.3901 3.49435L17.7757 5.79779L16.624 4.9906Z" fill="#E2DFF4"/>
<path d="M11.5469 2.90625C5.73128 2.90625 1 7.63753 1 13.4531C1 19.2687 5.73128 24 11.5469 24C17.3625 24 22.0938 19.2687 22.0938 13.4531C22.0938 7.63758 17.3624 2.90625 11.5469 2.90625Z" fill="#9DDFF6"/>
<path d="M11.5469 2.90625V24C17.3624 24 22.0938 19.2687 22.0938 13.4531C22.0938 7.63758 17.3624 2.90625 11.5469 2.90625Z" fill="#8BB9FF"/>
<path d="M11.5469 21.1875C7.28214 21.1875 3.8125 17.7179 3.8125 13.4531C3.8125 9.18839 7.28214 5.71875 11.5469 5.71875C15.8116 5.71875 19.2812 9.18839 19.2812 13.4531C19.2812 17.7179 15.8116 21.1875 11.5469 21.1875Z" fill="#F6F6F6"/>
<path d="M11.5469 5.71875V21.1875C15.8116 21.1875 19.2812 17.7179 19.2812 13.4531C19.2812 9.18839 15.8116 5.71875 11.5469 5.71875Z" fill="#E2DFF4"/>
<path d="M11.547 8.53125C11.9353 8.53125 12.2501 8.21645 12.2501 7.82812C12.2501 7.4398 11.9353 7.125 11.547 7.125C11.1587 7.125 10.8439 7.4398 10.8439 7.82812C10.8439 8.21645 11.1587 8.53125 11.547 8.53125Z" fill="#51489A"/>
<path d="M11.547 19.7812C11.9353 19.7812 12.2501 19.4665 12.2501 19.0781C12.2501 18.6898 11.9353 18.375 11.547 18.375C11.1587 18.375 10.8439 18.6898 10.8439 19.0781C10.8439 19.4665 11.1587 19.7812 11.547 19.7812Z" fill="#51489A"/>
<path d="M7.56958 10.1788C7.95791 10.1788 8.27271 9.86397 8.27271 9.47565C8.27271 9.08732 7.95791 8.77252 7.56958 8.77252C7.18125 8.77252 6.86646 9.08732 6.86646 9.47565C6.86646 9.86397 7.18125 10.1788 7.56958 10.1788Z" fill="#51489A"/>
<path d="M15.5243 18.1337C15.9126 18.1337 16.2274 17.8189 16.2274 17.4306C16.2274 17.0423 15.9126 16.7275 15.5243 16.7275C15.136 16.7275 14.8212 17.0423 14.8212 17.4306C14.8212 17.8189 15.136 18.1337 15.5243 18.1337Z" fill="#39326C"/>
<path d="M5.92188 14.1562C6.3102 14.1562 6.625 13.8415 6.625 13.4531C6.625 13.0648 6.3102 12.75 5.92188 12.75C5.53355 12.75 5.21875 13.0648 5.21875 13.4531C5.21875 13.8415 5.53355 14.1562 5.92188 14.1562Z" fill="#51489A"/>
<path d="M17.1719 14.1562C17.5602 14.1562 17.875 13.8415 17.875 13.4531C17.875 13.0648 17.5602 12.75 17.1719 12.75C16.7835 12.75 16.4688 13.0648 16.4688 13.4531C16.4688 13.8415 16.7835 14.1562 17.1719 14.1562Z" fill="#39326C"/>
<path d="M7.56946 18.1337C7.95778 18.1337 8.27258 17.8189 8.27258 17.4306C8.27258 17.0423 7.95778 16.7275 7.56946 16.7275C7.18113 16.7275 6.86633 17.0423 6.86633 17.4306C6.86633 17.8189 7.18113 18.1337 7.56946 18.1337Z" fill="#51489A"/>
<path d="M15.5243 10.1788C15.9126 10.1788 16.2274 9.86397 16.2274 9.47565C16.2274 9.08732 15.9126 8.77252 15.5243 8.77252C15.136 8.77252 14.8212 9.08732 14.8212 9.47565C14.8212 9.86397 15.136 10.1788 15.5243 10.1788Z" fill="#39326C"/>
<path d="M14.3594 14.1562H11.5469C11.1586 14.1562 10.8438 13.8414 10.8438 13.4531V10.6406C10.8438 10.2523 11.1586 9.9375 11.5469 9.9375C11.9352 9.9375 12.25 10.2523 12.25 10.6406V12.75H14.3594C14.7477 12.75 15.0625 13.0648 15.0625 13.4531C15.0625 13.8414 14.7477 14.1562 14.3594 14.1562Z" fill="#51489A"/>
<path d="M13.8906 1.40625H9.20312C8.81481 1.40625 8.5 1.09144 8.5 0.703125C8.5 0.314812 8.81481 0 9.20312 0H13.8906C14.2789 0 14.5938 0.314812 14.5938 0.703125C14.5938 1.09144 14.2789 1.40625 13.8906 1.40625Z" fill="#51489A"/>
<path d="M19.5548 4.4683L17.2509 2.85514C16.9328 2.63239 16.8555 2.19397 17.0782 1.87588C17.301 1.55778 17.7394 1.48048 18.0575 1.70319L20.3614 3.31634C20.6795 3.53909 20.7568 3.97752 20.5341 4.29561C20.3113 4.61375 19.8729 4.69105 19.5548 4.4683Z" fill="#39326C"/>
<path d="M13.8906 1.40625C14.2789 1.40625 14.5938 1.09144 14.5938 0.703125C14.5938 0.314812 14.2789 0 13.8906 0H11.5469V1.40625H13.8906Z" fill="#39326C"/>
<path d="M12.25 7.82812C12.25 7.43981 11.9352 7.125 11.5469 7.125V8.53125C11.9352 8.53125 12.25 8.21644 12.25 7.82812Z" fill="#39326C"/>
<path d="M12.25 19.0781C12.25 18.6898 11.9352 18.375 11.5469 18.375V19.7812C11.9352 19.7812 12.25 19.4664 12.25 19.0781Z" fill="#39326C"/>
<path d="M14.3594 12.75H12.25V10.6406C12.25 10.2523 11.9352 9.9375 11.5469 9.9375V14.1562H14.3594C14.7477 14.1562 15.0625 13.8414 15.0625 13.4531C15.0625 13.0648 14.7477 12.75 14.3594 12.75Z" fill="#39326C"/>
</svg>
