<svg width="18" height="18" viewBox="0 0 18 18" fill="none" xmlns="http://www.w3.org/2000/svg">
<path d="M9.00002 2.0625C8.26615 2.0625 7.64033 2.53127 7.4084 3.18745C7.30487 3.48035 6.9835 3.63387 6.6906 3.53035C6.3977 3.42682 6.24418 3.10545 6.3477 2.81255C6.73353 1.72094 7.77456 0.9375 9.00002 0.9375C10.2255 0.9375 11.2665 1.72094 11.6523 2.81255C11.7559 3.10545 11.6023 3.42682 11.3094 3.53035C11.0165 3.63387 10.6952 3.48035 10.5916 3.18745C10.3597 2.53127 9.73389 2.0625 9.00002 2.0625Z" fill="#1A1D1F"/>
<path d="M2.0625 4.5C2.0625 4.18934 2.31434 3.9375 2.625 3.9375H15.3751C15.6857 3.9375 15.9376 4.18934 15.9376 4.5C15.9376 4.81066 15.6857 5.0625 15.3751 5.0625H2.625C2.31434 5.0625 2.0625 4.81066 2.0625 4.5Z" fill="#1A1D1F"/>
<path d="M4.43631 6.33758C4.41565 6.02761 4.14761 5.79308 3.83764 5.81374C3.52767 5.83441 3.29314 6.10244 3.31381 6.41242L3.66139 11.6262C3.72551 12.5883 3.77731 13.3654 3.89879 13.9752C4.02509 14.6092 4.2399 15.1387 4.6836 15.5538C5.1273 15.9689 5.66996 16.148 6.31094 16.2319C6.92747 16.3125 7.70631 16.3125 8.6705 16.3125H9.32962C10.2938 16.3125 11.0726 16.3125 11.6892 16.2319C12.3302 16.148 12.8728 15.9689 13.3165 15.5538C13.7602 15.1387 13.975 14.6092 14.1013 13.9752C14.2228 13.3654 14.2746 12.5883 14.3387 11.6262L14.6863 6.41242C14.707 6.10244 14.4724 5.83441 14.1625 5.81374C13.8525 5.79308 13.5845 6.02761 13.5638 6.33758L13.2188 11.5119C13.1515 12.5228 13.1034 13.2262 12.998 13.7554C12.8957 14.2687 12.753 14.5404 12.5479 14.7323C12.3429 14.9241 12.0623 15.0485 11.5433 15.1164C11.0082 15.1864 10.3032 15.1875 9.29007 15.1875H8.71005C7.69692 15.1875 6.99191 15.1864 6.45686 15.1164C5.93786 15.0485 5.65724 14.9241 5.45218 14.7323C5.24712 14.5404 5.10437 14.2687 5.00211 13.7554C4.89668 13.2262 4.84866 12.5228 4.78127 11.5119L4.43631 6.33758Z" fill="#1A1D1F"/>
<path d="M7.06909 7.69029C7.37821 7.65938 7.65386 7.88491 7.68477 8.19403L8.05977 11.944C8.09069 12.2531 7.86515 12.5288 7.55604 12.5597C7.24692 12.5906 6.97127 12.3651 6.94036 12.056L6.56536 8.30597C6.53444 7.99685 6.75998 7.7212 7.06909 7.69029Z" fill="#1A1D1F"/>
<path d="M11.4348 8.30597C11.4657 7.99685 11.2402 7.7212 10.931 7.69029C10.6219 7.65938 10.3463 7.88491 10.3154 8.19403L9.94036 11.944C9.90944 12.2531 10.135 12.5288 10.4441 12.5597C10.7532 12.5906 11.0289 12.3651 11.0598 12.056L11.4348 8.30597Z" fill="#1A1D1F"/>
</svg>
