<?xml version="1.0" encoding="UTF-8"?>
<svg version="1.1" xmlns="http://www.w3.org/2000/svg" width="512" height="512">
<path d="M0 0 C8.21478017 5.66855689 15.23107973 13.99101033 22.30859375 21 C22.98402788 21.6688623 23.65946201 22.33772461 24.35536385 23.02685547 C27.91962583 26.5587278 31.47994446 30.0945296 35.0378418 33.6328125 C37.9754481 36.55252202 40.92136122 39.46345092 43.87475586 42.3671875 C47.45694469 45.88924816 51.02424493 49.42575433 54.58134651 52.97314453 C55.93462493 54.31786985 57.29302795 55.65745873 58.65664482 56.99169922 C60.55945227 58.85564815 62.44250769 60.737605 64.32202148 62.625 C64.88560364 63.16858154 65.44918579 63.71216309 66.02984619 64.2722168 C69.6930697 68.0048612 70.89950448 70.77374685 71 76 C69.65437601 78.94755732 68.91445456 80.54277272 66 82 C63.44637396 82.08658569 60.9204558 82.11562516 58.3671875 82.09765625 C57.61535187 82.0962413 56.86351624 82.09482635 56.08889771 82.09336853 C53.6842249 82.08776465 51.27964473 82.07521157 48.875 82.0625 C47.24609509 82.0574855 45.61718873 82.0529225 43.98828125 82.04882812 C39.99215173 82.03779397 35.99609158 82.02052679 32 82 C31.97421875 83.2375 31.9484375 84.475 31.921875 85.75 C30.4587726 135.77929418 12.01140783 181.5496548 -21 219 C-22.08087891 220.26457031 -22.08087891 220.26457031 -23.18359375 221.5546875 C-27.460909 226.50736832 -31.99553614 230.7969324 -37 235 C-37.91136719 235.81082031 -38.82273437 236.62164062 -39.76171875 237.45703125 C-76.42207116 269.85578739 -124.01192048 286.52096824 -172.625 286.3125 C-173.94810684 286.30976578 -173.94810684 286.30976578 -175.29794312 286.30697632 C-188.3949 286.26141265 -201.17001279 285.86741465 -214 283 C-214.76860352 282.83371094 -215.53720703 282.66742188 -216.32910156 282.49609375 C-251.48354035 274.66142724 -287.88555154 257.57085274 -312 230 C-313.50889469 226.98221063 -313.50026276 225.37677363 -313 222 C-311.69526672 220.20042419 -311.69526672 220.20042419 -309.95825195 218.28686523 C-309.3206192 217.5838327 -308.68298645 216.88080017 -308.02603149 216.15646362 C-304.79912383 212.72181366 -301.50522134 209.36246616 -298.16796875 206.03515625 C-297.0912365 204.95698891 -297.0912365 204.95698891 -295.99275208 203.85704041 C-294.49061748 202.3542307 -292.98724103 200.85266134 -291.48266602 199.35229492 C-289.17281804 197.0478524 -286.86841909 194.73805611 -284.56445312 192.42773438 C-283.09927928 190.9632205 -281.63379571 189.49901642 -280.16796875 188.03515625 C-279.47841599 187.34357925 -278.78886322 186.65200226 -278.07841492 185.93946838 C-277.44047501 185.30468063 -276.8025351 184.66989288 -276.14526367 184.01586914 C-275.58457687 183.45597794 -275.02389008 182.89608673 -274.44621277 182.31922913 C-272.42753018 180.47779547 -271.08818841 180.01469807 -268.375 179.5625 C-264.25172787 180.09699824 -262.61973874 181.47239691 -259.4453125 184.03125 C-230.17805832 207.59466231 -196.01810054 219.66681551 -158.36401367 216.1081543 C-133.72875287 213.35192571 -109.31961971 203.59900821 -90 188 C-89.18668213 187.35272949 -89.18668213 187.35272949 -88.35693359 186.69238281 C-60.3292185 164.23583049 -42.76333121 131.5312074 -38.75048828 95.77685547 C-38.480315 92.70461973 -38.30265807 89.63598172 -38.17578125 86.5546875 C-38 84 -38 84 -37 82 C-38.55895996 82.0314209 -38.55895996 82.0314209 -40.14941406 82.06347656 C-44.01076442 82.13595674 -47.87205483 82.18182831 -51.73388672 82.21972656 C-53.40423702 82.23982393 -55.07451713 82.26710683 -56.74462891 82.30175781 C-59.1476372 82.35036119 -61.54971434 82.37298656 -63.953125 82.390625 C-64.69806213 82.41127014 -65.44299927 82.43191528 -66.21051025 82.45318604 C-69.67785485 82.45468165 -71.61721281 82.28705192 -74.42871094 80.17871094 C-76.77772081 76.92163136 -77.20160636 75.03212714 -77 71 C-71.5924866 62.70156154 -62.81735634 55.6724545 -55.82421875 48.69140625 C-54.44881337 47.31532636 -53.07355639 45.93909812 -51.69844055 44.56272888 C-48.83142417 41.69424545 -45.96262481 38.82756067 -43.0925293 35.9621582 C-39.40920868 32.28456672 -35.73043929 28.6024602 -32.05296612 24.91902256 C-29.22128952 22.08374104 -26.38724629 19.25083483 -23.55246925 16.41865349 C-22.19411583 15.06096785 -20.8365068 13.70253703 -19.4796505 12.34335518 C-17.59129518 10.45247101 -15.69978297 8.56480359 -13.80737305 6.67797852 C-13.24581512 6.11439636 -12.6842572 5.55081421 -12.10568237 4.97015381 C-8.01872856 0.90560763 -5.90244596 -0.87443644 0 0 Z " fill="#3693FF" transform="translate(429,174)"/>
<path d="M0 0 C0.90157837 0.00054382 1.80315674 0.00108765 2.73205566 0.00164795 C17.16042684 0.04157238 31.0043535 0.88405087 45.0625 4.375 C45.97322266 4.59994141 46.88394531 4.82488281 47.82226562 5.05664062 C53.97234107 6.6210957 60.02792314 8.41426624 66.0625 10.375 C66.76246094 10.59881348 67.46242188 10.82262695 68.18359375 11.05322266 C94.18438232 19.53642341 120.91521953 35.62660932 139.0625 56.375 C140.57139469 59.39278937 140.56276276 60.99822637 140.0625 64.375 C138.75158691 66.17457581 138.75158691 66.17457581 137.00976562 68.08813477 C136.37208252 68.7911673 135.73439941 69.49419983 135.07739258 70.21853638 C129.75445817 75.91547255 124.30306672 81.48026509 118.81982422 87.02270508 C117.30866315 88.5556036 115.80380756 90.0947426 114.30517578 91.63989258 C112.1240588 93.8878464 109.92394618 96.11553691 107.71875 98.33984375 C107.05500366 99.03142075 106.39125732 99.72299774 105.70739746 100.43553162 C102.52582073 103.60326295 100.68080138 105.20823805 96.25976562 106.40063477 C90.09097885 106.35117519 86.7722137 102.10780568 82.5 98.125 C59.80669393 77.49165177 26.5444338 68.42045384 -3.62255859 69.46826172 C-21.76992961 70.47164047 -38.35336699 73.9543641 -54.9375 81.375 C-56.07574219 81.87644531 -57.21398437 82.37789063 -58.38671875 82.89453125 C-89.73795341 97.5870711 -113.26235394 124.38623196 -125.9375 156.375 C-130.70579109 169.59628346 -133.65775638 182.70795895 -134.48046875 196.734375 C-134.52506226 197.47155762 -134.56965576 198.20874023 -134.61560059 198.96826172 C-134.72440174 200.7704178 -134.83116039 202.572697 -134.9375 204.375 C-133.92848633 204.35405273 -132.91947266 204.33310547 -131.87988281 204.31152344 C-128.13035313 204.23903215 -124.38088518 204.1931678 -120.63085938 204.15527344 C-119.00900857 204.13517856 -117.38723003 204.10789746 -115.765625 204.07324219 C-113.4321102 204.0246273 -111.09955443 204.00201111 -108.765625 203.984375 C-108.04256165 203.96372986 -107.31949829 203.94308472 -106.57452393 203.92181396 C-103.13589188 203.92028709 -101.28408515 204.11251988 -98.50683594 206.21582031 C-96.46246417 209.02858072 -96.00837201 210.90227146 -95.9375 214.375 C-98.19192909 219.05220341 -101.66471243 222.37904404 -105.30493164 225.98535156 C-105.94589279 226.62821106 -106.58685394 227.27107056 -107.24723816 227.93341064 C-109.35919485 230.04906095 -111.47824572 232.1574439 -113.59765625 234.265625 C-115.06867829 235.7354546 -116.5393305 237.20565442 -118.0096283 238.6762085 C-121.08739966 241.75241758 -124.1684968 244.8252425 -127.25219727 247.89550781 C-131.2108702 251.83715398 -135.16289098 255.7853884 -139.11267948 259.73593521 C-142.14660779 262.7695921 -145.18313139 265.80063963 -148.22054863 268.83080292 C-149.67924522 270.28631143 -151.13733173 271.74243162 -152.59480476 273.19916534 C-154.62718522 275.22938585 -156.66281917 277.25628403 -158.69946289 279.28222656 C-159.60733047 280.19077393 -159.60733047 280.19077393 -160.53353882 281.11767578 C-165.56897462 286.1143285 -165.56897462 286.1143285 -169.5625 286.875 C-179.02135151 285.47368866 -188.58461946 271.97197803 -195.24609375 265.375 C-195.92152788 264.7061377 -196.59696201 264.03727539 -197.29286385 263.34814453 C-200.85712583 259.8162722 -204.41744446 256.2804704 -207.9753418 252.7421875 C-210.9129481 249.82247798 -213.85886122 246.91154908 -216.81225586 244.0078125 C-220.39444469 240.48575184 -223.96174493 236.94924567 -227.51884651 233.40185547 C-228.87212493 232.05713015 -230.23052795 230.71754127 -231.59414482 229.38330078 C-233.49695227 227.51935185 -235.38000769 225.637395 -237.25952148 223.75 C-238.10489471 222.93462769 -238.10489471 222.93462769 -238.96734619 222.1027832 C-242.6305697 218.3701388 -243.83700448 215.60125315 -243.9375 210.375 C-242.59187601 207.42744268 -241.85195456 205.83222728 -238.9375 204.375 C-236.31122867 204.28832745 -233.71187517 204.25939865 -231.0859375 204.27734375 C-230.31190582 204.2787587 -229.53787415 204.28017365 -228.74038696 204.28163147 C-226.26438558 204.28723597 -223.78847412 204.29978917 -221.3125 204.3125 C-219.63541797 204.31751442 -217.95833453 204.32207743 -216.28125 204.32617188 C-212.16663194 204.33720685 -208.05208122 204.35447446 -203.9375 204.375 C-203.9996167 202.4578418 -203.9996167 202.4578418 -204.06298828 200.50195312 C-205.50418391 151.16960814 -184.07837976 103.83776004 -151.9375 67.375 C-151.21691406 66.53195313 -150.49632812 65.68890625 -149.75390625 64.8203125 C-145.476591 59.86763168 -140.94196386 55.5780676 -135.9375 51.375 C-135.02613281 50.56417969 -134.11476563 49.75335938 -133.17578125 48.91796875 C-96.39470847 16.41252542 -48.74476753 -0.11096188 0 0 Z " fill="#64B8FF" transform="translate(255.9375,51.625)"/>
</svg>
