<svg width="20" height="20" viewBox="0 0 20 20" fill="none" xmlns="http://www.w3.org/2000/svg">
<g clip-path="url(#clip0_92_2966)">
<path d="M14.5833 20C11.5966 20 9.16663 17.57 9.16663 14.5834C9.16663 11.5967 11.5966 9.16669 14.5833 9.16669C17.57 9.16669 20 11.5967 20 14.5834C20 17.57 17.57 20 14.5833 20ZM14.5833 10C12.0566 10 9.99996 12.0567 9.99996 14.5834C9.99996 17.11 12.0566 19.1667 14.5833 19.1667C17.11 19.1667 19.1666 17.11 19.1666 14.5834C19.1666 12.0567 17.11 10 14.5833 10Z" fill="black"/>
<path d="M14.5833 17.5C14.3533 17.5 14.1666 17.3134 14.1666 17.0834V12.0834C14.1666 11.8534 14.3533 11.6667 14.5833 11.6667C14.8133 11.6667 15 11.8534 15 12.0834V17.0834C15 17.3134 14.8133 17.5 14.5833 17.5Z" fill="black"/>
<path d="M17.0833 15H12.0833C11.8533 15 11.6666 14.8134 11.6666 14.5834C11.6666 14.3534 11.8533 14.1667 12.0833 14.1667H17.0833C17.3133 14.1667 17.5 14.3534 17.5 14.5834C17.5 14.8134 17.3133 15 17.0833 15Z" fill="black"/>
<path d="M7.7 16.6667H2.08333C0.934167 16.6667 0 15.7325 0 14.5833V2.08333C0 0.935 0.934167 0 2.08333 0H11.25C12.3992 0 13.3333 0.935 13.3333 2.08333V7.7C13.3333 7.93 13.1467 8.11667 12.9167 8.11667C12.6867 8.11667 12.5 7.93083 12.5 7.7V2.08333C12.5 1.39417 11.9392 0.833333 11.25 0.833333H2.08333C1.39417 0.833333 0.833333 1.39417 0.833333 2.08333V14.5833C0.833333 15.2725 1.39417 15.8333 2.08333 15.8333H7.7C7.93 15.8333 8.11667 16.02 8.11667 16.25C8.11667 16.48 7.93083 16.6667 7.7 16.6667Z" fill="black"/>
<path d="M4.16667 7.50002C3.2475 7.50002 2.5 6.75252 2.5 5.83335C2.5 4.91419 3.2475 4.16669 4.16667 4.16669C5.08583 4.16669 5.83333 4.91419 5.83333 5.83335C5.83333 6.75252 5.08583 7.50002 4.16667 7.50002ZM4.16667 5.00002C3.70667 5.00002 3.33333 5.37419 3.33333 5.83335C3.33333 6.29252 3.70667 6.66669 4.16667 6.66669C4.62667 6.66669 5 6.29252 5 5.83335C5 5.37419 4.62667 5.00002 4.16667 5.00002Z" fill="black"/>
<path d="M0.416631 12.9167C0.309964 12.9167 0.203298 12.8758 0.121631 12.795C-0.0408691 12.6325 -0.0408691 12.3683 0.121631 12.2058L2.02996 10.2975C2.49996 9.82583 3.33163 9.82583 3.80246 10.2975L4.99996 11.4942L9.11413 7.38C9.58413 6.90833 10.4158 6.90833 10.8866 7.38L11.545 8.03833C11.7075 8.20083 11.7075 8.46499 11.545 8.62749C11.3825 8.78999 11.1183 8.78999 10.9558 8.62749L10.2975 7.96916C10.14 7.81249 9.86163 7.81249 9.7033 7.96916L5.29496 12.3775C5.13246 12.54 4.8683 12.54 4.7058 12.3775L3.21413 10.8858C3.05663 10.7292 2.7783 10.7292 2.61996 10.8858L0.711631 12.7942C0.629964 12.8758 0.523298 12.9167 0.416631 12.9167Z" fill="black"/>
</g>
<defs>
<clipPath id="clip0_92_2966">
<rect width="20" height="20" fill="white"/>
</clipPath>
</defs>
</svg>
