<svg width="20" height="20" viewBox="0 0 20 20" fill="none" xmlns="http://www.w3.org/2000/svg">
<path d="M9.72259 14.8092C9.87721 14.6633 10.1286 14.6633 10.2832 14.8092L12.6758 17.0752H19.375C19.6095 17.0752 19.7998 17.2655 19.7998 17.5C19.7998 17.7346 19.6095 17.9248 19.375 17.9248H12.5C12.3872 17.9248 12.2797 17.8803 12.1992 17.8008L10.0024 15.6029L7.80078 17.7998C7.72053 17.88 7.61275 17.9248 7.5 17.9248H0.625C0.390457 17.9248 0.200195 17.7346 0.200195 17.5C0.200195 17.2655 0.390457 17.0752 0.625 17.0752H7.32422L9.72259 14.8092Z" fill="black"/>
<path d="M10.0024 3.69238C10.2489 3.69238 10.4831 3.70418 10.7308 3.72678L10.811 3.74226C10.8887 3.76572 10.9577 3.81178 11.0079 3.8747C11.0578 3.93748 11.0853 4.01299 11.0872 4.08969L11.0799 4.16709C11.0136 4.50261 10.9823 4.82963 10.9823 5.16723C10.9823 7.99548 13.4218 10.2969 16.4197 10.2969C16.7809 10.2969 17.1277 10.2676 17.478 10.2049L17.4771 10.2041C17.5886 10.1844 17.6991 10.2091 17.7888 10.272C17.8789 10.3352 17.9353 10.4285 17.9456 10.5317V10.5334C17.9707 10.7667 17.983 10.9877 17.983 11.2214C17.983 12.6539 17.5511 14.0554 16.7324 15.2744C16.6304 15.4265 16.4295 15.4855 16.2556 15.4241L16.1836 15.3905C15.9991 15.2791 15.9447 15.048 16.0615 14.8746L16.1955 14.6664C16.8461 13.6174 17.19 12.4316 17.19 11.2214V11.0064L16.9876 11.0228C16.8004 11.0377 16.6117 11.0451 16.4197 11.0451C12.9851 11.0451 10.1893 8.40854 10.1893 5.16723C10.1893 4.98723 10.1971 4.80926 10.213 4.63147L10.2303 4.44056H10.0024C6.03848 4.44056 2.81492 7.48172 2.81492 11.2214C2.81492 12.5133 3.20592 13.7758 3.94341 14.8737C4.06069 15.0481 4.00534 15.2783 3.82036 15.388L3.81762 15.3905C3.75442 15.4298 3.68186 15.4481 3.60979 15.4482C3.47707 15.4482 3.34847 15.3862 3.27343 15.2744C2.45355 14.0554 2.02188 12.6539 2.02188 11.2214C2.02188 7.06974 5.60179 3.69238 10.0024 3.69238Z" fill="black"/>
<path d="M10.1146 14.5331C10.1514 14.5399 10.1879 14.5498 10.223 14.5632L10.2221 14.5641C10.1871 14.5508 10.1512 14.5398 10.1146 14.5331Z" fill="black"/>
<path d="M9.89123 14.534C9.8177 14.5475 9.74619 14.5737 9.68157 14.614C9.71411 14.5937 9.74832 14.5767 9.78367 14.5632C9.81859 14.5499 9.85466 14.5407 9.89123 14.534Z" fill="black"/>
</svg>
