<svg width="18" height="18" viewBox="0 0 18 18" fill="none" xmlns="http://www.w3.org/2000/svg">
<path d="M9 16.5C13.1421 16.5 16.5 13.1421 16.5 9C16.5 4.85786 13.1421 1.5 9 1.5C4.85786 1.5 1.5 4.85786 1.5 9C1.5 13.1421 4.85786 16.5 9 16.5Z" fill="#65BE00"/>
<path d="M7.93703 11.6852C7.78703 11.6852 7.64453 11.6252 7.53953 11.5202L5.41703 9.39769C5.19953 9.18019 5.19953 8.8202 5.41703 8.6027C5.63453 8.3852 5.99453 8.3852 6.21203 8.6027L7.93703 10.3277L11.792 6.4727C12.0095 6.2552 12.3695 6.2552 12.587 6.4727C12.8045 6.6902 12.8045 7.05019 12.587 7.26769L8.33453 11.5202C8.22953 11.6252 8.08703 11.6852 7.93703 11.6852Z" fill="white"/>
</svg>
