<svg width="20" height="20" viewBox="0 0 20 20" fill="none" xmlns="http://www.w3.org/2000/svg">
<path d="M2.24048 5.58713C2.10451 5.26986 1.73708 5.12289 1.41982 5.25886C1.10255 5.39483 0.955578 5.76226 1.09155 6.07953L1.66602 5.83333L2.24048 5.58713ZM12.9887 11.1072L12.7598 10.5257L12.7598 10.5257L12.9887 11.1072ZM7.53389 11.4481C7.72215 11.1588 7.64021 10.7716 7.35089 10.5834C7.06157 10.3951 6.67441 10.4771 6.48616 10.7664L7.01002 11.1072L7.53389 11.4481ZM5.30882 12.5758C5.12056 12.8651 5.20249 13.2523 5.49182 13.4405C5.78114 13.6288 6.16829 13.5469 6.35655 13.2575L5.83268 12.9167L5.30882 12.5758ZM18.9071 6.07953C19.0431 5.76226 18.8961 5.39483 18.5789 5.25886C18.2616 5.12289 17.8942 5.26986 17.7582 5.58713L18.3327 5.83333L18.9071 6.07953ZM15.8327 9.27403L15.4049 8.81832L15.4049 8.81832L15.8327 9.27403ZM16.6407 10.966C16.8848 11.21 17.2805 11.21 17.5246 10.966C17.7687 10.7219 17.7687 10.3262 17.5246 10.0821L17.0827 10.524L16.6407 10.966ZM9.37435 13.75C9.37435 14.0952 9.65417 14.375 9.99935 14.375C10.3445 14.375 10.6243 14.0952 10.6243 13.75H9.99935H9.37435ZM13.6421 13.2575C13.8304 13.5469 14.2176 13.6288 14.5069 13.4405C14.7962 13.2523 14.8781 12.8651 14.6899 12.5758L14.166 12.9167L13.6421 13.2575ZM4.60796 9.71597C4.85203 9.47189 4.85203 9.07616 4.60796 8.83208C4.36388 8.58801 3.96815 8.58801 3.72407 8.83208L4.16602 9.27403L4.60796 9.71597ZM2.47407 10.0821C2.23 10.3262 2.23 10.7219 2.47407 10.966C2.71815 11.21 3.11388 11.21 3.35796 10.966L2.91602 10.524L2.47407 10.0821ZM9.99935 11.6667V11.0417C7.31277 11.0417 5.38379 9.70383 4.10318 8.32471C3.46306 7.63535 2.99372 6.94403 2.68484 6.42511C2.53076 6.16624 2.41757 5.95192 2.34385 5.80447C2.30701 5.73079 2.28009 5.67395 2.26291 5.63676C2.25432 5.61816 2.24818 5.6045 2.24444 5.5961C2.24258 5.59191 2.24132 5.58903 2.24066 5.58752C2.24033 5.58677 2.24015 5.58635 2.24012 5.58628C2.2401 5.58625 2.24013 5.5863 2.24019 5.58644C2.24022 5.58651 2.24029 5.58669 2.24031 5.58672C2.24039 5.58691 2.24048 5.58713 1.66602 5.83333C1.09155 6.07953 1.09166 6.07979 1.09178 6.08007C1.09184 6.08019 1.09197 6.0805 1.09207 6.08074C1.09229 6.08124 1.09254 6.08182 1.09283 6.0825C1.09341 6.08384 1.09415 6.08554 1.09504 6.08759C1.09683 6.09169 1.09924 6.09718 1.10229 6.10402C1.10837 6.1177 1.11697 6.13679 1.12812 6.16092C1.15041 6.20918 1.1829 6.27766 1.22581 6.36349C1.31159 6.53504 1.4393 6.77646 1.61073 7.06446C1.95289 7.6393 2.47314 8.4063 3.18719 9.17528C4.61491 10.7128 6.85259 12.2917 9.99935 12.2917V11.6667ZM12.9887 11.1072L12.7598 10.5257C11.9511 10.844 11.0341 11.0417 9.99935 11.0417V11.6667V12.2917C11.1979 12.2917 12.2698 12.0619 13.2176 11.6888L12.9887 11.1072ZM7.01002 11.1072L6.48616 10.7664L5.30882 12.5758L5.83268 12.9167L6.35655 13.2575L7.53389 11.4481L7.01002 11.1072ZM18.3327 5.83333C17.7582 5.58713 17.7583 5.587 17.7583 5.58688C17.7583 5.58685 17.7584 5.58674 17.7584 5.58668C17.7585 5.58656 17.7585 5.58646 17.7585 5.5864C17.7586 5.58626 17.7586 5.58624 17.7586 5.58632C17.7585 5.58649 17.7582 5.5871 17.7578 5.58813C17.7569 5.59019 17.7552 5.59395 17.7528 5.59936C17.748 5.61018 17.7401 5.62757 17.7292 5.65103C17.7073 5.69797 17.6732 5.76912 17.6265 5.86055C17.5332 6.04355 17.3902 6.30692 17.1955 6.61933C16.8051 7.24596 16.2129 8.05997 15.4049 8.81832L15.8327 9.27403L16.2604 9.72973C17.168 8.8779 17.8258 7.97156 18.2564 7.28038C18.4723 6.9339 18.6327 6.639 18.7401 6.42846C18.7938 6.32312 18.8344 6.23868 18.8621 6.17922C18.8759 6.14949 18.8866 6.12597 18.8941 6.1092C18.8979 6.10081 18.9008 6.0941 18.903 6.08913C18.9041 6.08665 18.905 6.0846 18.9057 6.083C18.906 6.0822 18.9063 6.08151 18.9065 6.08093C18.9067 6.08064 18.9068 6.08038 18.9069 6.08014C18.9069 6.08003 18.907 6.07987 18.907 6.07981C18.9071 6.07967 18.9071 6.07953 18.3327 5.83333ZM15.8327 9.27403L15.4049 8.81832C14.6891 9.4902 13.8109 10.1119 12.7598 10.5257L12.9887 11.1072L13.2176 11.6888C14.4456 11.2055 15.4549 10.4858 16.2604 9.72973L15.8327 9.27403ZM15.8327 9.27403L15.3907 9.71597L16.6407 10.966L17.0827 10.524L17.5246 10.0821L16.2746 8.83209L15.8327 9.27403ZM9.99935 11.6667H9.37435V13.75H9.99935H10.6243V11.6667H9.99935ZM12.9887 11.1072L12.4648 11.4481L13.6421 13.2575L14.166 12.9167L14.6899 12.5758L13.5125 10.7664L12.9887 11.1072ZM4.16602 9.27403L3.72407 8.83208L2.47407 10.0821L2.91602 10.524L3.35796 10.966L4.60796 9.71597L4.16602 9.27403Z" fill="#C8C8C8"/>
</svg>
