<svg width="21" height="20" viewBox="0 0 21 20" fill="none" xmlns="http://www.w3.org/2000/svg">
<path d="M3.08333 0C1.84958 0 0.833332 1.01625 0.833332 2.25V15.25C0.833332 16.4838 1.84958 17.5 3.08333 17.5H16.0833C17.3171 17.5 18.3333 16.4838 18.3333 15.25V2.25C18.3333 1.01625 17.3171 0 16.0833 0H3.08333ZM3.08333 1.5H16.0833C16.5066 1.5 16.8333 1.82675 16.8333 2.25V15.25C16.8333 15.6732 16.5066 16 16.0833 16H3.08333C2.66008 16 2.33333 15.6732 2.33333 15.25V2.25C2.33333 1.82675 2.66008 1.5 3.08333 1.5ZM19.3333 2.6377V15.75C19.3333 17.266 18.0998 18.5 16.5833 18.5H3.47103C3.78153 19.371 4.60683 20 5.58333 20H16.5833C18.9268 20 20.8333 18.0935 20.8333 15.75V4.75C20.8333 3.7735 20.2043 2.9487 19.3333 2.6377ZM13.0687 5.49316C12.8739 5.49884 12.689 5.5801 12.5531 5.71973L8.58333 9.68945L7.11361 8.21973C7.0445 8.14775 6.96172 8.09028 6.87012 8.0507C6.77853 8.01111 6.67995 7.99019 6.58017 7.98918C6.4804 7.98817 6.38142 8.00707 6.28903 8.04479C6.19665 8.08251 6.11272 8.13828 6.04217 8.20883C5.97161 8.27939 5.91584 8.36332 5.87812 8.4557C5.8404 8.54808 5.8215 8.64706 5.82251 8.74684C5.82353 8.84662 5.84444 8.9452 5.88403 9.03679C5.92362 9.12839 5.98108 9.21116 6.05306 9.28027L8.05306 11.2803C8.19372 11.4209 8.38445 11.4999 8.58333 11.4999C8.78221 11.4999 8.97295 11.4209 9.11361 11.2803L13.6136 6.78027C13.7218 6.6749 13.7957 6.53931 13.8255 6.39126C13.8554 6.2432 13.8399 6.08958 13.781 5.9505C13.7221 5.81141 13.6226 5.69335 13.4955 5.61175C13.3684 5.53015 13.2197 5.48882 13.0687 5.49316Z" fill="#212529"/>
</svg>
