<svg width="20" height="20" viewBox="0 0 20 20" fill="none" xmlns="http://www.w3.org/2000/svg">
<path d="M10.1667 0C9.38662 0 8.63452 0.0997142 7.91652 0.268555C7.7668 0.303878 7.63162 0.385336 7.52968 0.501671C7.42774 0.618005 7.36407 0.763473 7.34746 0.917969L7.18998 2.36914C7.13848 2.84468 6.86671 3.26543 6.45668 3.50488C6.04747 3.74386 5.55076 3.77033 5.11761 3.57812H5.11665L3.79787 2.99121C3.6572 2.92864 3.50079 2.91176 3.35022 2.9429C3.19966 2.97403 3.06237 3.05165 2.95732 3.16504C1.93214 4.26979 1.14532 5.60753 0.698491 7.10059C0.653982 7.24919 0.656194 7.40809 0.704821 7.55537C0.753448 7.70265 0.846093 7.83105 0.969976 7.92285L2.13997 8.79004C2.52203 9.07396 2.74671 9.5214 2.74671 10C2.74671 10.4789 2.52203 10.9267 2.13997 11.21L0.969976 12.0762C0.846093 12.168 0.753448 12.2964 0.704821 12.4437C0.656194 12.5909 0.653982 12.7498 0.698491 12.8984C1.14528 14.3913 1.93146 15.7301 2.95732 16.835C3.06249 16.9482 3.19983 17.0256 3.35038 17.0566C3.50094 17.0875 3.6573 17.0705 3.79787 17.0078L5.11665 16.4209C5.55001 16.2283 6.04718 16.256 6.45668 16.4951C6.86671 16.7346 7.13848 17.1553 7.18998 17.6309L7.34746 19.082C7.3642 19.2362 7.42781 19.3814 7.52955 19.4975C7.63129 19.6136 7.76615 19.695 7.91555 19.7305C8.63388 19.8999 9.38662 20 10.1667 20C10.9467 20 11.6988 19.9003 12.4168 19.7314C12.5665 19.6961 12.7017 19.6147 12.8036 19.4983C12.9056 19.382 12.9692 19.2365 12.9859 19.082L13.1433 17.6309C13.1948 17.1553 13.4666 16.7346 13.8766 16.4951C14.2858 16.2561 14.7825 16.2287 15.2157 16.4209L16.5354 17.0078C16.676 17.0705 16.8324 17.0875 16.9829 17.0566C17.1335 17.0256 17.2708 16.9482 17.376 16.835C18.4012 15.7302 19.188 14.3915 19.6348 12.8984C19.6793 12.7498 19.6771 12.5909 19.6285 12.4437C19.5799 12.2964 19.4872 12.168 19.3633 12.0762L18.1933 11.21C17.8113 10.9267 17.5866 10.4789 17.5866 10C17.5866 9.52114 17.8113 9.07333 18.1933 8.79004L19.3633 7.92383C19.4872 7.83203 19.5799 7.70363 19.6285 7.55635C19.6771 7.40907 19.6793 7.25017 19.6348 7.10156C19.188 5.60851 18.4012 4.26979 17.376 3.16504C17.2708 3.05182 17.1335 2.97438 16.9829 2.94342C16.8324 2.91246 16.676 2.9295 16.5354 2.99219L15.2157 3.5791C14.7825 3.77131 14.2858 3.74386 13.8766 3.50488C13.4666 3.26543 13.1948 2.84468 13.1433 2.36914L12.9859 0.917969C12.9691 0.763777 12.9055 0.618621 12.8038 0.502492C12.702 0.386363 12.5672 0.304974 12.4178 0.269531C11.6994 0.100078 10.9467 0 10.1667 0ZM10.1667 1.5C10.6486 1.5 11.1114 1.58744 11.5753 1.66992L11.668 2.53223C11.7709 3.48169 12.3169 4.32617 13.1346 4.80371C13.9529 5.28157 14.9491 5.3365 15.8137 4.95215L16.5982 4.60352C17.2007 5.3347 17.6776 6.16059 18.0107 7.06543L17.3151 7.58105C16.5535 8.14576 16.1026 9.04485 16.1026 10C16.1026 10.9551 16.5535 11.8542 17.3151 12.4189L18.0107 12.9346C17.6776 13.8394 17.2007 14.6653 16.5982 15.3965L15.8137 15.0479C14.9491 14.6635 13.9529 14.7184 13.1346 15.1963C12.3169 15.6738 11.7709 16.5183 11.668 17.4678L11.5753 18.3301C11.1115 18.4123 10.6484 18.5 10.1667 18.5C9.6847 18.5 9.22189 18.4126 8.75803 18.3301L8.66528 17.4678C8.56244 16.5183 8.0164 15.6738 7.19868 15.1963C6.38042 14.7184 5.3842 14.6635 4.51957 15.0479L3.73507 15.3965C3.13253 14.6654 2.65566 13.8395 2.32257 12.9346L3.01819 12.4189C3.77979 11.8542 4.2307 10.9551 4.2307 10C4.2307 9.04485 3.77942 8.14518 3.01819 7.58008L2.32257 7.06445C2.65585 6.15927 3.13326 5.33392 3.73603 4.60254L4.51957 4.95117C5.3842 5.33553 6.38042 5.28157 7.19868 4.80371C8.0164 4.32617 8.56244 3.48169 8.66528 2.53223L8.75803 1.66992C9.22185 1.58767 9.68494 1.5 10.1667 1.5ZM10.1667 6C7.98988 6 6.20935 7.79975 6.20935 10C6.20935 12.2003 7.98988 14 10.1667 14C12.3434 14 14.124 12.2003 14.124 10C14.124 7.79975 12.3434 6 10.1667 6ZM10.1667 7.5C11.5414 7.5 12.64 8.6104 12.64 10C12.64 11.3896 11.5414 12.5 10.1667 12.5C8.79189 12.5 7.69334 11.3896 7.69334 10C7.69334 8.6104 8.79189 7.5 10.1667 7.5Z" fill="black"/>
</svg>
