<svg height="512" width="512" xmlns="http://www.w3.org/2000/svg"><path d="m0 0c1.01790619.00215515 2.03581238.0043103 3.08456421.00653076 14.60907102.0496707 28.94119432.30056733 43.29043579 3.30596924.97485352.19867676 1.94970703.39735352 2.95410156.60205078 48.38187584 10.12062116 92.37018113 32.03713692 128.04589844 66.39794922.9890332.94818604.9890332.94818604 1.99804688 1.91552734 9.48825617 9.14444745 18.22815752 18.44181275 26.00195312 29.08447266.85806152 1.15105017 1.71613451 2.30209177 2.57421875 3.453125 6.03755521 8.18963481 11.42035427 16.69225776 16.42578125 25.546875.4021875.70721191.804375 1.41442383 1.21875 2.14306641 13.0254241 23.13539195 21.77426461 48.30655768 27.09375 74.29443359.14735596.71889404.29471191 1.43778809.4465332 2.1784668 2.97385768 15.64628929 3.61397042 31.11971366 3.5534668 47.0090332-.00215515 1.01790619-.0043103 2.03581238-.00653076 3.08456421-.0496707 14.60907102-.30056733 28.94119432-3.30596924 43.29043579-.29801514 1.46228027-.29801514 1.46228027-.60205078 2.95410156-10.12062116 48.38187584-32.03713692 92.37018113-66.39794922 128.04589844-.63212402.65935547-1.26424805 1.31871094-1.91552734 1.99804688-9.14444745 9.48825617-18.44181275 18.22815752-29.08447266 26.00195312-1.15105017.85806152-2.30209177 1.71613451-3.453125 2.57421875-8.18963481 6.03755521-16.69225776 11.42035427-25.546875 16.42578125-.70721191.4021875-1.41442383.804375-2.14306641 1.21875-23.13539195 13.0254241-48.30655768 21.77426461-74.29443359 27.09375-.71889404.14735596-1.43778809.29471191-2.1784668.4465332-15.64628929 2.97385768-31.11971366 3.61397042-47.0090332 3.5534668-1.52685928-.00323273-1.52685928-.00323273-3.08456421-.00653076-14.60907102-.0496707-28.94119432-.30056733-43.29043579-3.30596924-1.46228027-.29801514-1.46228027-.29801514-2.95410156-.60205078-43.26971368-9.05124848-83.47109178-27.43565593-117.04589844-56.39794922-.74507813-.63421875-1.49015625-1.2684375-2.2578125-1.921875-13.50498583-11.81114015-26.17637493-24.56172728-36.7421875-39.078125-.85649066-1.14994831-1.71326433-2.29968589-2.5703125-3.44921875-6.04002959-8.19012383-11.42336364-16.69457743-16.4296875-25.55078125-.4021875-.70721191-.804375-1.41442383-1.21875-2.14306641-13.0254241-23.13539195-21.77426461-48.30655768-27.09375-74.29443359-.14735596-.71889404-.29471191-1.43778809-.4465332-2.1784668-2.97385768-15.64628929-3.61397042-31.11971366-3.5534668-47.0090332.00215515-1.01790619.0043103-2.03581238.00653076-3.08456421.0496707-14.60907102.30056733-28.94119432 3.30596924-43.29043579.19867676-.97485352.39735352-1.94970703.60205078-2.95410156 10.12062116-48.38187584 32.03713692-92.37018113 66.39794922-128.04589844.63212402-.65935547 1.26424805-1.31871094 1.91552734-1.99804688 9.14444745-9.48825617 18.44181275-18.22815752 29.08447266-26.00195312 1.15105017-.85806152 2.30209177-1.71613451 3.453125-2.57421875 8.18963481-6.03755521 16.69225776-11.42035427 25.546875-16.42578125.70721191-.4021875 1.41442383-.804375 2.14306641-1.21875 23.13539195-13.0254241 48.30655768-21.77426461 74.29443359-27.09375.71889404-.14735596 1.43778809-.29471191 2.1784668-.4465332 15.64628929-2.97385768 31.11971366-3.61397042 47.0090332-3.5534668z" fill="#feda44" transform="translate(255.625 -.3125)"/><path d="m0 0c4.52293881.86734294 6.87884742 3.46528333 10.02074051 6.65159702.60229966.59883813 1.20459932 1.19767626 1.82515049 1.814661 2.03197992 2.02399048 4.05301515 4.0585739 6.07433605 6.09320548 1.46299104 1.46168375 2.92664077 2.92270847 4.39089465 4.38312715 4.03389698 4.02716516 8.05834033 8.06366516 12.08135915 12.10169334 4.33539213 4.3483094 8.67941102 8.68798497 13.02240562 13.0286988 7.52737936 7.52580389 15.04928287 15.05704078 22.56739045 22.59210396 7.88644446 7.9041852 15.77597404 15.80526979 23.66966247 23.70222091.4904918.49069802.98098361.98139604 1.48633879 1.4869637 2.49089601 2.49191098 4.98184744 4.98376657 7.4728202 7.47560082 17.65126342 17.65756751 35.29555873 35.32208285 52.93577662 52.99068446 17.13905872 17.16660424 34.28126011 34.33006028 51.42773438 51.48925781.79255453.7931464.79255453.7931464 1.60112026 1.60231596 5.30602675 5.30998226 10.61211755 10.61990051 15.91825528 15.92977186 10.80956616 10.81717515 21.61870476 21.6347775 32.4275849 32.45263814.49699392.49740578.99398784.99481157 1.50604218 1.50729026 33.1979589 33.22556882 66.38591739 66.46112615 99.572388 99.69816933-3.23066715 3.34164925-6.56725185 5.7828122-10.5625 8.125-.65419922.38542969-1.30839844.77085937-1.98242188 1.16796875-2.14392192 1.24978391-4.29710416 2.48168024-6.45507812 3.70703125-.72171387.41088867-1.44342773.82177734-2.18701172 1.24511719-23.11929324 13.01447541-48.2823526 21.75193807-74.25048828 27.06738281-.71889404.14735596-1.43778809.29471191-2.1784668.4465332-15.64628929 2.97385768-31.11971366 3.61397042-47.0090332 3.5534668-1.01790619-.00215515-2.03581238-.0043103-3.08456421-.00653076-14.60907102-.0496707-28.94119432-.30056733-43.29043579-3.30596924-1.46228027-.29801514-1.46228027-.29801514-2.95410156-.60205078-43.26971368-9.05124848-83.47109178-27.43565593-117.04589844-56.39794922-.74507813-.63421875-1.49015625-1.2684375-2.2578125-1.921875-13.50498583-11.81114015-26.17637493-24.56172728-36.7421875-39.078125-.85649066-1.14994831-1.71326433-2.29968589-2.5703125-3.44921875-6.04002959-8.19012383-11.42336364-16.69457743-16.4296875-25.55078125-.4021875-.70721191-.804375-1.41442383-1.21875-2.14306641-13.0254241-23.13539195-21.77426461-48.30655768-27.09375-74.29443359-.14735596-.71889404-.29471191-1.43778809-.4465332-2.1784668-2.97385768-15.64628929-3.61397042-31.11971366-3.5534668-47.0090332.00215515-1.01790619.0043103-2.03581238.00653076-3.08456421.0496707-14.60907102.30056733-28.94119432 3.30596924-43.29043579.19867676-.97485352.39735352-1.94970703.60205078-2.95410156 7.10132483-33.9480562 19.72795157-66.3663508 39.39794922-95.04589844z" fill="#0153b4" transform="translate(43 112)"/><path d="m0 0c3.4025856 1.7012928 4.51611968 2.26173111 6.7421875 4.95703125.50168701.6069873 1.00337402 1.21397461 1.52026367 1.83935547.53214112.66531738 1.06428223 1.33063476 1.61254883 2.01611328.56372314.70141113 1.12744629 1.40282227 1.70825195 2.12548828 26.55028556 33.64230976 44.54501169 72.92182549 52.41674805 115.06201172.24339111 1.2075293.24339111 1.2075293.49169922 2.43945312 5.47285583 27.99120072 5.35422668 61.64927084-.49169922 89.56054688-.19867676.97485352-.39735352 1.94970703-.60205078 2.95410156-9.07461134 43.38140042-27.51937928 81.73039755-55.39794922 116.04589844-.64453125.80050781-1.2890625 1.60101563-1.953125 2.42578125-1.2961626 1.56986684-2.66160634 3.08239097-4.046875 4.57421875-.66 0-1.32 0-2 0 0-113.52 0-227.04 0-344z" fill="#0454b2" transform="translate(445 84)"/><path d="m0 0h2c1.17400588 3.43503772 2.33793209 6.87340714 3.5 10.3125.33386719.97646484.66773438 1.95292969 1.01171875 2.95898438.31582031.93779296.63164062 1.87558593.95703125 2.84179687.29326172.86407471.58652344 1.72814941.88867188 2.6184082.64257812 2.26831055.64257812 2.26831055.64257812 5.26831055h27c-2.53198908 2.53198908-4.53472831 4.52709927-7.34765625 6.54296875-.60521484.43376953-1.21042969.86753906-1.83398437 1.31445313-.9310254.65838867-.9310254.65838867-1.88085938 1.33007812-.62455078.45052734-1.24910156.90105469-1.89257812 1.36523438-2.66017308 1.8936344-4.92926761 3.4087142-8.04492188 4.44726562.31807617.97610229.31807617.97610229.64257812 1.97192383.95700189 2.94540993 1.9072833 5.89294547 2.85742188 8.84057617.33386719 1.02416016.66773438 2.04832031 1.01171875 3.10351562.31582031.98291016.63164062 1.96582032.95703125 2.97851563.29326172.90596924.58652344 1.81193848.88867188 2.74536133.64257812 2.36010742.64257812 2.36010742.64257812 5.36010742-5.69415647-1.79584935-9.92025545-5.64022872-14.47265625-9.36328125-3.58499244-2.95807877-3.58499244-2.95807877-7.9765625-3.34765625-3.71878654 2.49437749-7.31599661 5.10335541-10.86328125 7.8359375-.74056641.56332031-1.48113281 1.12664062-2.24414062 1.70703125-1.81837547 1.38431164-3.63260612 2.77371101-5.44335938 4.16796875-1.06770943-3.22259057-.93577225-5.01418416.21484375-8.1875.41088867-1.17175781.41088867-1.17175781.83007813-2.3671875.29455078-.80695313.58910156-1.61390625.89257812-2.4453125.57714501-1.60218525 1.14896359-3.20630152 1.71484375-4.8125.25773193-.70769531.51546387-1.41539062.78100586-2.14453125.74483413-2.33203256.74483413-2.33203256.56665039-6.04296875-1.74421125-1.72590199-1.74421125-1.72590199-4.12109375-3.1640625-.85271484-.56460938-1.70542969-1.12921875-2.58398437-1.7109375-.90169922-.5775-1.80339844-1.155-2.73242188-1.75-1.77201459-1.1550533-3.54167453-2.31372962-5.30859375-3.4765625-.79075928-.50869629-1.58151855-1.01739258-2.39624023-1.54150391-1.85766602-1.35693359-1.85766602-1.35693359-2.85766602-3.35693359h27l2-9c.83962804-2.70970868 1.69742373-5.38493247 2.625-8.0625.22945312-.67482422.45890625-1.34964844.6953125-2.04492188.55567714-1.63230161 1.1170547-3.26266095 1.6796875-4.89257812z" fill="#e8eaee" transform="translate(133 235)"/><path d="m0 0c2.2534872 2.2534872 2.73648451 3.71974454 3.7265625 6.71875.309375.93199219.61875 1.86398437.9375 2.82421875.31710937.97582031.63421875 1.95164062.9609375 2.95703125.48726563 1.46373047.48726563 1.46373047.984375 2.95703125 2.390625 7.26227679 2.390625 7.26227679 2.390625 9.54296875h26c-5.625 5.625-5.625 5.625-8.76953125 7.89453125-.66064453.48017578-1.32128906.96035156-2.00195313 1.45507813-.67353515.4827539-1.34707031.96550781-2.04101562 1.46289062-1.03930664.75313477-1.03930664.75313477-2.09960938 1.52148438-1.69306753 1.22601442-3.39007818 2.44658052-5.08789062 3.66601562.2172876.65073486.4345752 1.30146973.65844727 1.97192383.97726496 2.94388259 1.94079266 5.89208295 2.90405273 8.84057617.34224609 1.02416016.68449219 2.04832031 1.03710938 3.10351562.31904296.98291016.63808593 1.96582032.96679687 2.97851563.4477478 1.35895386.4477478 1.35895386.90454102 2.74536133.52905273 2.36010742.52905273 2.36010742-.47094727 5.36010742-.54938232-.4345752-1.09876465-.86915039-1.66479492-1.31689453-2.49323841-1.95516155-5.00725849-3.88161465-7.52270508-5.80810547-1.29647461-1.02673828-1.29647461-1.02673828-2.61914062-2.07421875-.84111329-.63808594-1.68222657-1.27617187-2.54882813-1.93359375-.76981201-.59699707-1.53962402-1.19399414-2.33276367-1.80908203-2.29891985-1.34424929-2.29891985-1.34424929-4.85717774-.41357422-2.28981211 1.26447552-4.31166212 2.5690341-6.37255859 4.17578125-.69673828.53496094-1.39347656 1.06992187-2.11132813 1.62109375-1.06831054.83337891-1.06831054.83337891-2.15820312 1.68359375-1.42763769 1.11109113-2.85847485 2.21808742-4.29296875 3.3203125-.62801514.49000488-1.25603027.98000977-1.90307617 1.48486328-1.61645508 1.06982422-1.61645508 1.06982422-3.61645508 1.06982422 2.25396835-8.814299 5.0624369-17.39630728 8-26-.68835938-.22816406-1.37671875-.45632813-2.0859375-.69140625-3.57990151-1.60759652-6.4829914-3.82844847-9.5390625-6.24609375-.57234375-.44279297-1.1446875-.88558594-1.734375-1.34179688-2.72165146-2.12352108-5.19461621-4.27469433-7.640625-6.72070312h27c.33-2.31.66-4.62 1-7 .42193647-1.55423345.88755151-3.09775653 1.41015625-4.62109375.26748047-.78955078.53496094-1.57910156.81054687-2.39257813.41668946-1.19979492.41668946-1.19979492.84179688-2.42382812.28166016-.82693359.56332031-1.65386719.85351562-2.50585938.6891623-2.020764 1.38580748-4.03897344 2.08398438-6.05664062z" fill="#e8ebee" transform="translate(299 401)"/><g fill="#eaecee"><path d="m0 0c2.52469829 3.78704743 3.70459736 7.63891305 5.125 11.9375.27714844.81146484.55429688 1.62292969.83984375 2.45898438.39251953 1.17852539.39251953 1.17852539.79296875 2.38085937.2386377.71406006.47727539 1.42812012.72314453 2.16381836.51904297 2.05883789.51904297 2.05883789.51904297 6.05883789h26c-5.625 5.625-5.625 5.625-8.55078125 7.67578125-.61552734.43505859-1.23105469.87011719-1.86523437 1.31835937-.93875977.6525879-.93875977.6525879-1.89648438 1.31835938-.64517578.45439453-1.29035156.90878906-1.95507812 1.37695312-1.5743933 1.1079064-3.15297834 2.20985213-4.73242188 3.31054688 1.26782009 6.33910045 3.04929214 12.23571903 5.29296875 18.30078125.74450311 2.84227432.51925242 3.96594331-.29296875 6.69921875-2.25042262-1.60357654-4.50035059-3.20783936-6.75-4.8125-.63421875-.45181641-1.2684375-.90363281-1.921875-1.36914062-.61875-.44150391-1.2375-.88300782-1.875-1.33789063-.60392578-.42619629-1.20785156-.85239258-1.83007812-1.29150391-1.62304688-1.18896484-1.62304688-1.18896484-3.76367188-3.07568359-1.83332655-1.31515054-1.83332655-1.31515054-4.203125-1.10546875-3.55964967 1.32963385-6.24998853 3.48688518-9.15625 5.8671875-3.69842728 2.97762011-7.35125919 5.7874632-11.5 8.125 1.67409938-8.67487859 4.02854857-18.05709713 8-26-.68835938-.22816406-1.37671875-.45632813-2.0859375-.69140625-3.57990151-1.60759652-6.4829914-3.82844847-9.5390625-6.24609375-.57234375-.44279297-1.1446875-.88558594-1.734375-1.34179688-2.72165146-2.12352108-5.19461621-4.27469433-7.640625-6.72070312h26l3-12c.67445332-2.23965016 1.37381943-4.47240454 2.125-6.6875.33257812-.99386719.66515625-1.98773438 1.0078125-3.01171875.8671875-2.30078125.8671875-2.30078125 1.8671875-3.30078125z" transform="translate(189 290)"/><path d="m0 0c2.32431618 2.32431618 2.75875528 3.88932258 3.7265625 7.0078125.41886475 1.33248779.41886475 1.33248779.84619141 2.69189453.34724121 1.13034668.69448242 2.26069336 1.05224609 3.42529297 1.11375 3.58875 2.2275 7.1775 3.375 10.875 8.25.33 16.5.66 25 1-5.625 5.625-5.625 5.625-8.55078125 7.67578125-.61552734.43505859-1.23105469.87011719-1.86523437 1.31835937-.93875977.6525879-.93875977.6525879-1.89648438 1.31835938-.64517578.45439453-1.29035156.90878906-1.95507812 1.37695312-1.5743933 1.1079064-3.15297834 2.20985213-4.73242188 3.31054688 1.80830412 6.95923101 3.87183784 13.77319588 6.23046875 20.56640625.76953125 2.43359375.76953125 2.43359375.76953125 4.43359375-2.9115281-1.37583975-5.48765528-2.95333027-8.109375-4.8203125-.75410156-.53496094-1.50820313-1.06992187-2.28515625-1.62109375-.77730469-.55558594-1.55460937-1.11117187-2.35546875-1.68359375-.79277344-.56332031-1.58554688-1.12664062-2.40234375-1.70703125-1.95099701-1.3868533-3.90013213-2.77624489-5.84765625-4.16796875-6.37091875 3.91781732-12.44306509 7.95948394-18.22265625 12.71484375-1.77734375 1.28515625-1.77734375 1.28515625-3.77734375 1.28515625 2.25131389-8.35715006 4.60785814-16.68214634 7-25-.54003662-.38333496-1.08007324-.76666992-1.63647461-1.16162109-2.43681971-1.73342137-4.86895489-3.4733013-7.30102539-5.21337891-.85013672-.60328125-1.70027344-1.2065625-2.57617188-1.828125-.80888671-.58007812-1.61777343-1.16015625-2.45117187-1.7578125-.74886475-.53415527-1.49772949-1.06831055-2.26928711-1.61865234-1.76586914-1.42041016-1.76586914-1.42041016-2.76586914-3.42041016h26l1-8c.55664062-2.36108398.55664062-2.36108398 1.15625-4.24609375.21785156-.69158203.43570313-1.38316406.66015625-2.09570313.22558594-.69158203.45117187-1.38316406.68359375-2.09570312.22558594-.71865234.45117188-1.43730469.68359375-2.17773438 1.67282312-5.24118249 1.67282312-5.24118249 2.81640625-6.38476562z" transform="translate(244 346)"/><path d="m0 0c2 1 2 1 2.86962891 2.99365234.28278808.85545411.56557617 1.71090821.85693359 2.59228516.309375.93070313.61875 1.86140625.9375 2.8203125.47566406 1.46953125.47566406 1.46953125.9609375 2.96875.32484375.97195312.6496875 1.94390625.984375 2.9453125 2.390625 7.27232143 2.390625 7.27232143 2.390625 10.6796875h25c-5.625 5.625-5.625 5.625-8.55078125 7.67578125-.61552734.43505859-1.23105469.87011719-1.86523437 1.31835937-.93875977.6525879-.93875977.6525879-1.89648438 1.31835938-.64517578.45439453-1.29035156.90878906-1.95507812 1.37695312-1.5743933 1.1079064-3.15297834 2.20985213-4.73242188 3.31054688.2172876.65073486.4345752 1.30146973.65844727 1.97192383.97726496 2.94388259 1.94079266 5.89208295 2.90405273 8.84057617.34224609 1.02416016.68449219 2.04832031 1.03710938 3.10351562.31904296.98291016.63808593 1.96582032.96679687 2.97851563.4477478 1.35895386.4477478 1.35895386.90454102 2.74536133.52905273 2.36010742.52905273 2.36010742-.47094727 5.36010742-.4940332-.35304199-.98806641-.70608398-1.49707031-1.06982422-2.24891659-1.60463523-4.50088106-3.2049396-6.75292969-4.80517578-.77730469-.55558594-1.55460937-1.11117187-2.35546875-1.68359375-.75410156-.53496094-1.50820312-1.06992188-2.28515625-1.62109375-.69125977-.49226074-1.38251953-.98452148-2.09472656-1.49169922-1.94767425-1.28444538-3.90719028-2.33273599-6.01464844-3.32861328-.45850342.34780518-.91700684.69561035-1.3894043 1.05395508-2.09743075 1.58875417-4.19772975 3.17367348-6.2980957 4.75854492-.72123047.54720703-1.44246094 1.09441406-2.18554688 1.65820312-3.60919496 2.71925649-7.17915171 5.31011857-11.12695312 7.52929688 1.70935701-6.69498161 3.69443195-13.0988022 6.328125-19.4921875.80578613-3.00764359.59518762-4.5440159-.328125-7.5078125-1.75020395-1.83362067-1.75020395-1.83362067-4.03515625-3.296875-.80888672-.56589844-1.61777344-1.13179687-2.45117187-1.71484375-1.27520508-.86044922-1.27520508-.86044922-2.57617188-1.73828125-1.68011156-1.15895997-3.35859633-2.32028312-5.03515625-3.484375-1.12160522-.76135254-1.12160522-.76135254-2.26586914-1.53808594-.54003662-.40508789-1.08007324-.81017578-1.63647461-1.22753906 0-.33 0-.66 0-1h26c.33-2.31.66-4.62 1-7 .58788502-1.85272853 1.23170553-3.68890476 1.9375-5.5 1.56866171-4.13556269 2.92326332-8.22786245 4.0625-12.5z" transform="translate(78 179)"/></g><path d="m0 0c2 3 2 3 4 11h26c-3.71062353 3.71062353-7.41379804 6.67630662-11.625 9.75-.680625.50660156-1.36125 1.01320312-2.0625 1.53515625-.65226562.47824219-1.30453125.95648438-1.9765625 1.44921875-.59248535.43538086-1.1849707.87076172-1.79541016 1.31933594-1.54052734.94628906-1.54052734.94628906-3.54052734.94628906.24758057.68102783.49516113 1.36205566.75024414 2.0637207 1.11357096 3.07959245 2.21305072 6.16403166 3.31225586 9.2487793.58491211 1.6077832.58491211 1.6077832 1.18164062 3.24804688.36416016 1.02802734.72832032 2.05605468 1.10351563 3.11523437.34039307.94786377.68078613 1.89572754 1.03149414 2.87231445.62084961 2.4519043.62084961 2.4519043-.37915039 5.4519043-.70346558-.52956299-.70346558-.52956299-1.42114258-1.06982422-2.12981944-1.60256858-4.26057746-3.20388456-6.39135742-4.80517578-.73798828-.55558594-1.47597656-1.11117187-2.23632812-1.68359375-.71220704-.53496094-1.42441407-1.06992188-2.15820313-1.62109375-.65460205-.49226074-1.3092041-.98452148-1.98364258-1.49169922-3.0070341-2.52561589-3.0070341-2.52561589-6.66870117-3.17626953-2.78318376 1.10210014-4.96760807 2.65665715-7.390625 4.41015625-1.33804687.96099609-1.33804687.96099609-2.703125 1.94140625-.67546875.49371094-1.3509375.98742187-2.046875 1.49609375-1-2-1-2-.61376953-3.74560547.24121582-.70012207.48243164-1.40024414.73095703-2.12158203.27303955-.7940625.5460791-1.588125.82739258-2.40625.30703857-.85851562.61407715-1.71703125.93041992-2.6015625.31155029-.88171875.62310059-1.7634375.9440918-2.671875 4.01636327-11.10620308 8.86591952-21.90865924 14.1809082-32.453125z" fill="#ebecee" transform="translate(28 137)"/><path d="m0 0c2.47412934 2.1957736 3.57916306 3.99239924 4.60546875 7.125.26103516.78890625.52207031 1.5778125.79101563 2.390625.26103515.81984375.52207031 1.6396875.79101562 2.484375.27263672.81984375.54527344 1.6396875.82617188 2.484375 1.98632812 6.09339756 1.98632812 6.09339756 1.98632812 9.515625h14c-2.72960519 2.04720389-4.69279799 3.46832899-7.65234375 4.8671875-.68811768.32629395-1.37623535.65258789-2.08520508.98876953-1.08897583.50442627-1.08897583.50442627-2.19995117 1.01904297-.74983154.34788574-1.49966309.69577148-2.2722168 1.05419922-15.27650897 7.01424326-15.27650897 7.01424326-19.7902832 8.07080078-4.63618133-1.91633569-8.61478278-5.11954612-12.6875-8-.78439453-.5465625-1.56878906-1.093125-2.37695312-1.65625-.74572266-.5259375-1.49144532-1.051875-2.25976563-1.59375-1.02226685-.71929687-1.02226685-.71929687-2.06518555-1.453125-1.6105957-1.296875-1.6105957-1.296875-2.6105957-3.296875h26l2-10c.81727981-2.56081006 1.68657219-5.10606219 2.625-7.625.44601562-1.20914062.89203125-2.41828125 1.3515625-3.6640625.33773437-.89460938.67546875-1.78921875 1.0234375-2.7109375z" fill="#ebecee" transform="translate(354 458)"/></svg>