<svg width="20" height="20" viewBox="0 0 20 20" fill="none" xmlns="http://www.w3.org/2000/svg">
<path d="M10.0002 18.8889C5.09102 18.8889 1.11133 14.9092 1.11133 10C1.11133 5.09081 5.09102 1.11111 10.0002 1.11111C14.9094 1.11111 18.8891 5.09081 18.8891 10C18.8891 14.9092 14.9094 18.8889 10.0002 18.8889Z" fill="#D90026"/>
<path d="M18.3295 6.88889C17.0684 3.51408 13.8149 1.11111 10.0002 1.11111C6.18553 1.11111 2.93208 3.51408 1.67098 6.88889L18.3295 6.88889Z" fill="black"/>
<path d="M1.67098 13.1111C2.93208 16.4859 6.18553 18.8889 10.0002 18.8889C13.8149 18.8889 17.0684 16.4859 18.3295 13.1111L1.67098 13.1111Z" fill="#FFDB44"/>
</svg>
