<svg width="20" height="20" viewBox="0 0 20 20" fill="none" xmlns="http://www.w3.org/2000/svg">
<circle cx="9.77756" cy="10" r="8.88889" fill="#F2F0F2"/>
<mask id="mask0_224_23490" style="mask-type:alpha" maskUnits="userSpaceOnUse" x="0" y="1" width="19" height="18">
<circle cx="9.77756" cy="10" r="8.88889" fill="#FCFCFC"/>
</mask>
<g mask="url(#mask0_224_23490)">
<rect x="3.77734" y="16.8889" width="12.2222" height="2.22222" fill="#D90026"/>
<rect x="3.77734" y="16.8889" width="12.2222" height="2.22222" fill="#D90026"/>
<rect x="1.11084" y="12.4445" width="17.5556" height="2.22222" fill="#D90026"/>
<rect x="1.11084" y="12.4445" width="17.5556" height="2.22222" fill="#D90026"/>
<rect x="1.11084" y="7.7778" width="17.5556" height="2.22222" fill="#D90026"/>
<rect x="1.11084" y="7.7778" width="17.5556" height="2.22222" fill="#D90026"/>
<rect x="1.11084" y="3.33336" width="17.5556" height="2.22222" fill="#D90026"/>
<rect x="1.11084" y="3.33336" width="17.5556" height="2.22222" fill="#D90026"/>
<rect x="0.888672" y="1.11111" width="9.11111" height="8.88889" fill="#0052B5"/>
<path d="M8.2219 8.55559L7.55523 8.88892L7.77745 8.22226L7.33301 7.77781H7.99967L8.2219 7.11115L8.55523 7.77781H9.11079L8.66634 8.22226L8.88856 8.88892L8.2219 8.55559Z" fill="#EFEFEF"/>
<path d="M5.11106 8.55559L4.44439 8.88892L4.66661 8.22226L4.22217 7.77781H4.88883L5.11106 7.11115L5.44439 7.77781H5.99995L5.5555 8.22226L5.77772 8.88892L5.11106 8.55559Z" fill="#EFEFEF"/>
<path d="M1.99973 8.55559L1.33306 8.88892L1.55528 8.22226L1.11084 7.77781H1.77751L1.99973 7.11115L2.33306 7.77781H2.88862L2.44417 8.22226L2.6664 8.88892L1.99973 8.55559Z" fill="#EFEFEF"/>
<path d="M8.2219 6.11115L7.55523 6.44448L7.77745 5.77781L7.33301 5.33337H7.99967L8.2219 4.6667L8.55523 5.33337H9.11079L8.66634 5.77781L8.88856 6.44448L8.2219 6.11115Z" fill="#EFEFEF"/>
<path d="M8.2219 3.6667L7.55523 4.00004L7.77745 3.33337L7.33301 2.88893H7.99967L8.2219 2.22226L8.55523 2.88893H9.11079L8.66634 3.33337L8.88856 4.00004L8.2219 3.6667Z" fill="#EFEFEF"/>
<path d="M8.2219 1.22225L7.55523 1.55558L7.77745 0.888913L7.33301 0.444468H7.99967L8.2219 -0.222198L8.55523 0.444468H9.11079L8.66634 0.888913L8.88856 1.55558L8.2219 1.22225Z" fill="#EFEFEF"/>
<path d="M5.11106 3.6667L4.44439 4.00004L4.66661 3.33337L4.22217 2.88893H4.88883L5.11106 2.22226L5.44439 2.88893H5.99995L5.5555 3.33337L5.77772 4.00004L5.11106 3.6667Z" fill="#EFEFEF"/>
<path d="M5.11106 6.11115L4.44439 6.44448L4.66661 5.77781L4.22217 5.33337H4.88883L5.11106 4.6667L5.44439 5.33337H5.99995L5.5555 5.77781L5.77772 6.44448L5.11106 6.11115Z" fill="#EFEFEF"/>
<path d="M1.99973 6.11115L1.33306 6.44448L1.55528 5.77781L1.11084 5.33337H1.77751L1.99973 4.6667L2.33306 5.33337H2.88862L2.44417 5.77781L2.6664 6.44448L1.99973 6.11115Z" fill="#EFEFEF"/>
</g>
</svg>
