<svg width="20" height="20" viewBox="0 0 20 20" fill="none" xmlns="http://www.w3.org/2000/svg">
<path d="M9.77756 18.8889C4.86836 18.8889 0.888672 14.9092 0.888672 10C0.888672 5.0908 4.86836 1.11111 9.77756 1.11111C14.6868 1.11111 18.6665 5.0908 18.6665 10C18.6665 14.9092 14.6868 18.8889 9.77756 18.8889Z" fill="#FFDB44"/>
<path d="M18.1068 6.88889C16.8457 3.51407 13.5923 1.11111 9.77756 1.11111C5.96287 1.11111 2.70942 3.51407 1.44832 6.88889L18.1068 6.88889Z" fill="#D90026"/>
<path d="M1.44832 13.1111C2.70942 16.4859 5.96287 18.8889 9.77756 18.8889C13.5923 18.8889 16.8457 16.4859 18.1068 13.1111L1.44832 13.1111Z" fill="#D90026"/>
</svg>
